<?xml version="1.0" encoding="UTF-8"?><svg id="b" xmlns="http://www.w3.org/2000/svg" width="385.841" height="416.549" viewBox="0 0 385.841 416.549"><defs><style>.j{fill:#3f88c9;}.k{fill:#211715;}.l{fill:#fff;}.m{fill:#f4b3b3;}.n{fill:#211715;}.o{fill:#b3b3b3;}.p{fill:#201614;}.q{fill:#f9d9d9;}.r{fill:#f2635f;}.s{fill:#645d5c;}</style></defs><g id="c"><path class="q" d="M364.395,81.477c-.706,1.509-1.133,3.66-1.267,5.257-.191,2.28.808,5.468,1.636,7.204,1.088,2.282,3.926,5.196,6.259,6.53,1.866,1.066,6.551,2.91,9.685,2.308,3.336-3.594,3.482-9.314,2.704-14.141-.705-4.376-5.226-9.185-9.045-11.433-1.362,2.432-2.335,4.589-3.624,6.81-1.142-.481-4.053-1.617-6.347-2.534Z"/><path class="q" d="M23.3,43.859c1.263-.818,3.107-1.899,4.547-2.395,2.056-.708,5.226-.532,7.019-.175,2.357.47,4.512,1.772,6.368,3.299,1.577,1.298,3.813,4.261,3.989,7.288-2.532,3.913-6.908,7.357-11.537,7.767-4.196.372-9.034-2.606-11.997-5.6,1.923-1.823,3.683-3.222,5.428-4.929-.71-.94-2.436-3.356-3.817-5.255Z"/><path class="m" d="M2.625,112.53c-.671-2.348-.671-4.898-.47-6.978.284-2.932,1.094-4.818,2.56-6.814,4.668-6.36,11.625-7.86,19.117-7.966.372-.005.753-.007,1.101.124,2.257.845,3.341,6.643,3.651,8.682.51,3.348.294,6.871-.866,10.067-1.946,5.365-7.055,9.751-12.428,11.675-1.137-3.405-1.442-6.911-1.973-10.461-2.641.33-7.305,1.525-10.693,1.671Z"/><path class="m" d="M353.813,38.106c.151,1.713.257,4.155-.011,5.876-.383,2.456-2.256,5.566-3.576,7.186-1.735,2.13-4.203,3.613-6.739,4.671-2.155.899-6.344,1.575-9.498.134-2.6-4.651-3.741-10.914-1.68-15.812,1.867-4.439,7.464-7.736,12.074-9.129.814,2.918,1.287,5.444,2.079,8.121,1.329-.215,4.694-.667,7.352-1.047Z"/><path class="m" d="M68.916,22.296c.299-2.276.867-5.488,1.715-7.651,1.21-3.089,4.551-6.598,6.739-8.327,2.877-2.273,6.522-3.49,10.131-4.135,3.068-.548,8.721-.215,12.413,2.575,2.041,6.812,1.714,15.302-2.388,21.086-3.718,5.242-11.964,7.918-18.373,8.399-.216-4.037-.101-7.465-.358-11.182-1.794-.105-6.309-.49-9.881-.764Z"/><path class="k" d="M24.309,45.586c1.63-1.045,3.396-2.212,5.348-2.507,1.826-.275,3.876-.147,5.646.382,3.61,1.08,7.575,4.43,7.919,8.415l.273-1.009c-2.155,3.259-5.697,6.319-9.721,6.769-3.99.446-7.987-2.34-10.672-5.006v2.828c1.781-1.675,3.671-3.229,5.428-4.929.576-.557.83-1.734.313-2.424-1.299-1.732-2.545-3.504-3.817-5.255-.634-.873-1.738-1.301-2.736-.718-.862.504-1.356,1.858-.718,2.736,1.272,1.751,2.518,3.524,3.817,5.255l.313-2.424c-1.757,1.7-3.647,3.255-5.428,4.929-.785.738-.749,2.084,0,2.828,2.892,2.872,6.699,5.418,10.799,6.045,4.284.655,8.363-1.126,11.626-3.811,1.58-1.3,3.272-2.988,4.25-4.807s-.591-4.909-1.569-6.47c-2.179-3.477-6.057-6.312-10.116-7.081-2.192-.415-4.469-.491-6.671-.113-2.276.39-4.386,1.681-6.303,2.91-2.16,1.385-.157,4.849,2.019,3.454Z"/><path class="k" d="M4.554,111.999c-1.226-4.595-.516-9.615,2.684-13.217,2.926-3.295,6.898-4.943,11.185-5.618,1.04-.164,2.093-.251,3.143-.312.502-.029,1.005-.05,1.507-.064.237-.007.52.015.76-.016.576-.075.163-.127.438.024-.15-.082.237.268.278.324.232.314.416.688.578,1.043.356.782.595,1.625.813,2.455,1.106,4.192,1.39,8.753-.281,12.845-1.896,4.642-6.271,8.224-10.899,9.929l2.46,1.397c-1.098-3.399-1.456-6.943-1.973-10.461-.113-.767-1.145-1.572-1.929-1.468-3.575.473-7.083,1.48-10.693,1.671-2.561.136-2.577,4.137,0,4,3.626-.192,7.11-1.197,10.693-1.671l-1.929-1.468c.517,3.518.875,7.062,1.973,10.461.311.963,1.408,1.784,2.46,1.397,5.331-1.964,10.282-5.732,12.88-10.881,2.531-5.016,2.544-10.736,1.273-16.103-.494-2.085-1.166-4.428-2.644-6.046-1.8-1.97-4.665-1.485-7.068-1.271-5.38.478-10.641,2.042-14.672,5.794-2.19,2.039-4.034,4.64-4.867,7.536-.982,3.414-.939,7.369-.027,10.785.663,2.485,4.522,1.431,3.857-1.063Z"/><path class="k" d="M351.813,38.106c.197,2.345.411,4.844-.408,7.095-.766,2.104-2.082,4.218-3.717,5.755-3.089,2.905-8.526,5.068-12.69,3.29l.718.718c-2.302-4.241-2.831-10.029-1.042-14.562,1.583-4.01,6.395-6.252,10.24-7.441l-2.46-1.397c.741,2.695,1.299,5.436,2.079,8.121.326,1.123,1.377,1.569,2.46,1.397,2.444-.387,4.902-.698,7.352-1.047,1.07-.153,1.657-1.514,1.397-2.46-.316-1.15-1.387-1.55-2.46-1.397-2.45.349-4.907.66-7.352,1.047l2.46,1.397c-.78-2.684-1.338-5.426-2.079-8.121-.28-1.018-1.425-1.717-2.46-1.397-4.096,1.266-8.333,3.355-11.056,6.77-2.928,3.673-3.505,8.862-2.937,13.401.307,2.451.945,4.813,2.047,7.032,1.153,2.32,4.486,2.569,6.825,2.493,4.66-.151,9.561-2.375,12.644-5.903,1.682-1.924,3.027-4.229,3.888-6.633.926-2.587.777-5.463.551-8.158-.214-2.547-4.216-2.569-4,0Z"/><path class="k" d="M70.845,22.828c.449-3.338.966-6.844,2.874-9.693,1.754-2.62,4.181-5.072,6.951-6.604,5.402-2.989,12.996-3.862,18.236-.047l-.919-1.195c1.844,6.308,1.854,14.209-2.283,19.677-3.654,4.829-10.793,6.813-16.549,7.276l2,2c-.189-3.725-.114-7.459-.358-11.182-.074-1.13-.859-1.931-2-2-3.297-.201-6.588-.51-9.881-.764-2.567-.198-2.554,3.803,0,4,3.293.254,6.584.563,9.881.764l-2-2c.243,3.723.169,7.456.358,11.182.051,1.013.877,2.09,2,2,5.803-.467,11.86-2.143,16.535-5.733,5.009-3.846,7.175-10.037,7.425-16.19.128-3.138-.245-6.339-1.066-9.37-.436-1.61-1.547-2.349-3.003-3.062-1.482-.726-3.06-1.243-4.684-1.536-5.988-1.08-12.742.353-17.667,3.982-2.683,1.977-5.107,4.565-6.836,7.416-1.817,2.996-2.412,6.594-2.872,10.015-.144,1.069.256,2.147,1.397,2.46.931.256,2.315-.319,2.46-1.397Z"/><path class="k" d="M362.668,80.468c-.966,2.185-1.625,4.709-1.559,7.116.065,2.352.754,4.685,1.687,6.83,1.714,3.942,5.429,7.15,9.339,8.787,2.004.838,4.091,1.452,6.262,1.646,1.007.09,2.42.183,3.319-.344.98-.574,1.76-1.959,2.271-2.944,2.141-4.129,2.216-9.306,1.292-13.785-1.06-5.143-5.553-9.677-9.904-12.299-.91-.548-2.217-.219-2.736.718-1.248,2.249-2.345,4.579-3.624,6.81l2.259-.919c-2.102-.877-4.232-1.69-6.347-2.534-1.003-.401-2.197.438-2.46,1.397-.313,1.139.39,2.058,1.397,2.46,2.115.845,4.245,1.657,6.347,2.534.797.333,1.859-.222,2.259-.919,1.28-2.232,2.377-4.561,3.624-6.81l-2.736.718c3.559,2.145,7.302,5.838,8.096,10.073.751,4.003.704,9.153-2.16,12.36l.883-.514c-2.132.351-4.602-.511-6.539-1.322-2.037-.853-3.716-2.182-5.198-3.81-3.197-3.512-4.261-8.826-2.316-13.228.436-.987.288-2.148-.718-2.736-.851-.497-2.298-.276-2.736.718Z"/><g id="d"><path class="j" d="M269.549,144.358c-1.62.011-13.863-.623-21.487,1.405-1.968.524-4.141,1.344-5.479,3.385-.927,1.413-1.54,3.5-1.45,6.977.152,5.868.448,47.874,2.103,64.846.296,3.035.677,6.288,2.545,8.581,2.57,3.154,6.938,3.357,10.79,3.324,20.332-.175,41.694-.325,62.027-.5,5.644-.049,10.218-4.981,10.229-11.126.027-16.424-1.634-56.388-2.083-66.39-.062-1.388-.283-4.941-2.58-7.793-.693-.861-2.521-2.215-5.086-2.918-7.456-2.05-20.956-1.225-22.417-1.086"/><path class="k" d="M246.843,230.619c-.379-.31-.734-.662-1.06-1.061-1.87-2.3-2.25-5.55-2.55-8.59-.018-.189-.037-.381-.055-.576,1.116-.788,2.262-1.772,3.395-2.914.046.773.078,1.287.078,1.287.074,1.185.222,3.259.393,5.782.656-.001,1.283-.154,1.88-.417-.15,2.497-.33,4.992-.516,7.486-.555-.271-1.08-.599-1.565-.996Z"/><path class="l" d="M312.954,109.933c.89-.804,2.211-1.192,3.445-1.008s2.358.929,2.923,1.943c.399.711.528,1.522.602,2.312.27,3.116-.344,6.291-1.756,9.13-.688,1.383-1.584,2.707-2.831,3.715-.957.764-1.919,1.197-3.309.774l-.497-.151c-.305,1.202-.707,2.247-.887,2.759-.986,2.498-6.536,11.401-13.497,14.566.07.548.16,1.177.309,2.003.36,2.12.96,4.52,3.78,6.08.19.06,3.87,1.81,4.16,1.93,0,0-9.002,13.696-19.669,13.696s-21.231-13.696-21.231-13.696c.3-.12,3.97-1.87,4.17-1.93,2.81-1.56,3.41-3.96,3.78-6.08.089-.506.159-.933.206-1.305-3.599-1.467-6.915-4.012-9.8-7.235-3.12-3.485-5.013-7.215-6.141-10.428l-.73.197c-1.572.423-2.773-.415-3.73-1.179-1.247-1.008-2.143-2.332-2.831-3.715-1.412-2.839-2.026-6.014-1.756-9.13.074-.79.203-1.601.602-2.312.565-1.014,1.689-1.759,2.923-1.943s2.554.204,3.445,1.008c0,0,2.168-23.687,28.39-23.687s29.932,23.687,29.932,23.687Z"/><path class="s" d="M251.358,97.826c1.107-11.383,7.552-18.535,13.277-22.641,5.195-3.726,11.685-5.949,19.329-5.949,3.872,0,7.744.578,11.41,1.871,1.658.585,3.268,1.31,4.813,2.158,2.12,1.163,4.459,2.74,5.511,3.655.66.573,1.628,1.515,2.266,2.159,1.583,1.6,2.996,3.376,4.188,5.298,2.845,4.586,4.315,9.905,4.552,15.312.153,3.502-.129,6.483-.595,9.208-.89-.074-1.804.145-2.55.598l-1.239.728c-.705.414-1.886.754-2.674.535-.52-.144-.933-.558-1.195-1.03-.296-.533-.427-1.141-.573-1.73-.661-4.477-2.603-8.834-5.636-12.659-.461-1.337-1.184-2.648-2.324-3.497-.921-.686-2.15-1.02-3.251-.749-1.932.945-3.951,1.773-6.033,2.488-1.516.52-3.522.906-4.63-.059-1.049-.914-.622-2.571-1.87-3.315-.845-.503-2.043-.322-3.053-.069-10.678,2.671-17.11,9.159-21.073,17.393,0,0-1.064,2.181-2.466,2.505-.963.222-2.909-.105-2.909-.105-.693-.625-1.645-.999-2.616-1.04.197,1.917-.97-5.079-.79-9.203.028-.633.072-1.254.131-1.863Z"/><path class="k" d="M299.103,144.918c5.082-.229,10.238-.265,15.294.361,2.549.316,5.351.781,7.458,2.356,1.713,1.281,2.482,3.65,2.767,5.69.386,2.762.302,5.658.419,8.441.17,4.054.332,8.108.489,12.162.378,9.793.726,19.588.99,29.385.118,4.372.221,8.745.274,13.118.05,4.112.466,8.441-2.719,11.6-1.643,1.63-3.678,2.321-5.955,2.35-3.656.046-7.312.063-10.968.093-7.25.059-14.5.114-21.751.17s-14.466.111-21.698.172c-3.201.027-6.43.179-9.628.023-2.421-.118-5.201-.571-6.801-2.597-1.655-2.095-1.84-5.133-2.08-7.682-.166-1.763-.296-3.53-.412-5.298-.28-4.274-.471-8.554-.634-12.834-.358-9.403-.565-18.812-.729-28.22-.104-5.952-.159-11.905-.28-17.857-.041-2.002-.04-4.235,1.047-5.998,1.353-2.196,4.311-2.72,6.652-3.159,4.894-.917,9.967-.972,14.932-.91,1.261.016,2.523.074,3.784.073,2.574-.002,2.578-4.002,0-4-4.064.004-8.108-.148-12.172.098-2.822.171-5.662.458-8.431,1.047-2.814.598-5.696,1.579-7.55,3.903-2.507,3.14-2.284,7.238-2.223,11.034.049,3.104.09,6.209.137,9.313.146,9.56.327,19.12.627,28.677.277,8.821.386,17.775,1.514,26.539.41,3.184,1.192,6.533,3.658,8.792,2.269,2.078,5.249,2.808,8.241,3.036,3.271.249,6.595.052,9.872.025,3.843-.032,7.686-.063,11.529-.093,7.586-.06,15.172-.117,22.758-.176,3.853-.03,7.705-.061,11.558-.092,3.556-.029,7.3.258,10.83-.181,5.527-.687,9.885-5.275,10.72-10.728.321-2.098.204-4.254.182-6.371-.023-2.143-.059-4.285-.103-6.427-.208-10.123-.553-20.243-.925-30.361-.298-8.095-.618-16.19-.975-24.283-.201-4.571-1.087-9.391-5.187-12.104-2.525-1.671-5.548-2.241-8.497-2.631s-5.939-.542-8.92-.578c-2.365-.028-4.73.018-7.092.124-2.564.116-2.578,4.116,0,4h0Z"/><path class="o" d="M318.83,159.03c-3.377-1.972-7.099-3.53-11.124-4.789-1.924-1.766-4.376-3.6-6.61-4.871-1.627,9.317-12.54,40.402-14.621,45.566-3.292-8.619-14.645-37.327-16.544-45.498-1.908,1.079-5.327,3.43-7.81,5.593-6.936,2.979-13.095,6.685-17.639,11.418-3.215,3.733-6.315,8.374-8.467,12.231-5.518,9.892-9.375,19.063-10.154,30.363-.17,2.464-.101,5.018.879,7.285,1.904,4.406,7.156,6.826,11.905,6.136,3.125-.454,7.319-3.74,10.92-8.423-.289,4.511-.579,9.047-.579,9.047-.271,4.779-.662,9.551-1.013,14.325-.216,2.931-.426,5.863-.618,8.796-.097,1.478-.19,2.956-.276,4.435-.064,1.106-.503,2.853-.108,3.916.049.078.107.15.176.215.314.297.777.366,1.209.39,1.444.079,22.316.229,26.519-.622.936-.189,1.886-.416,2.695-.923,1.173-.735,1.922-1.975,2.57-3.198,2.217-4.183,3.774-8.717,4.585-13.382.803,4.664,2.359,9.198,4.577,13.382.648,1.223,1.397,2.463,2.57,3.198.809.507,1.759.733,2.695.923,4.203.851,25.211.701,26.655.622.432-.024.895-.093,1.22-.4,1.053,1.005.377-2.558.353-3.302-.069-2.173-.141-4.346-.212-6.519-.132-3.996-.264-7.992-.377-11.988-.118-4.165-.214-8.33-.255-12.497l-.021-10.755c3.113,3.092,6.794,5.372,9.616,5.757,4.749.648,10.001-1.626,11.905-5.765.98-2.13,1.736-7.034,1.566-9.348-.78-10.616-5.564-18.969-11.667-27.889-2.721-3.977-8.465-8.973-12.404-12.108-.689-.46-1.394-.899-2.114-1.32"/><path class="l" d="M313.721,382.283c-.075-.487-.117-.968-.15-1.298-.172-1.767-.346-3.518-.473-5.243-4.656.074-11.923.077-17.289.045.128,2.058.17,4.056.369,6.511,2.884,1.771,5.849,3.519,9.156,4.196,3.268.669,6.861.072,9.307-2.184-.191-.176-.343-.334-.435-.46-.245-.337-.392-.956-.486-1.567Z"/><path class="l" d="M275.273,375.792c-5.312.026-12.076.019-16.427-.054-.131,1.725-.304,3.478-.477,5.246-.073.744-.196,2.26-.636,2.865-.083.114-.215.253-.38.409,2.447,2.297,6.071,2.909,9.364,2.235,3.262-.668,6.193-2.379,9.039-4.124.204-2.487.247-4.504.378-6.581-.282.002-.57.003-.861.005Z"/><path class="k" d="M293.42,371.842c.023.151.045.301.066.452-.021-.162-.015-.119.017.129.035.284.069.568.099.853.058.544.107,1.089.148,1.635.077,1.021.126,2.043.174,3.065.113,2.403.26,4.799.544,7.189.128,1.072.828,2,2,2,.982,0,2.128-.92,2-2-.569-4.785-.484-9.616-1.192-14.386-.159-1.069-1.509-1.658-2.46-1.397-1.146.315-1.556,1.388-1.397,2.46h0Z"/><path class="k" d="M310.886,369.596c-.076,3.99.312,7.994.743,11.957.17,1.559.403,3.058,1.605,4.175,1.031.959,2.214,1.761,3.339,2.603.865.648,2.235.14,2.736-.718.598-1.022.15-2.087-.718-2.736-.937-.702-1.648-1.174-2.465-1.919-.033-.03-.433-.434-.434-.433.048-.03.202.296.202.296-.025.004-.133-.48-.145-.536-.128-.576-.142-.942-.21-1.635-.358-3.674-.724-7.357-.654-11.054.049-2.575-3.951-2.575-4,0h0Z"/><path class="k" d="M274.664,370.779c-.708,4.771-.622,9.601-1.192,14.386-.128,1.074,1.011,2,2,2,1.187,0,1.872-.923,2-2,.284-2.39.431-4.786.544-7.189.048-1.022.097-2.044.174-3.065.041-.546.09-1.091.148-1.635.031-.285.064-.569.099-.853.032-.248.037-.291.017-.129.021-.151.043-.302.066-.452.158-1.067-.266-2.15-1.397-2.46-.943-.259-2.301.322-2.46,1.397h0Z"/><path class="k" d="M257.056,369.596c.071,3.696-.296,7.379-.654,11.054-.061.63-.084,1.031-.185,1.522-.031.154-.161.406-.138.547.019.121.062.044.094-.107.033-.158.055-.045-.062.064-.078.073-.153.151-.231.224-.838.781-1.57,1.259-2.53,1.978-.863.646-1.307,1.729-.718,2.736.498.851,1.867,1.369,2.736.718,1.103-.826,2.255-1.615,3.275-2.544,1.245-1.135,1.495-2.631,1.669-4.234.431-3.963.819-7.967.743-11.957-.049-2.571-4.049-2.579-4,0h0Z"/><path class="s" d="M309.165,408.966c1.034.979,2.112,1.898,3.338,2.605,4.086,2.355,8.944,3.409,13.631,2.797,2.05-.267,4.102-.85,5.793-2.039s2.987-3.047,3.161-5.107c.247-2.929-1.53-5.703-3.614-7.777-5.345-5.32-11.012-10.543-15.733-16.366-2.367,3.258-6.607,4.191-10.406,3.414-3.494-.715-6.607-2.626-9.644-4.494-2.907-1.787-3.344,6.603-3.413,8.422-.109,2.88-.581,6.685,1.704,8.815,1.642,1.53,5.161,3.318,7.307,3.975,3.507,1.072,5.316,3.331,7.876,5.755Z"/><path class="s" d="M262.887,408.966c-1.034.979-2.112,1.898-3.338,2.605-4.086,2.355-8.944,3.409-13.631,2.797-2.05-.267-4.102-.85-5.793-2.039s-2.987-3.047-3.161-5.107c-.247-2.929,1.53-5.703,3.614-7.777,5.345-5.32,11.012-10.543,15.733-16.366,2.367,3.258,6.607,4.191,10.406,3.414,3.494-.715,6.607-2.626,9.644-4.494,2.907-1.787,3.344,6.603,3.413,8.422.109,2.88.581,6.685-1.704,8.815-1.642,1.53-5.161,3.318-7.307,3.975-3.507,1.072-5.316,3.331-7.876,5.755Z"/><path class="k" d="M307.751,410.381c3.251,3.044,7.248,5.048,11.654,5.788,4.224.709,9.045.535,12.837-1.668,3.83-2.225,5.858-6.643,4.324-10.917-1.499-4.176-5.237-7.092-8.308-10.104-3.86-3.786-7.681-7.619-11.103-11.813-.903-1.107-2.445-.511-3.141.405-2.923,3.845-8.508,2.89-12.263,1.078-1.209-.583-2.374-1.254-3.525-1.945-.907-.545-1.802-1.258-2.876-1.406-1.593-.219-2.865.811-3.548,2.176-1.27,2.538-1.402,5.66-1.525,8.447-.099,2.242-.302,4.559.294,6.755.622,2.291,2.145,3.801,4.084,5.06,2.217,1.438,4.604,2.206,7.006,3.225,2.445,1.037,4.211,3.127,6.089,4.92,1.862,1.778,4.695-1.047,2.828-2.828-1.661-1.586-3.233-3.28-5.148-4.571-1.836-1.237-3.985-1.692-5.956-2.64-1.556-.748-3.821-1.711-4.692-3.308-.925-1.695-.631-3.94-.543-5.789.119-2.484.045-5.074,1.059-7.362-.115.259.2-.27.223-.366-.03.123-.13.134-.195.14-.159.014-.484.03-.63.065-.2.047-.181-.308-.016.005.233.44,1.453.89,1.911,1.162,2.244,1.333,4.605,2.57,7.132,3.272,5.072,1.409,10.481.222,13.744-4.07l-3.141.405c2.537,3.11,5.293,6.026,8.125,8.866,2.785,2.793,5.848,5.411,8.439,8.385,2.108,2.418,3.226,5.776.666,8.296-2.482,2.443-6.647,2.701-9.918,2.415-4.136-.362-8.039-2.077-11.06-4.905-1.878-1.758-4.712,1.064-2.828,2.828Z"/><path class="k" d="M261.473,407.552c-2.72,2.547-6.011,4.074-9.678,4.724-3.324.589-7.401.438-10.318-1.444-1.212-.782-2.253-2.039-2.49-3.495-.266-1.629.478-3.222,1.364-4.538,1.028-1.528,2.476-2.77,3.783-4.053,1.438-1.411,2.882-2.817,4.313-4.236,3.234-3.206,6.398-6.485,9.279-10.016l-3.141-.405c2.872,3.779,7.356,5.158,11.97,4.455,2.522-.384,4.927-1.449,7.155-2.657,1.116-.605,2.197-1.268,3.282-1.927.681-.414.548-.247-.017-.229-.058.002-.542-.169-.306-.092-.033-.011-.08-.052-.079-.051.056.198.27.529.441,1.121.201.695.337,1.411.445,2.126.143.944.24,2.253.29,3.359.083,1.822.347,3.791-.06,5.588-.443,1.951-1.953,2.843-3.605,3.768-2.148,1.203-4.57,1.736-6.695,2.946-2.277,1.296-4.057,3.266-5.932,5.057-1.866,1.781.966,4.607,2.828,2.828,1.673-1.597,3.233-3.399,5.285-4.524.916-.502,1.916-.752,2.882-1.133,1.193-.471,2.361-1.009,3.485-1.627,1.904-1.049,3.928-2.332,4.923-4.34,1.02-2.059,1.072-4.406.977-6.656-.123-2.935-.146-6.075-1.097-8.882-.482-1.423-1.284-2.944-2.852-3.366-2.075-.558-4.156,1.439-5.821,2.365-4.065,2.262-10.588,4.4-14.044-.147-.696-.915-2.238-1.511-3.141-.405-2.979,3.652-6.261,7.033-9.61,10.344-1.707,1.688-3.43,3.359-5.138,5.046-1.51,1.491-3.005,3.038-3.978,4.949-2.048,4.019-1.365,8.622,2.228,11.509,3.338,2.682,8.074,3.331,12.229,2.925,5.153-.503,9.89-2.514,13.674-6.058,1.883-1.763-.95-4.588-2.828-2.828Z"/><path class="l" d="M285.386,240.208c.885,3.546,2.203,6.984,3.915,10.214.648,1.223,1.397,2.463,2.57,3.198.809.507,1.759.733,2.695.923,4.085.827,24.047.709,26.488.629-.422,18.512-1.731,48.962-2.321,68.017-.601,19.419-.739,32.988-1.34,52.406-2.692.286-23.105.235-27.661.124-.348-11.954-1.675-40.918-1.837-45.649-.459-13.399-.965-31.801-1.422-45.11-.577,13.96-1.166,29.232-1.743,43.215-.204,4.938-1.904,35.068-2.337,47.544-4.556.111-24.969.162-27.661-.124-.665-19.392-1.408-33.095-2.073-52.488-.647-18.86-2.046-49.401-3.235-67.917,4.579.075,21.689.114,25.45-.647.936-.189,1.886-.416,2.695-.923,1.173-.735,1.922-1.975,2.57-3.198,1.712-3.229,3.03-6.668,3.915-10.214h1.332Z"/><path class="l" d="M285.199,157.875l-.628-.005c-.052-.179-.242-.271-.415-.346-1.314-.597-9.579-5.194-10.874-6.065,0,0-1.71-1.151-3.42-2.303l.124.511c2.051,8.463,13.228,36.73,16.49,45.27,2.081-5.164,12.995-36.249,14.621-45.566,0,0,.02-.114.04-.227l-2.632,1.871c-1.475,1.049-9.883,5.839-11.402,6.528-.167.081-.352.173-.409.346l-1.493-.013Z"/><path class="j" d="M288.51,189.466c.827-2.299,1.813-5.097,2.867-8.15l-.466-2.006c-.842-5.627-1.789-12.885-1.778-13.185.006-.663.594-2.558.698-2.991,0,0,.263-.652.596-1.48-.741-.669-1.47-1.328-2.078-1.879h-1.45c-.84,0-1.715.003-2.508.006h-1.259c-.505.532-1.11,1.161-1.74,1.804.246.588.422,1.008.422,1.008.144.732.69,3.125.69,3.494,0,.213-.416,5.466-1.148,11.444,0,0-.25,1.17-.569,2.659,2.384,6.219,4.533,11.72,5.689,14.745.398-.987,1.119-2.922,2.036-5.47Z"/><path class="k" d="M287.808,203.155c-.423-.18-.847-.381-1.301-.471-.654-.129-1.282-.106-1.93.06-.883.226-1.788.76-2.38,1.458-.745.879-1.133,1.839-1.214,2.987-.063.886.214,1.788.708,2.52.51.755,1.158,1.443,1.961,1.891s1.692.612,2.606.646c1.096.041,2.086-.227,2.918-.96.661-.583,1.174-1.486,1.385-2.337.319-1.29.073-2.51-.559-3.658-.491-.892-1.255-1.714-2.193-2.138-.505-.228-.987-.354-1.541-.202-.464.128-.967.486-1.195.919-.245.464-.368,1.026-.202,1.541.151.466.454.985.919,1.195.225.101.432.224.628.375l-.405-.313c.184.15.346.317.494.502l-.313-.405c.241.317.433.664.59,1.03l-.202-.478c.091.23.158.46.192.705l-.071-.532c.021.214.015.419-.013.632l.071-.532c-.04.247-.103.482-.199.713l.202-.478c-.109.247-.242.476-.405.692l.313-.405c-.116.144-.24.273-.383.391l.405-.313c-.099.074-.199.137-.31.19l.478-.202c-.144.059-.289.09-.443.112l.532-.071c-.416.048-.836.03-1.251-.025l.532.071c-.258-.038-.508-.091-.751-.186l.478.202c-.247-.106-.472-.242-.686-.404l.405.313c-.268-.213-.505-.456-.715-.727l.313.405c-.165-.221-.309-.453-.421-.706l.202.478c-.063-.152-.107-.303-.132-.467l.071.532c-.026-.234-.02-.464.007-.697l-.071.532c.035-.249.093-.488.189-.72l-.202.478c.088-.195.194-.376.321-.548l-.313.405c.167-.215.357-.403.572-.571l-.405.313c.199-.147.41-.269.637-.368l-.478.202c.231-.093.466-.158.713-.193l-.532.071c.157-.017.312-.027.469-.01l-.532-.071c.29.046.566.143.836.255l-.478-.202.061.026c.516.22.976.357,1.541.202.464-.128.967-.486,1.195-.919.245-.464.368-1.026.202-1.541-.149-.459-.454-.997-.919-1.195Z"/><path class="k" d="M287.808,219.488c-.423-.18-.847-.381-1.301-.471-.654-.129-1.282-.106-1.93.06-.883.226-1.788.76-2.38,1.458-.745.879-1.133,1.839-1.214,2.987-.063.886.214,1.788.708,2.52.51.755,1.158,1.443,1.961,1.891s1.692.612,2.606.646c1.096.041,2.086-.227,2.918-.96.661-.583,1.174-1.486,1.385-2.337.319-1.29.073-2.51-.559-3.658-.491-.892-1.255-1.714-2.193-2.138-.505-.228-.987-.354-1.541-.202-.464.128-.967.486-1.195.919-.245.464-.368,1.026-.202,1.541.151.466.454.985.919,1.195.225.101.432.224.628.375l-.405-.313c.184.15.346.317.494.502l-.313-.405c.241.317.433.664.59,1.03l-.202-.478c.091.23.158.46.192.705l-.071-.532c.021.214.015.419-.013.632l.071-.532c-.04.247-.103.482-.199.713l.202-.478c-.109.247-.242.476-.405.692l.313-.405c-.116.144-.24.273-.383.391l.405-.313c-.099.074-.199.137-.31.19l.478-.202c-.144.059-.289.09-.443.112l.532-.071c-.416.048-.836.03-1.251-.025l.532.071c-.258-.038-.508-.091-.751-.186l.478.202c-.247-.106-.472-.242-.686-.404l.405.313c-.268-.213-.505-.456-.715-.727l.313.405c-.165-.221-.309-.453-.421-.706l.202.478c-.063-.152-.107-.303-.132-.467l.071.532c-.026-.234-.02-.464.007-.697l-.071.532c.035-.249.093-.488.189-.72l-.202.478c.088-.195.194-.376.321-.548l-.313.405c.167-.215.357-.403.572-.571l-.405.313c.199-.147.41-.269.637-.368l-.478.202c.231-.093.466-.158.713-.193l-.532.071c.157-.017.312-.027.469-.01l-.532-.071c.29.046.566.143.836.255l-.478-.202.061.026c.516.22.976.357,1.541.202.464-.128.967-.486,1.195-.919.245-.464.368-1.026.202-1.541-.149-.459-.454-.997-.919-1.195Z"/><path class="k" d="M247.441,255.459c.933,14.63,1.632,29.277,2.275,43.922.685,15.592,1.183,31.191,1.844,46.784.416,9.809.834,19.617,1.172,29.429.088,2.567,4.089,2.579,4,0-.602-17.499-1.469-34.988-2.073-52.488-.507-14.698-1.161-29.392-1.901-44.08-.396-7.858-.817-15.716-1.317-23.568-.163-2.556-4.164-2.575-4,0h0Z"/><path class="k" d="M284.458,285.331c-.613,14.874-1.08,29.758-1.81,44.627-.478,9.735-1.027,19.466-1.512,29.2-.275,5.518-.549,11.037-.743,16.559-.09,2.575,3.91,2.571,4,0,.367-10.489.958-20.971,1.508-31.451.536-10.198,1.008-20.393,1.417-30.597.378-9.446.75-18.893,1.14-28.339.106-2.574-3.894-2.569-4,0h0Z"/><path class="k" d="M319.034,255.926c-.348,14.676-.94,29.346-1.484,44.016-.574,15.493-1.071,30.986-1.42,46.486-.219,9.723-.437,19.445-.736,29.166-.079,2.575,3.921,2.572,4,0,.534-17.301.793-34.609,1.325-51.91.451-14.689,1.056-29.373,1.578-44.06.281-7.898.551-15.798.739-23.699.061-2.575-3.939-2.574-4,0h0Z"/><path class="k" d="M284.485,285.316c.51,14.944.882,29.893,1.413,44.836.332,9.339.796,18.674,1.18,28.012.24,5.85.483,11.701.655,17.554.075,2.568,4.076,2.579,4,0-.322-10.982-.834-21.96-1.305-32.937-.456-10.623-.816-21.245-1.14-31.873-.26-8.531-.511-17.062-.803-25.592-.088-2.567-4.088-2.579-4,0h0Z"/><path class="k" d="M254.732,377.594c4.326.432,8.792.204,13.132.211,4.842.007,9.688.027,14.529-.087,2.57-.061,2.579-4.061,0-4-4.841.114-9.687.094-14.529.087-4.34-.007-8.806.221-13.132-.211-1.076-.107-2,.996-2,2,0,1.171.921,1.892,2,2h0Z"/><path class="k" d="M317.393,373.594c-4.326.432-8.792.204-13.132.211-4.842.007-9.688.027-14.529-.087-2.575-.061-2.574,3.939,0,4,4.841.114,9.687.094,14.529.087,4.34-.007,8.806.221,13.132-.211,1.075-.107,2-.842,2-2,0-.998-.919-2.108-2-2h0Z"/><path class="k" d="M265.027,155.914c1.417-.584,2.785-1.287,4.178-1.925.105-.048.211-.094.316-.143.249-.115-.549.229-.351.148.193-.079.39-.153.575-.251.678-.36,1.319-.865,1.871-1.394,1.003-.963,1.683-2.159,2.162-3.452.438-1.183.639-2.464.807-3.71.076-.558.096-1.033-.202-1.541-.243-.415-.718-.811-1.195-.919-.939-.214-2.31.288-2.46,1.397-.141,1.042-.31,2.099-.609,3.109-.065.221-.142.438-.219.655-.017.049-.057.111-.063.163,0,.008.184-.396.087-.208-.064.122-.116.251-.179.374-.121.233-.255.46-.402.678-.042.061-.288.399-.102.151.184-.245-.116.127-.175.191-.184.2-.382.38-.584.561-.275.247.267-.177-.047.04-.145.1-.289.2-.439.293-.369.229-.023.027.111.008-.164.024-.374.156-.523.22-.087.037-.173.076-.259.115-.664.301-1.323.614-1.983.924-.38.178-.76.357-1.141.535-.234.109-1.214.528-.237.126-.503.207-.909.431-1.195.919-.251.429-.357,1.061-.202,1.541.3.928,1.424,1.824,2.46,1.397h0Z"/><path class="k" d="M295.145,143.965c.336,2.608.682,5.323,2.338,7.468.467.604.979,1.104,1.582,1.571.323.25.653.495,1.011.694.203.113.419.214.639.29.109.038-.617-.273-.343-.144.662.312,1.328.614,1.99.925.672.316,1.339.653,2.023.943.517.219.975.358,1.541.202.464-.128.967-.486,1.195-.919.453-.857.311-2.3-.718-2.736-.748-.317-1.477-.687-2.212-1.032-.454-.213-.909-.427-1.364-.637-.145-.067-.29-.134-.436-.199-.163-.072-.539-.25-.573-.243-.156.031.432.237.205.054-.142-.115-.327-.212-.482-.31-.182-.133-.172-.122.03.033-.078-.063-.156-.127-.231-.193-.213-.186-.704-.54-.787-.818.173.227.196.255.069.082-.051-.072-.1-.145-.148-.219-.094-.145-.182-.295-.264-.447-.033-.061-.172-.441-.226-.456.117.286.136.329.055.131-.03-.077-.06-.155-.088-.233-.219-.607-.367-1.236-.486-1.869-.073-.389-.141-.78-.204-1.171-.034-.206-.065-.413-.095-.62-.014-.094-.027-.188-.04-.282.041.308.047.353.019.137-.133-1.034-.824-2.053-2-2-.969.043-2.143.889-2,2h0Z"/><path class="n" d="M300.087,151.098c2.088,1.207,4.045,2.627,5.843,4.234.771.689,1.519,1.41,2.202,2.186.253.288.493.574.702.896.083.127.162.256.237.388.295.525-.058-.269.097.211l.919-2.259c-1.669.998-3.254,2.129-4.816,3.287-.935.693-1.844,1.523-2.857,2.102-1.042.595-1.4,2.307-.405,3.141,1.542,1.292,2.972,2.727,4.356,4.185l-.313-2.424c-.636.839-1.073,1.884-1.557,2.812-1.015,1.946-2.006,3.904-2.999,5.861-2.383,4.697-4.748,9.403-7.202,14.063-1.199,2.276,2.253,4.3,3.454,2.019,2.454-4.66,4.819-9.367,7.202-14.063.993-1.957,1.984-3.915,2.999-5.861.484-.928.921-1.974,1.557-2.812.538-.709.247-1.835-.313-2.424-1.384-1.458-2.814-2.893-4.356-4.185l-.405,3.141c1.013-.579,1.922-1.409,2.857-2.102,1.562-1.158,3.146-2.288,4.816-3.287.733-.438,1.191-1.416.919-2.259-.67-2.08-2.419-3.761-3.99-5.197-2.114-1.933-4.449-3.675-6.929-5.109-2.233-1.291-4.249,2.165-2.019,3.454h0Z"/><path class="n" d="M268.531,147.94c-2.353,1.404-4.589,3.025-6.717,4.75-1.73,1.403-3.852,3.07-4.573,5.268-.296.903.218,1.751.919,2.259,2.476,1.793,5.213,3.572,7.538,5.388v-2.828c-1.432,1.399-3.244,2.496-4.527,4.036-.756.908-.721,1.91,0,2.828-.574-.732-.091-.106.037.073.166.231.329.464.492.697.492.701.98,1.405,1.468,2.109,1.48,2.133,2.957,4.268,4.439,6.4,3.007,4.325,5.984,8.684,9.167,12.882.651.859,1.725,1.309,2.736.718.846-.495,1.374-1.87.718-2.736-3.243-4.278-6.276-8.722-9.339-13.129-2.277-3.276-4.424-6.701-6.89-9.841v2.828c1.282-1.54,3.094-2.637,4.527-4.036.704-.688.848-2.166,0-2.828-2.702-2.111-5.572-4.004-8.348-6.014l.919,2.259c.136-.414-.225.344.058-.095-.002.003.305-.462.154-.255.268-.366.605-.696.925-1.017.834-.839,1.743-1.606,2.666-2.345,1.786-1.428,3.685-2.745,5.649-3.916,2.209-1.318.199-4.777-2.019-3.454h0Z"/><path class="k" d="M314.368,111.347c.95-.794,2.644-.556,3.226.531.375.699.37,1.622.387,2.395.02.966-.031,1.939-.205,2.891-.35,1.913-1.008,3.76-2.046,5.409-.434.689-.968,1.375-1.608,1.884-.573.456-.883.595-1.563.414-2.49-.664-3.552,3.193-1.063,3.857,3.162.843,5.64-1.188,7.364-3.648,1.701-2.426,2.633-5.395,2.989-8.312.338-2.768.328-6.271-1.911-8.284-2.431-2.185-5.961-2.002-8.397.035-.829.693-.716,2.112,0,2.828.821.821,1.997.695,2.828,0h0Z"/><path class="k" d="M309.917,124.116c-.06,1.387-.485,2.732-.943,4.034-.085.242-.181.481-.26.725-.107.333.222-.41.039-.098-.156.266-.272.563-.417.837-.9,1.696-1.995,3.331-3.158,4.837-2.831,3.667-6.596,7.478-11.292,8.507-2.513.551-1.45,4.408,1.063,3.857,5.557-1.218,10.008-5.587,13.371-9.941,2.876-3.723,5.386-7.922,5.596-12.758.112-2.574-3.889-2.568-4,0h0Z"/><path class="k" d="M256.046,108.518c-2.435-2.036-5.968-2.218-8.397-.035-2.3,2.067-2.246,5.686-1.881,8.512.38,2.935,1.373,5.913,3.13,8.322,1.782,2.444,4.437,4.515,7.614,3.815,1.055-.233,1.672-1.458,1.397-2.46-.299-1.088-1.402-1.63-2.46-1.397-1.344.296-2.781-1.476-3.433-2.457-1.103-1.66-1.8-3.55-2.176-5.501-.181-.938-.247-1.891-.238-2.845.008-.831-.017-1.843.39-2.594.587-1.084,2.273-1.328,3.226-.531.828.692,2.017.812,2.828,0,.712-.712.832-2.132,0-2.828h0Z"/><path class="k" d="M253.69,123.562c1.151,5.598,3.831,10.849,7.607,15.129,3.998,4.533,9.348,8.282,15.44,9.149,1.068.152,2.148-.262,2.46-1.397.258-.938-.321-2.307-1.397-2.46-10.486-1.493-18.22-11.602-20.253-21.485-.518-2.52-4.375-1.453-3.857,1.063h0Z"/><path class="k" d="M318.073,109.212c1.457-8.956.56-18.445-4.436-26.227-4.669-7.273-12.247-12.596-20.63-14.672-8.467-2.097-17.81-1.203-25.581,2.814-5.802,2.999-10.857,7.844-14.05,13.543-2.162,3.858-3.435,8.095-3.946,12.477-.468,4.015-.079,8.091.564,12.067.173,1.067,1.5,1.661,2.46,1.397,1.135-.312,1.57-1.39,1.397-2.46-1.042-6.436-.906-13.112,1.81-19.147,2.352-5.226,6.263-9.685,11.048-12.823,13.04-8.551,31.508-5.742,41.508,6.143,6.006,7.138,7.461,16.829,5.998,25.825-.173,1.065.277,2.152,1.397,2.46.955.262,2.286-.325,2.46-1.397h0Z"/><path class="k" d="M305.872,155.776c3.404,1.005,6.737,2.225,9.894,3.854,1.454.75,2.958,1.546,4.264,2.535,1.538,1.166,2.991,2.472,4.432,3.755,1.917,1.707,4.756-1.112,2.828-2.828-1.487-1.324-3.006-2.61-4.558-3.856-1.51-1.212-3.229-2.173-4.947-3.06-3.458-1.784-7.122-3.157-10.85-4.257-2.474-.73-3.531,3.129-1.063,3.857h0Z"/><path class="j" d="M310.208,153.828c3.384,1.459,7.153,3.598,8.573,4.449.143,1.037.125,5.875.178,7.185.27,6.699,1.034,14.926,3.21,23.108l-8.257.505,1.679,13.421c1.492,3.299,4.551,6.561,7.804,8.996.035,1.002.054,1.578.054,1.578.056,1.611.056,5.444-.094,7.352-.335-.143-.672-.284-1.01-.419-3.044-1.213-5.425-4.851-7.166-7.512-1.934-2.956-3.599-6.186-4.588-9.587-.999-4.375-1.763-6.755-2-10.444-.304-4.726-.556-7.444-.822-11.573-.912-10.87-1.069-16.649-.475-28.15.884.263,1.882.645,2.915,1.091Z"/><path class="k" d="M324.097,188.038c-2.187-8.327-3.083-16.927-3.184-25.521-.016-1.324.008-2.664-.106-3.984-.155-1.797-1.602-2.345-3-3.124-3.179-1.773-6.492-3.528-9.983-4.601-1.3-.399-2.468.675-2.532,1.929-.253,4.948-.427,9.902-.316,14.856.108,4.79.537,9.553.86,14.331.669,9.902,1.025,20.048,6.001,28.923,1.293,2.306,2.773,4.553,4.418,6.622,1.695,2.133,3.588,3.62,6.089,4.68,1.429.605,2.89-.095,3.009-1.727.215-2.935.219-5.9.223-8.842.003-2.574-3.997-2.578-4,0-.004,2.942-.008,5.907-.223,8.842l3.009-1.727c-2.042-.865-3.493-1.885-4.921-3.611-1.396-1.688-2.598-3.6-3.708-5.485-2.522-4.282-3.796-8.914-4.717-13.767-.822-4.334-.836-8.91-1.14-13.309-.323-4.674-.743-9.337-.878-14.022-.151-5.258.025-10.514.293-15.764l-2.532,1.929c3.872,1.19,7.545,3.271,11.01,5.339l-.991-1.727c.205,1.729.123,3.514.143,5.252.025,2.199.136,4.393.297,6.586.468,6.398,1.389,12.778,3.019,18.987.653,2.488,4.513,1.433,3.857-1.063h0Z"/><path class="k" d="M243.364,192.905c-.141.195-.284.387-.431.578l.313-.405c-.856,1.107-1.813,2.13-2.86,3.058-.37.328-.586.933-.586,1.414,0,.491.218,1.076.586,1.414.381.35.882.61,1.414.586.548-.025,1.001-.22,1.414-.586,1.358-1.203,2.542-2.571,3.603-4.041.287-.397.326-1.088.202-1.541-.128-.464-.486-.967-.919-1.195-.464-.245-1.026-.368-1.541-.202l-.478.202c-.301.178-.54.417-.718.718h0Z"/><path class="k" d="M320.709,190.17c1.162,1.609,2.462,3.105,3.948,4.422.399.353.869.586,1.414.586.491,0,1.076-.218,1.414-.586.35-.381.61-.882.586-1.414-.023-.512-.189-1.063-.586-1.414-1.157-1.025-2.214-2.156-3.16-3.379l.313.405c-.162-.21-.32-.423-.476-.638-.313-.434-.662-.772-1.195-.919-.479-.132-1.116-.072-1.541.202-.427.275-.803.685-.919,1.195-.113.496-.109,1.111.202,1.541h0Z"/><path class="k" d="M298.245,88.043c-1.743.954-3.53,1.834-5.373,2.577-1.458.588-3.43,1.645-5.059,1.495-.604-.055-.467-.008-.658-.558-.266-.767-.465-1.513-.983-2.159-1.292-1.613-3.364-1.661-5.237-1.278-6.364,1.301-12.482,4.875-16.832,9.672-2.363,2.606-4.286,5.572-5.823,8.73-1.121,2.306,2.327,4.336,3.454,2.019,2.544-5.232,6.168-9.838,11.177-12.901,2.75-1.681,5.907-3.058,9.087-3.664.271-.052.631-.149.912-.099.262.047.137-.006.171.031.175.189.227.765.306.997.135.392.285.801.499,1.158.888,1.482,2.612,2.119,4.279,2.046,2.078-.092,4.08-.941,5.98-1.717,2.093-.855,4.136-1.81,6.119-2.896,2.259-1.237.242-4.692-2.019-3.454h0Z"/><path class="k" d="M300.595,96.466c.6.744,1.32,1.764,1.909,2.719.597.969,1.136,1.973,1.609,3.008.349.763.748,1.828,1.056,2.852.327,1.087.575,2.194.754,3.315.165,1.036,1.511,1.704,2.46,1.397,1.125-.364,1.574-1.35,1.397-2.46-.808-5.064-3.156-9.694-6.356-13.66-.66-.818-2.151-.738-2.828,0-.797.868-.704,1.956,0,2.828h0Z"/><path class="n" d="M268.057,150.199c1.303,5.316,3.321,10.493,5.198,15.625,2.447,6.692,4.997,13.347,7.564,19.994,1.09,2.823,2.187,5.644,3.275,8.469.388,1.007,1.345,1.703,2.46,1.397.963-.265,1.787-1.447,1.397-2.46-4.66-12.106-9.481-24.165-13.675-36.444-.861-2.52-1.727-5.056-2.362-7.644-.613-2.499-4.471-1.441-3.857,1.063h0Z"/><path class="p" d="M282.125,239.676c-.597,2.339-1.342,4.648-2.317,6.86-.748,1.698-1.624,4.282-3.249,5.357-.71.47-1.611.595-2.43.761-.141.028-.675.09-.104.022-.203.024-.406.047-.609.068-1.097.111-2.2.172-3.301.225-5.641.27-11.298.278-16.944.256-1.11-.004-2.219-.011-3.329-.027-.343-.005-.686-.004-1.029-.018-.098-.004-.225-.025-.322-.009-.203.034-.213-.156-.106-.025l.514.883c-.249-.864.013-1.85.114-2.726.148-1.279.179-2.577.261-3.862.172-2.692.36-5.383.555-8.073.393-5.426.844-10.848,1.156-16.279.148-2.572-3.853-2.563-4,0-.462,8.042-1.179,16.067-1.695,24.106-.112,1.75-.241,3.487-.418,5.23-.183,1.801.074,3.76,2.003,4.462,1.079.393,2.354.304,3.492.317,3.97.045,7.941.034,11.911-.021,3.855-.053,7.768-.042,11.603-.489,1.051-.123,2.109-.283,3.114-.628,1.908-.655,3.267-1.943,4.311-3.64,2.179-3.542,3.653-7.674,4.676-11.685.636-2.495-3.22-3.56-3.857-1.063h0Z"/><path class="n" d="M299.168,148.839c-1.005,5.66-2.904,11.213-4.642,16.678-2.146,6.747-4.418,13.455-6.775,20.131-.889,2.519-1.785,5.037-2.732,7.535-.383,1.01.425,2.193,1.397,2.46,1.124.309,2.076-.383,2.46-1.397,4.507-11.89,8.605-24.025,12.123-36.243.769-2.67,1.539-5.362,2.026-8.1.189-1.062-.287-2.155-1.397-2.46-.967-.266-2.27.328-2.46,1.397h0Z"/><path class="k" d="M279.885,163.126c.212,1.06.437,2.118.652,3.177.065.319.032-.47-.036-.162-.019.088-.013.192-.019.282-.027.377-.059.754-.091,1.131-.282,3.332-.632,6.66-1.036,9.979-.131,1.074,1.013,2,2,2,1.19,0,1.869-.923,2-2,.41-3.366.765-6.739,1.048-10.118.061-.725.117-1.35.007-2.072-.167-1.103-.449-2.187-.668-3.28-.212-1.06-1.472-1.669-2.46-1.397-1.104.303-1.61,1.398-1.397,2.46h0Z"/><path class="k" d="M292.839,178.779c-.509-3.414-.972-6.739-1.395-10.021-.108-.84-.168-1.696-.305-2.531-.022-.136.054-.461-.035.035.054-.301.121-.599.195-.896.142-.569.317-1.13.461-1.699.632-2.496-3.225-3.561-3.857-1.063-.29,1.148-.794,2.367-.768,3.567.018.858.2,1.739.31,2.589.477,3.699.987,7.395,1.538,11.084.16,1.069,1.509,1.658,2.46,1.397,1.145-.315,1.557-1.388,1.397-2.46h0Z"/><path class="k" d="M286.899,157.776c-.836,0-1.672.003-2.508.006-.514.002-1.05.222-1.414.586-.195.181-.333.396-.414.644-.125.238-.183.495-.172.771.023.517.193,1.054.586,1.414.39.358.873.588,1.414.586.836-.003,1.672-.006,2.508-.006.513,0,1.051-.223,1.414-.586.195-.181.333-.396.414-.644.125-.238.183-.495.172-.771-.023-.517-.193-1.054-.586-1.414s-.872-.586-1.414-.586h0Z"/><path class="k" d="M297.495,149.287c-1.227.863-2.561,1.591-3.855,2.345-1.765,1.027-3.541,2.038-5.332,3.02-.613.336-1.227.674-1.853.987-.389.195-.764.368-1.082.686-.926.926-.889,2.505,0,3.442s1.927,1.754,2.881,2.616c1.5,1.357,3.002,2.712,4.502,4.069.801.724,2.038.791,2.828,0,.736-.736.804-2.101,0-2.828-1.422-1.286-2.845-2.571-4.268-3.857-.711-.643-1.422-1.286-2.132-1.93-.234-.213-.469-.425-.702-.639-.065-.059-.132-.117-.194-.178-.172-.17.072-.028.126.096l.273,1.009.005-.237-.273,1.009.095-.149-.718.718c.705-.528,1.639-.873,2.413-1.296,1.165-.638,2.323-1.29,3.477-1.948,1.954-1.115,3.985-2.184,5.827-3.48.882-.621,1.295-1.748.718-2.736-.51-.873-1.848-1.342-2.736-.718h0Z"/><path class="k" d="M278.55,166.949c1.479-1.095,2.769-2.438,4.056-3.747,1.076-1.094,2.179-2.183,3.186-3.342,1.175-1.352.967-3.243-.689-4.093-.491-.252-.983-.499-1.47-.759-1.682-.898-3.349-1.823-5.01-2.756-1.451-.815-2.946-1.598-4.332-2.521-.899-.599-2.214-.176-2.736.718-.574.981-.184,2.136.718,2.736,1.776,1.184,3.704,2.175,5.568,3.212,1.112.619,2.226,1.233,3.347,1.836.732.394,1.613.718,2.282,1.21l-.718-.718.092.152-.273-1.009c.012-.997.741-1.18.393-.837-.067.066-.128.14-.191.21-.208.226-.418.45-.629.674-.653.694-1.313,1.381-1.979,2.063-.725.743-1.456,1.48-2.204,2.2-.32.308-.644.614-.974.911-.137.123-.275.245-.415.364-.061.052-.125.101-.185.154-.246.217.402-.302.145-.112-.867.641-1.305,1.733-.718,2.736.5.855,1.863,1.364,2.736.718h0Z"/><path class="j" d="M261.524,154.276c1.386-.636,2.754-1.192,3.922-1.539.588,11.389-.264,24.056-.449,27.833s-.915,11.088-1.481,16c-.667,5.778-3.38,12.71-4,14.074-1.266,2.786-3.008,5.388-4.874,7.804-1.793,2.321-4.327,6.092-7.597,6.099.052-2.014.126-5.014.163-6.014l.027-.739c2.637-2.403,5.134-5.701,6.947-9.816,0,0,3.877-13.718,3.877-19.051-2.444-.222-7.489-.356-7.489-.356,2.176-8.182,2.939-16.409,3.21-23.108.053-1.31.036-6.148.178-7.185,1.28-.767,4.471-2.582,7.566-4.001Z"/><path class="k" d="M252.499,189.101c1.63-6.209,2.551-12.59,3.019-18.987.16-2.193.271-4.387.297-6.586.02-1.738-.061-3.523.143-5.252l-.991,1.727c3.466-2.068,7.139-4.149,11.01-5.339l-2.532-1.929c.49,9.819.123,19.714-.55,29.519-.342,4.974-.722,10.021-1.468,14.952-.413,2.732-1.166,5.419-2.026,8.041-.313.953-.645,1.9-.998,2.838-.139.37-.283.738-.429,1.105-.057.144-.115.287-.176.43.185-.437.037-.09-.01.013-1.39,2.994-3.249,5.669-5.243,8.286-1.304,1.712-3.098,4.529-5.502,4.626l2,2c-.131-1.927-.271-3.854-.393-5.782-.162-2.556-4.163-2.575-4,0,.122,1.928.262,3.855.393,5.782.071,1.045.859,2.046,2,2,2.776-.112,4.973-1.779,6.74-3.804,1.861-2.133,3.598-4.484,5.127-6.863,2.632-4.094,4.274-8.757,5.491-13.448,1.41-5.437,1.736-11.179,2.222-16.759.355-4.079.558-8.171.737-12.261.303-6.885.428-13.789.084-20.675-.063-1.254-1.233-2.328-2.532-1.929-3.491,1.073-6.804,2.827-9.983,4.601-1.397.779-2.845,1.327-3,3.124-.114,1.32-.09,2.66-.106,3.984-.101,8.594-.998,17.195-3.184,25.521-.654,2.492,3.203,3.555,3.857,1.063h0Z"/><path class="k" d="M253.622,111.66c.672.458,1.67.58,2.452.631.674.044,1.402-.074,2.032-.318.836-.324,1.571-.759,2.213-1.396.584-.58,1.068-1.287,1.414-2.034.231-.5.353-.991.202-1.541-.128-.464-.486-.967-.919-1.195-.464-.245-1.026-.368-1.541-.202-.468.152-.98.454-1.195.919-.192.414-.419.805-.695,1.169l.313-.405c-.233.296-.492.563-.788.797l.405-.313c-.275.21-.568.384-.887.52l.478-.202c-.287.116-.582.197-.889.243l.532-.071c-.342.046-.673.038-1.014-.006l.532.071c-.316-.045-.634-.106-.93-.228l.478.202c-.06-.028-.117-.057-.172-.095-.411-.28-1.075-.33-1.541-.202s-.967.486-1.195.919c-.245.464-.368,1.026-.202,1.541s.47.889.919,1.195h0Z"/><path class="k" d="M305.885,108.099c.047,1.617.797,3.121,2.246,3.912,1.867,1.019,4.033.594,5.832-.352.928-.488,1.285-1.857.718-2.736-.609-.944-1.744-1.239-2.736-.718-.169.089-.341.172-.516.248l.478-.202c-.44.185-.893.323-1.365.394l.532-.071c-.346.045-.69.053-1.036.007l.532.071c-.221-.035-.434-.091-.643-.174l.478.202c-.221-.096-.429-.214-.621-.36l.405.313c-.147-.116-.278-.247-.395-.394l.313.405c-.115-.152-.208-.314-.284-.488l.202.478c-.087-.214-.144-.433-.179-.662l.071.532c-.017-.135-.027-.269-.031-.405-.015-.522-.213-1.041-.586-1.414-.347-.347-.916-.608-1.414-.586-1.058.047-2.032.88-2,2h0Z"/><path class="k" d="M296.84,93.369c.131.042.26.089.387.142l-.478-.202c.625.27,1.193.65,1.732,1.063l-.405-.313c.918.712,1.757,1.528,2.518,2.406.321.371.938.586,1.414.586.491,0,1.076-.218,1.414-.586.35-.381.61-.882.586-1.414-.025-.552-.223-.996-.586-1.414-.673-.776-1.408-1.504-2.203-2.155-1.008-.825-2.061-1.573-3.317-1.97-.998-.316-2.227.371-2.46,1.397-.248,1.091.329,2.122,1.397,2.46h0Z"/><path class="p" d="M283.457,240.739c.684,2.683,1.6,5.283,2.72,7.815.922,2.084,1.937,4.487,3.679,6.031,2.273,2.014,5.54,2.159,8.43,2.327,6.076.351,12.182.336,18.265.31,1.954-.008,5.215.46,6.898-.732l-2.424-.313c1.118.926,2.755,1.092,3.607-.321.516-.856.416-1.957.322-2.906-.298-2.989-.308-6.004-.407-9.007-.258-7.827-.518-15.655-.6-23.486-.027-2.572-4.027-2.579-4,0,.068,6.499.26,12.995.469,19.49.101,3.139.207,6.279.309,9.418.033,1.009.047,2.011.164,3.013.045.386.092.772.117,1.16.011.169-.022.388.022.552.089.325.008-.174.402-.593l.883-.514-.076.028h1.063l.553.338c-.64-.53-1.663-.851-2.424-.313-.341.242-.929.148-1.353.155-.927.015-1.853.022-2.78.027-2.743.016-5.487.011-8.23-.015-2.903-.028-5.806-.075-8.707-.191-1.161-.047-2.322-.102-3.48-.194-.444-.035-.887-.08-1.331-.127-.37-.039.401.092-.128-.019-.309-.065-.62-.117-.927-.189-1.111-.262-1.92-.659-2.598-1.599-.727-1.008-1.261-2.192-1.79-3.311-1.197-2.532-2.101-5.186-2.792-7.898-.636-2.493-4.495-1.436-3.857,1.063h0Z"/><path class="k" d="M245.896,167.864c5.407-5.581,12.485-9.275,19.65-12.088,1.005-.394,1.705-1.34,1.397-2.46-.263-.958-1.449-1.794-2.46-1.397-7.814,3.067-15.512,7.023-21.415,13.117-1.792,1.85,1.033,4.681,2.828,2.828h0Z"/><path class="k" d="M278.698,132.817c1.527,1.495,3.891,1.974,5.951,1.973s4.424-.477,5.952-1.973c.749-.733.79-2.103,0-2.828-.805-.739-2.029-.782-2.828,0-.077.075-.371.31-.041.055.342-.264-.04.018-.137.078-.118.072-.239.139-.362.201-.081.041-.174.073-.252.118.101-.058.465-.177.15-.069-.396.136-.793.253-1.206.33-.151.028-.489.171-.019.014-.111.037-.256.028-.37.038-.295.025-.59.036-.886.036-.27,0-.541-.009-.811-.03-.127-.01-.321-.059-.447-.044.192-.023.352.053.048-.002-.415-.074-.826-.179-1.223-.323-.161-.059-.419-.229.101.051-.068-.037-.142-.064-.211-.098-.137-.067-.272-.14-.402-.221-.099-.061-.191-.136-.291-.197.577.35.276.223.113.063-.748-.733-2.092-.802-2.828,0-.726.791-.799,2.046,0,2.828h0Z"/><path class="k" d="M283.666,120.273c.244.931.479,1.877.619,2.831l-.071-.532c.017.131.024.259.011.391l.071-.532c-.009.061-.023.118-.043.176l.202-.478c-.018.041-.037.076-.062.113l.313-.405c-.029.035-.057.063-.092.091l.405-.313c-.072.046-.147.083-.224.119l.478-.202c-.123.052-.246.089-.378.11l.532-.071c-.119.014-.236.013-.355,0l.532.071c-.134-.019-.265-.051-.399-.069-.266-.083-.532-.095-.798-.036-.266.012-.514.091-.744.237-.415.243-.811.718-.919,1.195-.117.512-.091,1.087.202,1.541.26.403.695.852,1.195.919.353.048.696.136,1.055.152.577.025,1.105-.156,1.617-.394.645-.299,1.153-.91,1.324-1.603.147-.593.087-1.071-.014-1.665-.154-.912-.365-1.816-.599-2.71-.127-.483-.49-.944-.919-1.195s-1.061-.357-1.541-.202c-.484.157-.951.457-1.195.919-.253.48-.342,1.007-.202,1.541h0Z"/><path class="k" d="M269.396,112.687c-.462,1.502-.161,4.957,2.684,5.251,3.761-.022,3.961-4.199,2.695-6.163-1.036-1.608-4.084-2.277-5.379.913Z"/><path class="k" d="M299.386,112.687c.462,1.502.161,4.957-2.684,5.251-3.761-.023-3.961-4.2-2.695-6.163,1.036-1.608,4.084-2.277,5.379.913Z"/><path class="k" d="M324.463,165.92c2.319,2.084,4.66,4.253,6.568,6.731,1.757,2.281,3.288,4.801,4.771,7.266,2.921,4.856,5.335,9.992,6.517,15.561.518,2.438.854,4.917.627,7.408-.181,1.987-.525,4.399-1.369,6.099-1.957,3.941-7.482,5.538-11.451,4.035-5.003-1.894-9.385-6.688-11.598-11.452-.455-.98-1.867-1.226-2.736-.718-1.005.588-1.174,1.753-.718,2.736,2.403,5.171,6.997,9.947,12.119,12.483,5.038,2.494,11.265,1.741,15.489-2.053,1.941-1.744,2.981-4.037,3.55-6.538.59-2.595.963-5.329.711-7.989-.616-6.504-2.759-12.636-5.845-18.368-1.732-3.218-3.714-6.299-5.776-9.313-2.245-3.281-5.084-6.071-8.031-8.719-1.91-1.716-4.748,1.104-2.828,2.828h0Z"/><path class="k" d="M252.74,204.792c-2.255,5.042-5.531,9.923-9.902,13.376-1.338,1.057-2.875,2.07-4.533,2.341-2.35.383-4.891-.319-6.854-1.608-5.113-3.358-3.792-10.673-2.851-15.789,1.092-5.942,3.158-11.63,5.798-17.051,3.144-6.457,6.822-12.721,11.499-18.196,1.663-1.947-1.153-4.79-2.828-2.828-4.677,5.475-8.44,11.618-11.651,18.047-3.068,6.142-5.557,12.602-6.749,19.384-1.122,6.382-2.158,14.395,3.535,18.979,4.294,3.457,10.332,4.208,15.081,1.274,5.799-3.583,10.17-9.784,12.91-15.908.441-.985.285-2.15-.718-2.736-.854-.5-2.293-.273-2.736.718h0Z"/><g id="e"><path class="l" d="M315.144,201.228c1.958,2.398,4.549,3.063,7.626,2.724,2.177-.24,3.216-1.399,4.552-3.134,1.002-1.303,1.623-2.54,1.91-4.158.37-2.089-.325-4.388-1.046-6.383-1.539-4.255-2.281-7.184-5.187-10.653-2.644-3.157-6.79-4.161-10.922-4.224-.568.014-1.735.035-1.735.035-2.011.036-3.607.556-4.469,2.084-.862,1.528-.544,3.246.623,4.556-1.896-.022-3.195.861-3.427,2.547-.232,1.686.477,3.567,1.98,4.027-1.087.362-1.792,1.934-1.663,3.025s.949,2.936,2.247,3.17c-1.334.381-1.457,2.511-.622,3.865.835,1.354,2.58,1.712,4.164,1.863s4.428.107,5.542.579"/><path class="k" d="M313.73,202.642c2.894,3.393,8.837,4.76,12.639,2.029,1.866-1.34,3.412-3.505,4.255-5.623,1.051-2.638.754-5.423-.089-8.074-1.458-4.591-3.073-9.429-6.375-13.055-3.321-3.647-8.45-4.588-13.165-4.497-2.208.043-4.498.322-6.079,2.04-2.206,2.396-1.782,5.658.165,8.026l1.414-3.414c-2.528.047-4.883,1.362-5.355,4.015-.487,2.737.727,5.477,3.377,6.487l-.478-3.655c-4.174,1.817-3.027,8.733,1.062,9.851v-3.857c-3.67,1.421-3.178,6.536-.186,8.455,1.426.915,3.175,1.135,4.83,1.246,1.444.097,3.061-.044,4.44.463,2.419.89,3.463-2.974,1.063-3.857-1.897-.698-4.092-.447-6.074-.65-.725-.074-1.82-.176-2.339-.756-.199-.223-.321-.526-.347-.825-.009-.104.016-.22-.004-.323-.077-.385.165-.084-.32.104,1.745-.676,2.045-3.298,0-3.857-1.007-.275-1.019-2.142-.106-2.54,1.751-.762.93-3.118-.478-3.655-.548-.209-.642-1.425-.527-1.874.18-.704.769-.759,1.442-.772,1.849-.034,2.486-2.11,1.414-3.414-.819-.996-.625-2.388.589-2.928,1.036-.461,2.468-.333,3.578-.333,3.334.001,6.931.798,9.256,3.348,2.387,2.617,3.478,5.985,4.636,9.253.654,1.845,1.493,3.815,1.357,5.814-.116,1.702-1.032,3.179-2.106,4.452-1.219,1.445-2.423,1.835-4.309,1.76-1.806-.072-3.194-.855-4.353-2.213-1.673-1.961-4.491.879-2.828,2.828h0Z"/><path class="k" d="M306.496,184.075c1.261-.069,2.529-.058,3.791.005.672.033,1.401.03,2.06.175-.089-.019-.527-.079-.192-.024.078.013.156.024.234.037.148.025.295.052.441.083.256.054.508.119.756.203.992.335,2.23-.385,2.46-1.397.252-1.107-.335-2.102-1.397-2.46-1.344-.453-2.845-.536-4.252-.611-1.297-.068-2.602-.081-3.9-.01-1.043.057-2.05.879-2,2,.046,1.035.881,2.061,2,2h0Z"/><path class="k" d="M305.599,190.792c1.366-.164,2.746-.217,4.121-.179.678.019,1.349.076,2.023.144.249.025-.538-.082-.133-.018.074.012.148.022.221.034.142.023.284.049.425.078.29.059.577.131.86.219.999.311,2.226-.367,2.46-1.397.247-1.086-.327-2.128-1.397-2.46-1.385-.431-2.891-.548-4.334-.595-1.416-.047-2.84.006-4.248.175-.549.066-1.008.18-1.414.586-.347.347-.608.916-.586,1.414.044.977.887,2.133,2,2h0Z"/><path class="k" d="M306.374,196.546c1.593.007,3.193-.021,4.776.183l-.532-.071c.495.067.987.158,1.465.305,1,.306,2.225-.364,2.46-1.397.246-1.082-.326-2.132-1.397-2.46-1.143-.35-2.373-.452-3.561-.511-1.07-.053-2.14-.043-3.211-.048-1.046-.005-2.048.923-2,2,.049,1.088.879,1.995,2,2h0Z"/></g><g id="f"><path class="l" d="M256.439,203.485c-2.101,2.274-4.727,2.78-7.777,2.254-2.158-.372-3.125-1.593-4.352-3.406-.921-1.361-1.465-2.634-1.653-4.267-.242-2.108.592-4.36,1.433-6.308,1.795-4.154,2.715-7.032,5.827-10.317,2.831-2.989,7.031-3.739,11.16-3.55.566.048,1.73.14,1.73.14,2.005.159,3.567.775,4.334,2.353s.345,3.274-.9,4.51c1.894.094,3.136,1.054,3.265,2.751.129,1.697-.694,3.531-2.222,3.899,1.063.427,1.67,2.039,1.475,3.12s-1.126,2.873-2.436,3.028c1.308.462,1.301,2.595.385,3.896-.916,1.3-2.68,1.552-4.27,1.606s-4.427-.164-5.567.24"/><path class="k" d="M255.025,202.071c-1.949,2.017-5.959,2.853-8.035.536-1.067-1.191-1.979-2.701-2.281-4.283-.352-1.84.346-3.718,1.042-5.397,1.282-3.092,2.486-6.39,4.635-9.005,2.401-2.922,5.57-4.019,9.291-4.055,1.371-.013,3.012-.034,4.337.393,1.56.503,1.94,2.008.812,3.221-1.236,1.33-.304,3.277,1.414,3.414.554.044,1.109.177,1.265.751.161.595-.106,1.768-.754,1.97-1.548.485-2.08,2.838-.478,3.655.937.478.448,2.298-.483,2.493-1.607.336-2.033,2.941-.478,3.655.571.262.023.013.021-.1,0,.01.036.251.02.293-.107.269-.088.575-.27.824-.503.688-1.715.716-2.475.75-2.057.091-4.266-.283-6.27.318-2.459.738-1.412,4.6,1.063,3.857,1.291-.388,2.821-.164,4.15-.159,1.693.006,3.539-.09,5.05-.934,2.711-1.514,4.243-6.691.73-8.304l-.478,3.655c4.263-.89,5.396-7.785,1.438-9.804l-.478,3.655c2.603-.815,3.94-3.511,3.653-6.137-.307-2.814-2.59-4.231-5.228-4.442l1.414,3.414c1.852-1.992,2.487-4.779,1.06-7.218-1.213-2.072-3.466-2.811-5.722-3.041-4.336-.442-9.124-.155-12.769,2.502-3.976,2.899-5.833,7.446-7.694,11.811-1.034,2.425-2.147,5-1.872,7.703.266,2.616,1.462,4.83,3.081,6.859,3.465,4.343,10.474,3.743,14.116-.027,1.789-1.852-1.036-4.684-2.828-2.828h0Z"/><path class="k" d="M266.24,182.895c-1.291-.15-2.594-.217-3.893-.228-1.412-.012-2.907.012-4.278.383-1.01.273-1.728,1.436-1.397,2.46.335,1.035,1.378,1.69,2.46,1.397.119-.032.239-.061.36-.086.089-.018.335-.016.406-.07-.044.033-.577.067-.224.031.077-.008.153-.017.23-.025.161-.016.322-.029.484-.04.688-.047,1.378-.056,2.067-.049,1.263.014,2.529.081,3.784.227.475.055,1.092-.263,1.414-.586.347-.347.608-.916.586-1.414-.023-.517-.193-1.054-.586-1.414-.416-.382-.857-.521-1.414-.586h0Z"/><path class="k" d="M267.257,189.727c-1.548-.282-3.125-.455-4.697-.503-1.47-.045-2.989.009-4.422.361-1.017.249-1.723,1.453-1.397,2.46.342,1.055,1.371,1.664,2.46,1.397.257-.063.525-.088.781-.153-.051.013-.492.06-.211.029.093-.01.185-.021.278-.03.153-.015.307-.027.461-.037.683-.045,1.368-.048,2.051-.027s1.371.067,2.053.136c.166.017.332.035.497.054.102.012.203.025.304.038.266.032-.434-.063-.174-.023.318.05.636.097.954.155,1.026.187,2.206-.28,2.46-1.397.223-.979-.296-2.26-1.397-2.46h0Z"/><path class="k" d="M265.601,195.351c-2.247-.127-4.576-.354-6.79.178-1.018.245-1.722,1.456-1.397,2.46.343,1.059,1.37,1.659,2.46,1.397.252-.06.505-.106.761-.142l-.532.071c1.82-.239,3.673-.068,5.497.036,1.046.059,2.046-.962,2-2-.051-1.134-.879-1.937-2-2h0Z"/></g></g><g id="g"><path class="r" d="M110.359,153.076c-1.45.01-12.404-.558-19.225,1.257-1.761.469-3.705,1.202-4.903,3.029-.829,1.265-1.378,3.132-1.297,6.243.136,5.25.401,42.835,1.882,58.02.265,2.716.605,5.626,2.277,7.678,2.299,2.822,6.207,3.004,9.654,2.974,18.192-.157,37.305-.29,55.497-.447,5.05-.044,9.143-4.456,9.152-9.955.024-14.695-1.462-50.452-1.864-59.401-.056-1.242-.253-4.421-2.308-6.973-.62-.77-2.255-1.982-4.55-2.611-6.671-1.834-18.75-1.096-20.057-.972"/><path class="k" d="M87.846,227.081c-.638-1.69-.852-3.617-1.031-5.455-.032-.33-.064-.67-.095-1.02,1.472-1.239,2.975-2.795,4.39-4.562-.009.232-.015.424-.015.424,0,2,.074,4.222.259,6.074.29-.092.567-.192.833-.298-.156,3.012-.418,5.96-.765,8.89-.878-.429-1.67-1.021-2.33-1.831-.54-.663-.942-1.416-1.246-2.223Z"/><path class="k" d="M110.359,151.076c-3.771.004-7.521-.137-11.291.111-4.76.313-11.272.625-14.345,4.855-2.059,2.833-1.799,6.496-1.747,9.82.046,2.913.084,5.826.129,8.739.137,8.889.308,17.779.604,26.665.144,4.331.315,8.661.563,12.987.233,4.048.235,8.45,1.326,12.367.761,2.732,2.417,5.116,5.029,6.347,2.532,1.193,5.365,1.326,8.12,1.31,6.98-.039,13.96-.116,20.94-.171,7.044-.055,14.088-.109,21.132-.166,3.524-.028,7.047-.057,10.571-.087,2.845-.024,5.515.011,8.066-1.429,2.151-1.214,3.863-3.181,4.849-5.436.967-2.212,1.101-4.463,1.089-6.84-.02-3.935-.105-7.869-.203-11.802-.237-9.485-.574-18.968-.939-28.449-.149-3.861-.304-7.722-.466-11.583-.123-2.925-.023-6.006-.618-8.881-.516-2.494-1.736-4.937-3.801-6.481s-4.599-2.217-7.121-2.603c-4.716-.722-9.523-.782-14.282-.614-1.115.039-2.234.08-3.346.181-1.076.098-2,.849-2,2,0,1.006.918,2.099,2,2,3.15-.287,6.351-.298,9.509-.226,2.246.051,4.509.159,6.736.469,2.151.299,4.559.71,6.298,2.11,2.526,2.034,2.36,5.868,2.487,8.805.138,3.184.269,6.369.397,9.553.35,8.735.672,17.472.937,26.21.129,4.271.246,8.542.327,12.813.034,1.779.062,3.557.077,5.336.016,1.839.16,3.717-.387,5.497-.596,1.936-1.916,3.599-3.701,4.564-2.314,1.253-5.287.799-7.818.82-6.607.055-13.214.107-19.821.159s-13.267.103-19.9.157c-3.354.027-6.707.055-10.061.084-2.325.02-4.858.167-7.051-.756-4.122-1.735-3.842-7.542-4.118-11.311-.28-3.816-.462-7.64-.618-11.463-.35-8.602-.545-17.211-.7-25.818-.101-5.64-.156-11.281-.267-16.92-.034-1.736-.083-3.658.775-5.23,1.049-1.922,3.396-2.433,5.374-2.842,4.504-.931,9.208-.974,13.79-.919,1.158.014,2.318.068,3.476.067,2.574-.002,2.578-4.002,0-4h0Z"/><path class="m" d="M76.649,315.991c3.098-24.459,8.552-48.526,12.927-72.772,1.271-7.044,2.242-13.828,2.613-20.974,0,0,.168-3.238.426-8.21-3.651,5.211-8.273,9.135-11.462,9.598-4.385.637-9.234-1.598-10.993-5.666-.905-2.093-.968-4.451-.811-6.726.72-10.433,4.281-18.902,9.376-28.035,1.619-2.902,3.82-6.285,6.185-9.303,4.579-5.314,10.673-9.342,17.443-12.341,5.559,2.84,14.05,5.702,22.061,5.722.135,0,.272,0,.408-.002,7.275-.082,16.602-2.833,21.715-5.583,2.383,1.07,4.683,2.271,6.86,3.612,3.174,1.955,6.086,4.208,8.621,6.795,0,0,1.427,1.501,3.393,3.505.386.476,1.292,1.462,1.601,1.915,5.625,8.222,10.035,15.922,10.754,25.706.157,2.134-.54,6.654-1.444,8.617-1.755,3.815-6.596,5.911-10.974,5.313-2.372-.324-5.444-2.188-8.174-4.741.161,4.808.263,7.878.263,7.878.256,7.697,1.162,15.381,2.718,22.92,5.829,28.225,10.273,46.077,13.212,75.076l.045.44c-.154.169-.308.339-.308.339-1.414,1.556-11.836,3.005-20.987,3.455-9.296.45-19.62.471-25.846.471-5.424,0-18.169-.317-27.647-1.024-9.736-.71-19.554-1.386-22.34-3.027l.079-.654c.092-.768.187-1.537.285-2.304Z"/><path class="l" d="M116.232,322.824c-5.604-.162-12.148-.44-17.607-.847-.757-.055-1.514-.11-2.269-.165l.151,2.672c.873,10.85,3.206,38.081,3.124,52.343-.006,1.101-.022,2.229-.409,3.259-.341.906-.861,1.652-1.475,2.344,2.443,2.509,6.214,3.194,9.631,2.494,3.414-.699,6.465-2.54,9.436-4.366-.144-2.326.048-4.709.248-7.037.421-4.905.843-9.809,1.264-14.714.646-7.522,2.123-25.892,2.769-33.414,0,0,.084-.981.218-2.448-1.549-.029-3.266-.069-5.081-.122Z"/><path class="l" d="M153.425,324.338c.051-.372.152-1.109.26-1.895-.525.032-1.048.061-1.567.086-8.236.399-17.279.461-23.563.469.132,1.21.242,2.278.242,2.278.578,7.528,1.888,25.91,2.466,33.437.377,4.908.754,9.816,1.131,14.725.174,2.261.34,4.575.198,6.836.095.038.198.09.304.155,3.038,1.868,6.151,3.779,9.644,4.494,3.263.668,6.849.074,9.295-2.168-.698-.765-1.292-1.579-1.662-2.591-.379-1.034-.384-2.162-.38-3.263.048-14.262,2.588-43.013,3.598-52.312,0,0,.013-.092.034-.251Z"/><path class="l" d="M151.745,119.488c.859-.775,2.132-1.15,3.322-.972s2.274.896,2.818,1.874c.385.686.509,1.467.58,2.23.261,3.004-.332,6.066-1.693,8.804-.663,1.334-1.528,2.611-2.73,3.583-.968.772-2.718.715-3.931.931-.232.773-.47,1.412-.595,1.776-.943,2.439-6.214,11.08-12.848,14.262.09.923.22,1.976.451,3.221.34,1.98,1.2,3.9,3.05,4.76.89.411,3.176,1.219,5.61,2.064-5.317,2.689-14.456,5.283-21.51,5.264-7.572-.019-15.572-2.576-21.126-5.251,2.222-.95,4.784-2.057,4.895-2.097,1.77-.67,2.62-2.61,2.99-4.74.221-1.275.381-2.116.481-3.091-2.945-1.487-5.669-3.735-8.08-6.486-2.729-3.113-4.315-6.562-5.27-9.641-1.916.779-3.406-.156-4.429-.971-1.202-.972-2.066-2.249-2.73-3.583-1.362-2.738-1.954-5.799-1.693-8.804.071-.762.195-1.544.58-2.23.545-.978,1.628-1.696,2.818-1.874s2.463.197,3.322.972c0,0,2.548-17.761,28.104-17.761s27.612,17.761,27.612,17.761Z"/><path class="s" d="M93.589,102.356h-.01c-2.25,1.52-7.46,2.22-9.52,2.06-2.65-.2-4.81-1.22-6.62-2.36,4.4-2.1,7.9-6.93,9.05-11.7.98-4.04,1.56-8.09,4.15-11.49,2.33-3.05,5.74-5.07,9.46-5.91,3.11-.72,7.29-.33,10.19,1.03,1.76.84,4.09,1.92,5.49,4.35.09.17.84,1.32,1.25,2.24,0,0,2.882,7.67-5.118,13.003-4.312,2.875-7.464,3.3-11,5.111-4.556,2.333-7.322,3.666-7.322,3.666Z"/><path class="s" d="M101.652,116.996c6.776-3.396,14.389-9.761,20.764-13.958-.8,2.037-2.457,6.426-1.359,6.244,4.17-.172,9.679-3.315,13.542-7.825,1.269,4.042,4.851,8.424,9.229,11.547.289.21.609.382.884.612,1.81,1.518,2.699,2.268,4.31,3.518.586.454,2.287,1.905,3.04,1.973.835.075,1.681-.58,2.638-.612.77-2.963.971-5.7.819-9.194-.526-12.061-6.778-19.556-12.902-23.697-5.111-3.455-10.996-5.753-18.602-5.753-7.356,0-14.236,2.369-19.246,5.958-4.8,3.439-11.73,11.43-12.256,23.491-.133,3.058.035,6.359.628,9.176.968-.04,1.95.269,2.682.85.825-.288,1.649-.575,2.474-.863,1.258-.439,2.534-.887,3.621-1.655"/><path class="k" d="M102.549,164.443c1.36-.576,2.718-1.159,4.075-1.742.574-.246,1.147-.493,1.721-.739.172-.074.345-.146.516-.22-.899.389-.075.036.08-.03,3.664-1.546,4.198-6.133,4.568-9.595.112-1.044-1-2.045-2-2-1.179.053-1.88.882-2,2-.012.111-.068.797-.02.217-.017.201-.059.403-.091.601-.062.387-.13.772-.198,1.158-.134.765-.27,1.526-.523,2.263-.033.097-.068.192-.105.288-.083.208-.074.188.027-.062-.02.161-.187.382-.267.522-.072.124-.151.242-.228.363-.128.177-.108.154.06-.069-.059.071-.12.14-.183.207-.063.067-.128.131-.195.193-.164.141-.134.124.09-.052-.054.091-.258.176-.343.225-.129.074-.477.227-.036.04-.027.011-.054.022-.081.033-2.307.954-4.588,1.971-6.887,2.945-.967.41-1.251,1.909-.718,2.736.649,1.006,1.701,1.156,2.736.718h0Z"/><path class="k" d="M134.669,151.986c.356,3.563.875,8.031,4.572,9.734,1.38.636,2.839,1.118,4.271,1.623,1.842.649,3.688,1.29,5.536,1.922.991.339,2.23-.388,2.46-1.397.253-1.111-.336-2.097-1.397-2.46-2.991-1.023-5.984-2.048-8.937-3.177-.35-.134.404.199.086.035-.138-.072-.281-.133-.417-.21-.039-.023-.447-.287-.256-.15.159.115-.229-.208-.277-.256-.045-.045-.384-.433-.257-.27.147.19-.13-.199-.155-.239-.097-.154-.186-.313-.268-.474-.045-.088-.219-.517-.097-.195-.281-.743-.438-1.513-.572-2.294-.164-.952-.194-1.209-.292-2.192-.104-1.038-.846-2.052-2-2-.994.045-2.111.885-2,2h0Z"/><path class="k" d="M118.756,79.566c-.741-1.571-1.703-3.209-2.955-4.423-1.26-1.221-2.797-2.085-4.374-2.824-3.756-1.759-8.211-2.206-12.242-1.201-4.073,1.016-7.751,3.376-10.272,6.738-2.768,3.693-3.295,8.19-4.492,12.504-1.165,4.199-4.06,8.022-7.991,9.968-1.398.692-1.2,2.711,0,3.454,2.857,1.769,6.064,2.849,9.452,2.609,2.904-.206,6.21-.711,8.707-2.309l-1.009.273h.01c2.574,0,2.578-4,0-4-.717,0-1.215.444-1.83.728-.5.231-1.034.393-1.563.543-1.263.359-2.566.609-3.873.728-2.899.265-5.409-.5-7.875-2.027v3.454c3.382-1.675,6.119-4.573,7.951-7.844,1.973-3.523,2.364-7.444,3.551-11.237s3.552-6.756,7.1-8.562c3.272-1.666,7.083-1.955,10.609-.987,1.619.445,3.29,1.228,4.639,2.237,1.381,1.033,2.279,2.661,3.003,4.195,1.097,2.327,4.547.299,3.454-2.019h0Z"/><path class="k" d="M126.796,325.277c1.105,14.416,2.113,28.838,3.22,43.254.418,5.439,1.528,11.418-.505,16.652-.391,1.007.431,2.195,1.397,2.46,1.131.311,2.068-.386,2.46-1.397,1.831-4.714,1.252-9.853.874-14.771-.366-4.77-.738-9.539-1.098-14.309-.538-7.126-1.047-14.253-1.568-21.38-.256-3.503-.512-7.007-.78-10.509-.196-2.55-4.197-2.571-4,0h0Z"/><path class="k" d="M151.39,324.589c-1.72,15.889-3.058,31.916-3.521,47.893-.064,2.222-.253,4.545.051,6.752.444,3.23,2.82,5.193,4.957,7.401,1.794,1.853,4.62-.977,2.828-2.828-1.626-1.68-3.73-3.143-3.894-5.661-.122-1.871.004-3.79.059-5.663.118-4.071.331-8.139.577-12.203.521-8.59,1.201-17.172,1.975-25.743.3-3.317.61-6.634.968-9.946.116-1.076-1.003-2-2-2-1.178,0-1.883.921-2,2h0Z"/><path class="k" d="M131.879,359.275c6.213.251,12.461.143,18.674-.047,2.568-.078,2.579-4.079,0-4-6.213.189-12.461.297-18.674.047-2.574-.104-2.569,3.896,0,4h0Z"/><path class="k" d="M153.159,120.902c.937-.784,2.532-.445,3.02.524.382.758.346,1.772.346,2.595,0,1.025-.1,2.028-.321,3.028-.411,1.86-1.134,3.778-2.321,5.292-.447.569-.962,1.117-1.531,1.266-.824.216-1.71.248-2.601.373-1.071.151-1.657,1.515-1.397,2.46.316,1.151,1.386,1.548,2.46,1.397,1.004-.142,2.515-.225,3.651-.764,1.268-.602,2.248-1.819,3.037-2.944,1.656-2.361,2.553-5.249,2.897-8.088.324-2.671.295-6.065-1.869-8.002-2.379-2.129-5.815-1.96-8.199.034-.829.693-.716,2.112,0,2.828.821.821,1.997.695,2.828,0h0Z"/><path class="k" d="M148.745,132.504c-.058,1.362-.465,2.682-.907,3.963-.082.238-.179.473-.251.714-.099.333.217-.42.045-.103-.146.267-.261.553-.402.824-.887,1.707-1.962,3.331-3.121,4.864-2.666,3.526-6.307,7.262-10.77,8.26-2.511.562-1.448,4.419,1.063,3.857,5.462-1.222,9.75-5.601,13.012-9.903,2.764-3.645,5.13-7.787,5.33-12.476.109-2.574-3.891-2.569-4,0h0Z"/><path class="k" d="M97.444,118.074c-2.379-1.989-5.826-2.168-8.199-.034-2.306,2.074-2.189,5.715-1.798,8.534.707,5.096,4.368,12.825,10.7,11.516,1.058-.219,1.67-1.467,1.397-2.46-.302-1.099-1.399-1.616-2.46-1.397-1.372.284-2.632-1.12-3.357-2.122-1.141-1.577-1.837-3.473-2.221-5.368-.192-.949-.265-1.91-.257-2.878.007-.769-.021-1.735.346-2.439.5-.959,2.075-1.314,3.02-.524.828.692,2.017.812,2.828,0,.712-.712.832-2.132,0-2.828h0Z"/><path class="k" d="M95.3,132.739c1.058,5.451,3.341,10.571,7.089,14.71,3.776,4.17,8.747,7.621,14.413,8.444,1.068.155,2.149-.264,2.46-1.397.258-.94-.321-2.304-1.397-2.46-5.065-.735-9.272-3.686-12.648-7.415-3.293-3.638-5.134-8.176-6.06-12.945-.206-1.061-1.476-1.667-2.46-1.397-1.109.305-1.603,1.396-1.397,2.46h0Z"/><path class="k" d="M156.754,118.532c1.88-8.098.679-17.272-3.514-24.481-3.413-5.868-8.842-10.446-15.017-13.2-8.02-3.577-17.303-3.929-25.633-1.167-6.609,2.191-12.123,6.199-16.131,11.88-5.497,7.793-7.028,17.671-5.345,26.955.458,2.529,4.314,1.458,3.857-1.063-1.345-7.417-.25-15.332,3.623-21.841,3.029-5.09,7.27-8.84,12.65-11.167,12.72-5.503,29.021-2.043,37.196,9.529,4.692,6.642,6.292,15.584,4.456,23.492-.581,2.505,3.274,3.574,3.857,1.063h0Z"/><path class="s" d="M146.369,407.397c1.034.979,2.112,1.898,3.338,2.605,4.086,2.355,8.944,3.409,13.631,2.797,2.05-.267,4.102-.85,5.793-2.039s2.987-3.047,3.161-5.107c.247-2.929-1.53-5.703-3.614-7.777-5.345-5.32-11.012-10.543-15.733-16.366-2.367,3.258-6.607,4.191-10.406,3.414-3.494-.715-6.607-2.626-9.644-4.494-2.907-1.787-3.344,6.603-3.413,8.422-.109,2.88-.581,6.685,1.704,8.815,1.642,1.53,5.161,3.318,7.307,3.975,3.507,1.072,5.316,3.331,7.876,5.755Z"/><path class="k" d="M144.955,408.811c3.251,3.044,7.248,5.048,11.654,5.788,4.224.709,9.045.535,12.837-1.668,3.83-2.225,5.858-6.643,4.324-10.917-1.499-4.176-5.237-7.092-8.308-10.104-3.86-3.786-7.681-7.619-11.103-11.813-.903-1.107-2.445-.511-3.141.405-2.923,3.845-8.508,2.89-12.263,1.078-1.209-.583-2.374-1.254-3.525-1.945-.907-.545-1.802-1.258-2.876-1.406-1.593-.219-2.865.811-3.548,2.176-1.27,2.538-1.402,5.66-1.525,8.447-.099,2.242-.302,4.559.294,6.755.622,2.291,2.145,3.801,4.084,5.06,2.217,1.438,4.604,2.206,7.006,3.225,2.445,1.037,4.211,3.127,6.089,4.92,1.862,1.778,4.695-1.047,2.828-2.828-1.661-1.586-3.233-3.28-5.148-4.571-1.836-1.237-3.985-1.692-5.956-2.64-1.556-.748-3.821-1.711-4.692-3.308-.925-1.695-.631-3.94-.543-5.789.119-2.484.045-5.074,1.059-7.362-.115.259.2-.27.223-.366-.03.123-.13.134-.195.14-.159.014-.484.03-.63.065-.2.047-.181-.308-.016.005.233.44,1.453.89,1.911,1.162,2.244,1.333,4.605,2.57,7.132,3.272,5.072,1.409,10.481.222,13.744-4.07l-3.141.405c2.537,3.11,5.293,6.026,8.125,8.866,2.785,2.793,5.848,5.411,8.439,8.385,2.108,2.418,3.226,5.776.666,8.296-2.482,2.443-6.647,2.701-9.918,2.415-4.136-.362-8.039-2.077-11.06-4.905-1.878-1.758-4.712,1.064-2.828,2.828Z"/><path class="k" d="M119.094,325.393c-1.257,14.65-2.416,29.308-3.674,43.959-.48,5.586-1.485,11.587.556,16.984.382,1.01,1.35,1.702,2.46,1.397.968-.266,1.781-1.445,1.397-2.46-1.773-4.689-.936-9.833-.518-14.695.392-4.56.789-9.12,1.173-13.681.595-7.055,1.165-14.113,1.745-21.17.283-3.445.566-6.89.861-10.334.22-2.564-3.781-2.55-4,0h0Z"/><path class="k" d="M94.508,324.484c1.257,15.612,2.667,31.246,3.062,46.909.049,1.947.095,3.899.059,5.847-.025,1.368-.247,2.49-1.125,3.58-.843,1.047-1.919,1.915-2.86,2.87-1.809,1.835,1.018,4.665,2.828,2.828,1.784-1.81,3.798-3.428,4.679-5.901.71-1.993.496-4.307.471-6.395-.048-4.056-.217-8.111-.424-12.163-.451-8.846-1.101-17.681-1.798-26.51-.291-3.689-.596-7.377-.893-11.066-.205-2.548-4.207-2.57-4,0h0Z"/><path class="k" d="M117.722,355.363c-6.215.194-12.461.03-18.673-.216-2.574-.102-2.57,3.898,0,4,6.211.246,12.458.41,18.673.216,2.568-.08,2.579-4.081,0-4h0Z"/><path class="s" d="M103.659,407.397c-1.034.979-2.112,1.898-3.338,2.605-4.086,2.355-8.944,3.409-13.631,2.797-2.05-.267-4.102-.85-5.793-2.039s-2.987-3.047-3.161-5.107c-.247-2.929,1.53-5.703,3.614-7.777,5.345-5.32,11.012-10.543,15.733-16.366,2.367,3.258,6.607,4.191,10.406,3.414,3.494-.715,6.607-2.626,9.644-4.494,2.907-1.787,3.344,6.603,3.413,8.422.109,2.88.581,6.685-1.704,8.815-1.642,1.53-5.161,3.318-7.307,3.975-3.507,1.072-5.316,3.331-7.876,5.755Z"/><path class="k" d="M102.134,405.983c-2.72,2.547-6.011,4.074-9.678,4.724-3.324.589-7.401.438-10.318-1.444-1.212-.782-2.253-2.039-2.49-3.495-.266-1.629.478-3.222,1.364-4.538,1.028-1.528,2.476-2.77,3.783-4.053,1.438-1.411,2.882-2.817,4.313-4.236,3.234-3.206,6.398-6.485,9.279-10.016l-3.141-.405c2.872,3.779,7.356,5.158,11.97,4.455,2.522-.384,4.927-1.449,7.155-2.657,1.116-.605,2.197-1.268,3.282-1.927.681-.414.548-.247-.017-.229-.058.002-.542-.169-.306-.092-.033-.011-.08-.052-.079-.051.056.198.27.529.441,1.121.201.695.337,1.411.445,2.126.143.944.24,2.253.29,3.359.083,1.822.347,3.791-.06,5.588-.443,1.951-1.953,2.843-3.605,3.768-2.148,1.203-4.57,1.736-6.695,2.946-2.277,1.296-4.057,3.266-5.932,5.057-1.866,1.781.966,4.607,2.828,2.828,1.673-1.597,3.233-3.399,5.285-4.524.916-.502,1.916-.752,2.882-1.133,1.193-.471,2.361-1.009,3.485-1.627,1.904-1.049,3.928-2.332,4.923-4.34,1.02-2.059,1.072-4.406.977-6.656-.123-2.935-.146-6.075-1.097-8.882-.482-1.423-1.284-2.944-2.852-3.366-2.075-.558-4.156,1.439-5.821,2.365-4.065,2.262-10.588,4.4-14.044-.147-.696-.915-2.238-1.511-3.141-.405-2.979,3.652-6.261,7.033-9.61,10.344-1.707,1.688-3.43,3.359-5.138,5.046-1.51,1.491-3.005,3.038-3.978,4.949-2.048,4.019-1.365,8.622,2.228,11.509,3.338,2.682,8.074,3.331,12.229,2.925,5.153-.503,9.89-2.514,13.674-6.058,1.883-1.763-.95-4.588-2.828-2.828Z"/><path class="k" d="M102.661,118.723c7.458-3.784,13.82-9.363,20.764-13.958l-2.938-2.259c-.702,1.793-1.478,3.645-1.729,5.566-.12.922-.039,1.879.662,2.57.912.9,2.233.63,3.365.444,5.133-.844,9.888-4.38,13.228-8.216,1.684-1.933-1.134-4.774-2.828-2.828-1.802,2.069-3.869,3.855-6.251,5.226-1.009.581-2.05,1.086-3.157,1.45-.522.171-1.052.317-1.591.426-.179.036-.357.072-.538.095-.286.036-.929-.135-.248.089l.883.514c.215.218.344.468.386.75.026.179.036.16.033-.058-.124.141.033-.161.08-.352.125-.51.271-1.012.432-1.512.338-1.047.729-2.077,1.13-3.101.636-1.623-1.551-3.176-2.938-2.259-6.944,4.595-13.306,10.174-20.764,13.958-2.296,1.165-.274,4.617,2.019,3.454h0Z"/><path class="k" d="M132.671,101.989c2.029,6.307,7.431,11.483,13.12,14.606.947.52,2.181.232,2.736-.718.536-.916.232-2.215-.718-2.736-2.771-1.521-5.046-3.298-7.191-5.635-1.004-1.094-1.659-1.922-2.458-3.196-.375-.598-.721-1.214-1.029-1.85-.071-.146-.138-.293-.205-.44-.15-.326.019.061-.058-.136-.123-.317-.237-.635-.342-.958-.331-1.028-1.387-1.692-2.46-1.397-1.01.278-1.729,1.428-1.397,2.46h0Z"/><path class="k" d="M155.438,220.3c.253,7.235,1.051,14.453,2.414,21.564,1.256,6.549,2.717,13.063,4.094,19.588,2.487,11.79,4.899,23.598,6.727,35.512,1.11,7.232,2.002,14.493,2.74,21.771l.586-1.414c-.126.138-.248.281-.381.412.243-.238.236-.121-.014-.023-.115.045-.428.211-.133.084-.221.096-.453.17-.682.245-1.155.379-2.354.631-3.547.86-3.272.626-6.593.995-9.91,1.279-7.455.639-14.965.727-22.443.792-12.176.106-24.359-.121-36.506-1.01-4.379-.32-8.764-.613-13.128-1.101-1.672-.187-3.342-.405-4.991-.741-.624-.127-1.247-.27-1.857-.454-.64-.193-.621-.166-1.111-.44l.991,1.727c3.044-25.293,8.712-50.149,13.219-75.198,1.28-7.116,2.296-14.282,2.684-21.506.138-2.572-3.862-2.565-4,0-.685,12.726-3.381,25.25-5.803,37.732-2.451,12.634-4.974,25.257-7.079,37.954-1.158,6.984-2.175,13.989-3.021,21.018-.08.666.435,1.416.991,1.727,2.021,1.132,4.485,1.451,6.741,1.772,3.432.488,6.886.79,10.341,1.061,6.867.541,13.736.968,20.621,1.21,12.142.426,24.319.406,36.459-.073,6.658-.263,13.435-.704,19.964-2.114,1.774-.383,3.896-.801,5.213-2.151,1.224-1.254.669-2.934.502-4.505-.215-2.021-.444-4.042-.686-6.06-1.62-13.469-3.959-26.818-6.683-40.105-3.354-16.363-7.723-32.644-8.31-49.413-.09-2.567-4.09-2.579-4,0h0Z"/><path class="l" d="M108.838,176.736c-.657-.362-1.268-.798-1.842-1.286.124-3.533.201-7.64.117-11.761,5.09,1.987,11.328,3.581,17.3,3.596.135,0,.272,0,.408-.002,5.736-.065,12.747-1.788,17.963-3.862-.181,4.513-.191,8.098-.036,11.908-.846.741-1.774,1.37-2.813,1.812-2.746,1.169-5.962.859-8.705-.315-2.423-1.037-4.525-2.691-6.427-4.526-1.903,1.835-4.005,3.489-6.429,4.526-2.744,1.174-5.96,1.485-8.705.315-.285-.121-.562-.257-.831-.405Z"/><path class="k" d="M144.727,160.386c-5.822,2.856-12.66,4.653-19.144,4.878-7.14.248-14.438-1.763-20.87-4.766-.978-.457-2.156-.275-2.736.718-.507.866-.266,2.277.718,2.736,7.068,3.3,15.028,5.589,22.889,5.312,7.219-.254,14.686-2.247,21.163-5.424,2.311-1.134.286-4.585-2.019-3.454h0Z"/><path class="k" d="M105.579,176.862c3.142,2.59,6.878,3.534,10.882,2.672,3.787-.815,7.009-3.193,9.756-5.822h-2.828c2.742,2.626,5.969,5.02,9.756,5.822,4.078.864,7.862-.104,11.022-2.802,1.96-1.674-.88-4.492-2.828-2.828-4.969,4.244-11.14.792-15.122-3.02-.793-.759-2.033-.762-2.828,0-3.911,3.744-10.027,7.234-14.982,3.15-1.972-1.625-4.817,1.189-2.828,2.828h0Z"/><path class="r" d="M143.184,159.513c3.432,1.08,8.56,3.975,10.207,4.962.129.942.114,5.335.162,6.524.245,6.083.939,13.552,2.914,20.982l-5.822,13.232c1.25,2.762,3.691,5.497,6.376,7.657.002.268.002.412.002.412.005,2.638.074,4.741.153,7.211-2.635.322-5.676-4.716-6.911-6.574-1.823-2.742-3.388-5.753-4.311-8.925-.907-3.972-1.6-6.133-1.816-9.484-.276-4.291-.504-6.759-.746-10.508-.828-9.87-.971-15.117-.432-25.559.074.022.149.045.224.069Z"/><path class="k" d="M166.825,174.197c-2.921-2.98-5.737-5.926-9.124-8.402-4.258-3.113-8.997-5.463-13.893-7.39-1.005-.396-2.196.434-2.46,1.397-.312,1.135.388,2.063,1.397,2.46,4.568,1.798,8.969,4.086,12.937,6.987,3.093,2.261,5.646,5.055,8.314,7.777,1.805,1.841,4.633-.988,2.828-2.828h0Z"/><path class="k" d="M158.395,191.449c-1.986-7.573-2.792-15.384-2.886-23.199-.015-1.214.012-2.446-.105-3.656-.157-1.626-1.531-2.171-2.798-2.878-2.903-1.619-5.928-3.217-9.115-4.199-1.3-.401-2.468.676-2.532,1.929-.249,4.878-.408,9.76-.256,14.644.151,4.841.698,9.656.853,14.495.147,4.59.221,9.206,1.071,13.733.915,4.868,3.097,9.266,5.915,13.323,1.129,1.625,2.405,3.198,3.849,4.553,1.46,1.37,3.395,2.893,5.523,2.745,1.059-.073,2.026-.857,2-2-.058-2.508-.065-5.018-.005-7.526.061-2.575-3.939-2.574-4,0-.06,2.508-.053,5.018.005,7.526l2-2c-.475.033-.678-.072-1.215-.4-.722-.441-1.342-1.023-1.938-1.619-1.059-1.061-2.031-2.221-2.877-3.46-1.254-1.838-2.392-3.775-3.375-5.77-1.048-2.129-1.631-4.289-2.059-6.616-.756-4.108-.762-8.327-.895-12.49-.148-4.593-.659-9.165-.828-13.759-.189-5.129-.031-10.256.231-15.38l-2.532,1.929c3.501,1.079,6.819,2.959,9.953,4.829l-.991-1.727c.179,1.533.111,3.114.129,4.655.024,2.049.124,4.094.274,6.138.427,5.811,1.266,11.605,2.745,17.244.652,2.488,4.512,1.433,3.857-1.063h0Z"/><path class="k" d="M144.052,115.465c1.036.849,2.188,1.56,3.314,2.279,1.165.744,2.335,1.485,3.535,2.172.908.52,2.229.243,2.736-.718.503-.952.252-2.181-.718-2.736-1.14-.653-2.252-1.355-3.36-2.061-1.007-.641-2.039-1.271-2.986-2l.405.313c-.033-.026-.066-.052-.099-.079-.422-.346-.848-.586-1.414-.586-.491,0-1.076.218-1.414.586-.673.733-.864,2.12,0,2.828h0Z"/><path class="k" d="M100.649,115.27c-.64.313-1.283.618-1.938.897l.478-.202c-.933.393-1.899.751-2.905.898l.532-.071-.071.01c-.275-.01-.532.047-.771.172-.248.081-.463.219-.644.414-.347.347-.608.916-.586,1.414.023.517.193,1.054.586,1.414.361.331.904.654,1.414.586.586-.078,1.152-.164,1.719-.328.449-.13.889-.288,1.323-.46.979-.388,1.936-.826,2.881-1.289.431-.211.795-.746.919-1.195.132-.479.072-1.116-.202-1.541-.275-.427-.685-.803-1.195-.919-.547-.125-1.037-.045-1.541.202h0Z"/><path class="r" d="M105.505,159.949c-3.324,1.281-7.513,3.652-8.972,4.526-.129.942-.114,5.335-.162,6.524-.245,6.083-.939,13.552-2.914,20.982l2.043,18.276c-.83,1.884-1.815,3.582-2.894,5.087-.464,2.824-.689,4.859-1.011,7.077,1.239-.396,2.012-.797,2.871-1.397,1.131-.79,2.248-1.757,3.133-2.808,1.584-1.879,2.961-3.952,3.979-6.192.563-1.239,3.027-7.533,3.632-12.779.515-4.46,1.177-11.098,1.345-14.528s.942-14.931.408-25.272c-.457.136-.948.307-1.459.504Z"/><path class="k" d="M95.385,192.512c1.479-5.64,2.318-11.434,2.745-17.244.147-1.997.249-3.995.272-5.997.019-1.587-.053-3.217.131-4.796l-.991,1.727c3.135-1.87,6.453-3.749,9.953-4.829l-2.532-1.929c.426,8.554.047,17.119-.428,25.663-.237,4.267-.698,8.528-1.17,12.775-.468,4.211-1.624,8.294-3.152,12.24-.072.186-.358.891-.306.772.114-.263-.038.084-.055.12-.152.328-.308.655-.473.977-.659,1.289-1.431,2.521-2.295,3.682-1.616,2.172-3.659,4.063-6.26,4.94l2.532,1.929c-.191-2.02-.254-4.046-.259-6.074-.007-2.573-4.007-2.578-4,0,.005,2.028.069,4.055.259,6.074.114,1.209,1.196,2.379,2.532,1.929,9.106-3.072,13.175-13.68,14.879-22.343.926-4.709,1.209-9.628,1.588-14.407.27-3.401.422-6.817.564-10.225.251-6.013.344-12.039.045-18.052-.062-1.253-1.233-2.329-2.532-1.929-3.187.983-6.212,2.58-9.115,4.199-1.271.709-2.642,1.252-2.798,2.878-.117,1.21-.091,2.442-.105,3.656-.094,7.815-.9,15.626-2.886,23.199-.654,2.492,3.204,3.555,3.857,1.063h0Z"/><path class="k" d="M104.77,158.405c-7.981,3.138-15.595,7.549-21.276,14.084-1.682,1.935,1.136,4.776,2.828,2.828,5.219-6.003,12.162-10.166,19.511-13.056,1.005-.395,1.705-1.34,1.397-2.46-.263-.957-1.449-1.794-2.46-1.397h0Z"/><path class="k" d="M118.744,141.488c1.51,1.478,3.846,1.953,5.883,1.952s4.374-.473,5.884-1.952c.749-.733.79-2.103,0-2.828-.805-.739-2.029-.782-2.828,0-.077.075-.368.307-.037.052.343-.264-.035.015-.132.074-.116.071-.235.137-.357.198-.08.04-.171.072-.248.117.097-.056.47-.179.155-.071-.39.134-.782.249-1.188.325-.066.012-.132.024-.198.034-.151.024-.089.017.187-.022-.104.041-.256.028-.365.037-.29.024-.581.036-.873.036-.266,0-.533-.009-.799-.029-.132-.01-.309-.053-.44-.043.194-.015.357.054.055,0-.409-.073-.813-.177-1.204-.319-.161-.058-.42-.227.106.053-.067-.036-.14-.063-.208-.097-.135-.066-.268-.138-.396-.217-.098-.06-.188-.134-.286-.194.579.353.28.226.117.067-.748-.733-2.092-.802-2.828,0-.726.791-.799,2.046,0,2.828h0Z"/><path class="k" d="M123.446,128.932c.234.891.458,1.797.592,2.709l-.071-.532c.016.125.023.248.01.374l.071-.532c-.009.058-.022.113-.041.168l.202-.478c-.017.039-.035.073-.059.108l.313-.405c-.028.034-.054.06-.089.087l.405-.313c-.068.044-.141.08-.215.114l.478-.202c-.118.049-.235.085-.362.106l.532-.071c-.114.014-.225.013-.339,0l.532.071c-.128-.018-.254-.049-.382-.066-.266-.083-.532-.095-.798-.036-.266.012-.514.091-.744.237-.415.243-.811.718-.919,1.195-.117.512-.091,1.087.202,1.541l.313.405c.25.248.544.419.883.514.346.047.681.133,1.033.148.568.025,1.086-.154,1.591-.389.636-.295,1.138-.902,1.307-1.586.145-.586.086-1.052-.013-1.639-.147-.873-.349-1.738-.574-2.594-.127-.483-.49-.944-.919-1.195s-1.061-.357-1.541-.202c-.484.157-.951.457-1.195.919-.253.48-.342,1.007-.202,1.541h0Z"/><path class="k" d="M109.71,121.597c-.452,1.47-.158,4.852,2.628,5.14,3.681-.022,3.877-4.111,2.638-6.034-1.015-1.574-3.998-2.229-5.266.893Z"/><path class="k" d="M139.191,121.597c.453,1.47.158,4.852-2.628,5.14-3.682-.022-3.878-4.111-2.638-6.034,1.015-1.574,3.998-2.229,5.266.894Z"/><path class="k" d="M149.888,205.996c2.142,4.601,6.043,8.707,10.392,11.297,4.22,2.513,9.388,2.627,13.633.012,4.32-2.662,5.463-7.337,5.821-12.101.398-5.289-1.364-10.89-3.449-15.68-2.386-5.482-5.643-10.735-9.459-15.326-1.647-1.982-4.463.862-2.828,2.828,2.853,3.432,5.355,7.489,7.447,11.583,2.159,4.226,3.743,8.814,4.228,13.554.194,1.891.069,3.744-.281,5.612-.339,1.81-.717,3.537-2.018,4.885-2.532,2.623-6.831,3.372-10.073,1.732-4.267-2.159-7.948-6.096-9.959-10.414-.456-.979-1.866-1.227-2.736-.718-1.004.587-1.175,1.754-.718,2.736h0Z"/><path class="k" d="M83.495,172.489c-4.051,5.209-7.397,10.884-10.191,16.858-2.658,5.684-4.67,11.627-5.528,17.858-.437,3.179-.831,6.517-.076,9.68.667,2.791,2.396,5.111,4.758,6.706,4.148,2.801,9.489,2.825,13.588.028,5.227-3.567,9.304-9.14,11.869-14.864.441-.985.285-2.15-.718-2.736-.855-.5-2.292-.273-2.736.718-2.055,4.586-5.015,8.854-8.817,12.166-1.273,1.109-2.788,2.261-4.4,2.673-1.852.473-4.046.051-5.719-.818-2.021-1.049-3.431-2.706-3.967-4.936-.629-2.614-.217-5.57.167-8.194.794-5.432,2.482-10.702,4.766-15.685,2.679-5.845,5.88-11.542,9.833-16.625.662-.852.831-1.998,0-2.828-.69-.69-2.162-.858-2.828,0h0Z"/><g id="h"><path class="l" d="M151.276,204.116c1.818,2.227,4.224,2.845,7.081,2.53,2.021-.223,2.987-1.299,4.227-2.911.931-1.209,1.507-2.358,1.774-3.861.344-1.94-.301-4.075-.971-5.927-1.429-3.951-2.118-6.671-4.816-9.892-2.455-2.931-6.305-3.864-10.142-3.922-.527.013-1.611.032-1.611.032-1.868.034-3.35.517-4.15,1.935-.8,1.419-.505,3.015.579,4.231-1.761-.02-2.967.8-3.182,2.365-.215,1.565.443,3.312,1.839,3.74-1.009.336-1.664,1.796-1.544,2.809s.881,2.726,2.086,2.944c-1.239.354-1.353,2.332-.577,3.589s2.396,1.59,3.866,1.73,4.112.099,5.146.537"/><path class="k" d="M149.861,205.531c2.72,3.175,8.342,4.499,11.911,1.908,1.812-1.315,3.327-3.424,4.098-5.514.88-2.387.611-4.901-.138-7.284-1.355-4.317-2.888-8.89-5.998-12.286-3.065-3.347-7.809-4.289-12.162-4.203-2.156.042-4.453.28-5.964,2.017-2.017,2.319-1.617,5.323.223,7.578l1.414-3.414c-2.414.05-4.651,1.3-5.11,3.833-.477,2.63.707,5.221,3.235,6.2l-.478-3.655c-3.983,1.771-2.89,8.311,1.02,9.408v-3.857c-3.481,1.372-3.124,6.184-.262,8.07,1.37.903,3.043,1.115,4.646,1.221,1.328.088,2.784-.04,4.051.423,2.422.884,3.466-2.98,1.063-3.857-1.731-.632-3.733-.432-5.542-.597-.662-.061-1.687-.129-2.173-.639-.227-.239-.22-.462-.326-.75-.196-.529.537-.38-.393-.014,1.744-.687,2.045-3.283,0-3.857-.858-.241-.77-1.784-.065-2.097,1.747-.777.933-3.11-.478-3.655-.419-.162-.491-1.235-.386-1.582.171-.561.637-.582,1.197-.594,1.852-.038,2.482-2.106,1.414-3.414-.762-.933-.461-2.12.651-2.536.982-.367,2.277-.257,3.309-.244,3.073.041,6.308.799,8.411,3.188s3.096,5.402,4.141,8.352c.603,1.702,1.386,3.513,1.275,5.354-.091,1.525-.89,2.853-1.844,4.002-1.084,1.305-2.056,1.718-3.759,1.687-1.731-.032-3.041-.72-4.154-2.019-1.677-1.958-4.495.882-2.828,2.828h0Z"/><path class="k" d="M143.245,188.331c1.833-.1,3.704-.062,5.524.178l-.532-.071c.524.072,1.049.162,1.552.332.992.335,2.23-.385,2.46-1.397.252-1.107-.335-2.102-1.397-2.46-1.26-.425-2.667-.503-3.986-.572-1.204-.063-2.416-.075-3.621-.01-1.043.057-2.05.879-2,2,.046,1.035.881,2.061,2,2h0Z"/><path class="k" d="M142.412,194.569c1.268-.152,2.55-.202,3.827-.166.629.018,1.253.07,1.879.133.24.024-.549-.083-.161-.022.068.011.137.021.205.032.132.022.264.046.395.072.27.055.536.121.799.203.999.311,2.226-.367,2.46-1.397.247-1.086-.327-2.128-1.397-2.46-1.298-.404-2.71-.513-4.063-.558-1.315-.043-2.638.006-3.944.162-.549.066-1.008.18-1.414.586-.347.347-.608.916-.586,1.414.023.517.193,1.054.586,1.414.364.334.9.647,1.414.586h0Z"/><path class="k" d="M143.131,199.912c1.479.007,2.965-.02,4.435.17l-.532-.071c.46.063.916.147,1.36.283,1,.306,2.225-.364,2.46-1.397.246-1.082-.326-2.132-1.397-2.46s-2.229-.424-3.345-.48c-.993-.05-1.988-.04-2.982-.045-1.046-.005-2.048.923-2,2,.049,1.088.879,1.995,2,2h0Z"/></g><g id="i"><path class="l" d="M97.92,206.197c-1.954,2.115-4.397,2.586-7.234,2.097-2.007-.346-2.907-1.481-4.048-3.168-.857-1.266-1.363-2.45-1.538-3.969-.225-1.96.55-4.056,1.333-5.867,1.67-3.864,2.526-6.541,5.42-9.597,2.634-2.781,6.54-3.478,10.381-3.302.527.045,1.609.131,1.609.131,1.865.148,3.318.721,4.031,2.188s.321,3.045-.837,4.195c1.762.087,2.917.981,3.037,2.559.12,1.578-.646,3.284-2.067,3.627.988.398,1.554,1.897,1.372,2.903s-1.048,2.672-2.266,2.816c1.217.43,1.21,2.414.358,3.624-.852,1.21-2.493,1.443-3.971,1.494s-4.118-.152-5.178.223"/><path class="k" d="M96.505,204.783c-1.673,1.728-5.196,2.607-7.092.694-.972-.981-1.819-2.337-2.169-3.675-.466-1.78.115-3.536.784-5.188,1.166-2.88,2.311-5.968,4.275-8.414,2.14-2.666,4.964-3.75,8.339-3.829,1.305-.03,2.789-.037,4.065.297,1.436.376,1.999,1.647.913,2.823-1.232,1.335-.307,3.273,1.414,3.414.445.036.894.123,1.037.559.153.468-.081,1.534-.598,1.698-1.552.494-2.074,2.826-.478,3.655.304.158.479.488.361,1.017-.062.278-.225.505-.362.749-.076.118-.17.221-.282.31.231-.101.187-.105-.132-.013-1.615.348-2.023,2.921-.478,3.655.583.277-.144-.168-.066-.246.013-.013.044.318.034.344-.089.235-.093.505-.269.705-.501.568-1.61.564-2.302.588-1.88.066-3.877-.245-5.71.294-2.464.725-1.415,4.586,1.063,3.857,1.263-.372,2.741-.139,4.043-.143,1.54-.004,3.236-.125,4.602-.913,2.601-1.502,3.933-6.369.625-7.94l-.478,3.655c4.086-.882,5.146-7.412,1.371-9.374l-.478,3.655c2.489-.792,3.773-3.338,3.497-5.862-.294-2.695-2.477-4.046-4.999-4.253l1.414,3.414c1.737-1.881,2.339-4.431,1.074-6.759-1.077-1.982-3.192-2.766-5.314-3.003-4.133-.461-8.746-.183-12.208,2.374-3.786,2.796-5.518,7.173-7.296,11.349-1.008,2.367-1.908,4.794-1.535,7.408.332,2.324,1.497,4.354,2.988,6.137,3.298,3.941,9.823,3.248,13.175-.214,1.791-1.85-1.034-4.682-2.828-2.828h0Z"/><path class="k" d="M107.036,186.905c-1.2-.139-2.413-.202-3.621-.212-1.325-.011-2.73.013-4.016.361-1.01.273-1.728,1.436-1.397,2.46.335,1.035,1.378,1.69,2.46,1.397.261-.071.526-.118.793-.157l-.532.071c2.068-.277,4.245-.161,6.313.079.475.055,1.092-.263,1.414-.586.347-.347.608-.916.586-1.414-.023-.517-.193-1.054-.586-1.414-.416-.382-.857-.521-1.414-.586h0Z"/><path class="k" d="M108.019,193.264c-1.452-.264-2.931-.428-4.407-.473-1.379-.042-2.805.011-4.151.341-1.017.249-1.723,1.453-1.397,2.46.342,1.055,1.371,1.664,2.46,1.397.203-.05.519-.173.726-.142-.032-.005-.517.063-.233.032.086-.009.172-.019.258-.028.143-.014.286-.025.429-.034.635-.041,1.272-.045,1.908-.025s1.275.063,1.91.127c.154.016.309.032.463.051.094.011.189.024.283.035.259.031-.453-.066-.199-.026.296.046.592.09.887.144.539.098,1.054.084,1.541-.202.415-.243.811-.718.919-1.195.223-.979-.296-2.26-1.397-2.46h0Z"/><path class="k" d="M106.442,198.491c-2.104-.119-4.28-.328-6.354.17-1.018.245-1.722,1.456-1.397,2.46.343,1.059,1.37,1.659,2.46,1.397.234-.056.47-.099.708-.132l-.532.071c1.693-.222,3.417-.063,5.114.033,1.046.059,2.046-.962,2-2-.051-1.134-.879-1.937-2-2h0Z"/></g></g></g></svg>