<svg id="b" xmlns="http://www.w3.org/2000/svg" width="154.784" height="447.637" viewBox="0 0 154.784 447.637"><defs><style>.f{fill:#fcdc4a;}.f,.g,.h,.i{stroke-width:0px;}.g{fill:none;}.h{fill:#fff;}.i{fill:#211715;}</style></defs><g id="c"><g id="d"><path class="h" d="m101.237,49.427c.932-.895,2.187-1.232,3.261-1.194,2.338.082,3.332,1.347,3.76,2.089,1.278,2.216,1.224,6.299.366,8.825-.607,1.789-1.602,4.526-4.001,6.488-.988.809-2.443,1.341-3.834,1.107l-.368-.062c-.441,1.458-.986,2.887-1.319,3.58-.975,2.646-6.361,11.924-13.177,15.542.101,1.307.27,2.602.499,3.904.356,2.04.246,3.858,3.084,4.884.111.041,3.083,1.45,5.486,2.587-7.837,6.741-15.948,7.847-21.419,7.847-5.084,0-14.029-1.05-21.633-7.847l-.401-.318c2.398-1.111,4.81-2.235,4.905-2.269,2.838-1.026,2.716-2.845,3.084-4.884.203-1.182.363-2.271.46-3.413-3.362-1.466-6.352-3.941-9.19-7.339-3.455-4.136-5.423-8.59-6.509-12.28-1.482.381-3.085-.17-4.148-1.04-2.399-1.963-3.393-4.699-4.001-6.488-.858-2.526-.912-6.609.366-8.825.428-.742,1.423-2.007,3.76-2.089,1.074-.038,2.329.298,3.261,1.194,0,0-7.291-31.313,29.709-31.313s28,31.313,28,31.313Z"></path><path class="h" d="m29.562,106.551c-2.033,1.045-3.921,2.054-5.549,2.974l-6.216,6.622c-7.444,14.222-13.987,42.143-15.47,53.944-.665,5.287-.375,10.713,1.506,15.698s6.211,9.338,11.51,9.897c5.69.6,8.899-.012,13.572-3.551-.028,8.994.097,14.871.25,20.839.104,4.065-.575,8.442-.049,10.554,1.447-.009,2.879-.009,2.879-.009,20.96.07,58.443.138,86.04.201.056,3.282.096,6.241.117,8.781,5.993-.199,13.832-.783,19.425-1.423,1.34-.16,3.21-.23,4.09-1.26.53-.62.75-2.11.67-3.48-.82-12.87-4.62-71.441-6.2-88.041-1-10.52-2.57-17.41-6.81-22.72-5.18-6.48-14.86-11.29-26.85-16.12,0,0-4.378-1.575-7.147-2.568-7.94,7.001-16.205,8.139-21.754,8.139-5.22,0-14.51-1.107-22.238-8.408-5.847,2.228-14.695,6.295-21.775,9.932Z"></path><path class="h" d="m64.348,419.788c.12,3.08.62,7.15-1.82,9.43-1.76,1.64-5.52,3.55-7.82,4.25-3.75,1.15-5.69,3.56-8.43,6.16-1.1,1.05-2.26,2.03-3.57,2.79-4.37,2.51-9.57,3.64-14.58,2.99-2.19-.29-4.39-.91-6.2-2.18-1.81-1.28-3.19-3.26-3.38-5.47-.26-3.13,1.64-6.1,3.87-8.32,5.72-5.69,11.78-11.27,16.83-17.5l2.12-3c3.95.78,7.97,1.29,11.99,1.24,3-.05,6.4-.35,9.14-.99l.5,1.54c.86,2.03,1.28,7.11,1.35,9.06Z"></path><path class="h" d="m124.298,429.438c2.23,2.22,4.13,5.19,3.86,8.32-.18,2.21-1.57,4.19-3.38,5.47-1.81,1.27-4,1.89-6.19,2.18-5.02.65-10.22-.48-14.59-2.99-1.31-.76-2.46-1.74-3.57-2.79-2.74-2.6-4.67-5.01-8.42-6.16-2.3-.7-6.07-2.61-7.82-4.25-2.45-2.28-1.94-6.35-1.82-9.43.07-1.95.49-7.03,1.35-9.06l.32-1.48c2.7.6,5.98.88,8.88.93,4.33.06,8.67-.55,12.92-1.43l1.63,3.19c5.05,6.23,11.11,11.81,16.83,17.5Z"></path><path class="h" d="m98.963,261.7c23.375-4.194,46.308-8.309,53.851-9.662-2.536-14.128-5.071-28.256-7.606-42.385-17.95,3.221-35.9,6.441-53.85,9.662,2.535,14.128,5.07,28.257,7.606,42.385Z"></path><path class="h" d="m119.131,233.231c-2.982,1.871-4.659,5.562-5.29,8.15-.434,1.78-.877,6.816-1.032,8.075-.289,2.346-.519,4.679-.841,6.596-.171,1.021-.207,2.032.174,3.036.373.981,1.155,1.826,2.22,2.178s3.422-.587,4.394-1.478l1.117-1.024c.017.066.037.131.057.196.228.741.475,1.501.98,2.09.718.838,1.94,1.206,3.002.904s1.907-1.257,2.078-2.347l.222-1.421c.798.915,1.596,1.83,1.596,1.83.794.911,2.018,1.33,3.226,1.379s10.992-1.168,12.634-4.578l1.091-2.529c.05-.299.099-.598.099-.598.429-2.591-.024-5.237-.476-7.824-.379-2.168-1.775-8.041-2.353-10.64l-1.428-6.753-20.214,1.889-1.258,2.866Z"></path><path class="h" d="m26.686,136.891c-.73.937-1.321,2.087-1.673,3.442-.588,2.264-2.655,6.693-3.991,8.977-1.224,2.147-3.223,5.296-4.089,6.497-.712.987-1.35,2.101-1.597,3.305-.301,1.465.258,2.628.604,4.006.176.701,2.644,2.895,3.201,3.354,1.38,1.139,4.501,2.607,7.189,3.09,3.293.591,6.551-1.548,10.939-8.505,1.191-1.978,4.032-3.017,6.75-3.729.404,1.015.767,1.927.767,1.927.926.079,1.863.077,2.788-.006.685-.061,1.379-.172,1.976-.456,1.852-.881,2.589-3.2,2.348-5.016-.149-1.118-.654-2.543-1.922-2.923-.422-.127-.87-.145-1.315-.127l1.613-1.04c.938-.604,1.615-1.979,1.375-3.751-.165-1.219-1.456-2.124-2.543-2.03,0,0-.405.035-.809.07l.452-.356c.893-.703,1.436-2.051,1.189-3.372-.199-1.066-.903-1.934-1.938-2.284l.637-1.74c.427-1.167-.272-3.022-1.037-3.722-.99-.905-2.343-1.401-3.683-1.35-.745.029-1.735.093-2.471.21-3.449.547-6.681,1.408-10.397,2.377-.354.092-.963.43-1.564.825-1.011.51-1.99,1.288-2.799,2.327Z"></path><path class="h" d="m141.027,230.331c.245-.138.462-.307.639-.514.53-.62.75-2.11.67-3.48-.35-5.486-1.24-19.275-2.27-34.578h-22.773c.42,16.05.782,31.298.858,40.739,5.992-.198,13.832-.781,19.425-1.421,1.07-.128,2.479-.198,3.451-.746Z"></path><path class="f" d="m28.913,134.448c.022.14.041.27.062.409.169-.102.337-.207.508-.293.601-.395,1.21-.732,1.564-.825,3.716-.969,6.948-1.83,10.397-2.377.736-.117,1.726-.181,2.471-.21.389-.015.776.029,1.158.103-.025-.375-.047-.753-.075-1.125-1.033-7.905-3.957-24.232-4.799-27.988-.205-.914-.97-1.675-1.854-2.091-1.305-.614-2.92-.081-4.305.486-3.114,1.276-6.154,2.721-9.1,4.326-.69.376-1.403.785-1.83,1.415-.759,1.119-.33,2.518.022,3.758,1.625,5.72,3.938,14.654,5.78,24.411Z" style="fill: rgb(169, 217, 194);"></path><path class="f" d="m44.019,157.328c-2.718.712-5.558,1.751-6.75,3.729-1.968,3.12-3.707,5.264-5.325,6.635.008,8.514-.701,16.39-2.008,24.798l.5,7.792c3.292-1.361,4.426-2.783,5.167-4.083,4.438-7.797,7.634-22.023,9.031-37.326-.143-.36-.371-.931-.614-1.543Z" style="fill: rgb(169, 217, 194);"></path><path class="f" d="m101.063,49.382l.174.045c.932-.895,2.187-1.232,3.261-1.194.523.018.978.096,1.373.216.608-2.551,1.317-5.53,1.317-5.53,2.145-8.066,1.55-14.532-1.233-21.28-3.666-8.888-12.779-15.964-23.406-15.587-7.189-4.983-16.983-5.103-24.906-1.968-.759.3-1.507.631-2.241.988-5.835,2.843-10.449,7.281-14.229,12.428-1.794,4.956-3.35,9.243-3.35,9.243-2.529,6.969-2.07,15.037,1.208,21.666.363-.098.774-.16,1.237-.177,1.074-.038,2.329.298,3.261,1.194l4.736-1.659c.812-3.749,5.82-5.065,9.133-6.343,1.32-.653,2.696-1.376,4.077-2.172,2.257.22,4.545.444,4.545.444,9.847,1.478,19.528-7.445,22.015-16.018,4.044,4.717,6.767,10.633,7.746,16.854.398,2.524.514,5.084.63,7.639l4.652,1.21Z" style="fill: rgb(169, 217, 194);"></path><path class="f" d="m98.963,261.7c-2.276-12.679-4.551-25.358-6.826-38.037-6.419-.013-12.929-.027-19.307-.041-16.505-.036-32.087-.072-42.678-.11,1.379,57.235,3.965,126.925,6.468,184.378,5.465,1.316,11.1,2.37,16.739,2.283,4.676-.072,10.349-.758,12.958-2.425,1.495-47.2,3.504-100.213,6.818-149.517,3.316,49.303,5.325,102.315,6.82,149.515,2.606,1.669,8.283,2.355,12.961,2.427,5.638.087,11.272-.967,16.735-2.282,2.021-46.389,3.818-99.975,5.166-149.036-5.141.922-10.485,1.881-15.854,2.845Z" style="fill: rgb(169, 217, 194);"></path><path class="h" d="m144.384,245.868c-.379-2.168-1.775-8.041-2.353-10.64l-1.428-6.753-20.214,1.889-1.258,2.866c-2.982,1.871-4.659,5.562-5.29,8.15-.434,1.78-.877,6.816-1.032,8.075-.289,2.346-.519,4.679-.841,6.596-.171,1.021-.207,2.032.174,3.036.372.981,1.155,1.826,2.22,2.178,1.066.352,3.422-.587,4.394-1.478,0,0,.423-.387,1.117-1.024.017.066.037.131.057.196.228.741.475,1.501.98,2.09.718.838,1.94,1.206,3.002.904s1.907-1.257,2.078-2.347c0,0,.111-.71.222-1.421.798.915,1.596,1.83,1.596,1.83.794.911,2.018,1.33,3.226,1.379,1.208.049,10.992-1.168,12.634-4.578,0,0,.546-1.264,1.091-2.529.049-.299.099-.598.099-.598.429-2.591-.024-5.237-.476-7.824Z"></path></g><g id="e"><path class="i" d="m52.74,98.499c1.43-.662,2.858-1.329,4.289-1.987.125-.058.253-.112.377-.172-.67.327-.428.184-.108.056.258-.103.521-.212.772-.333.659-.316,1.292-.771,1.769-1.326.854-.992,1.252-2.168,1.451-3.442.261-1.663.551-3.32.7-4.998.093-1.045-.986-2.045-2-2-1.163.052-1.9.881-2,2-.039.44-.087.879-.141,1.317.045-.361-.017.115-.032.218-.028.19-.057.379-.087.569-.094.591-.196,1.181-.288,1.773-.072.46-.147.923-.287,1.369-.021.068-.19.519-.049.166.135-.337-.025.032-.064.101-.053.094-.181.224-.206.325.044-.18.279-.324.019-.054-.013.013-.267.247-.267.248.24-.179.271-.205.093-.078l-.115.075c-.122.078-.249.149-.378.215-.093.048-.187.092-.282.135.198-.082.228-.097.089-.043-.38.092-.805.342-1.168.509-1.37.632-2.738,1.269-4.107,1.903-.952.441-1.264,1.888-.718,2.736.633.981,1.718,1.189,2.736.718h0Z"></path><path class="i" d="m83.948,86.131c.173,1.832.455,3.657.761,5.471.227,1.353.785,2.677,1.856,3.578.353.297.729.575,1.138.79.225.119.46.216.694.315.21.089,1.109.541.132.045.334.169.681.316,1.019.475,1.481.697,2.96,1.399,4.439,2.101.943.448,2.203.293,2.736-.718.47-.89.291-2.257-.718-2.736-1.4-.665-2.8-1.329-4.201-1.989-.383-.18-.765-.364-1.151-.539-.203-.092-.407-.183-.616-.263-.224-.087-.231-.087-.021,0-.1-.045-.199-.093-.297-.145-.135-.071-.262-.156-.395-.231-.392-.221.267.273-.035-.02-.098-.095-.203-.235-.312-.313-.099-.115-.057-.059.125.169-.046-.063-.089-.129-.13-.195-.061-.099-.11-.202-.165-.303-.189-.345.129.407.028.055-.042-.148-.093-.293-.131-.443-.058-.23-.102-.463-.141-.697-.277-1.647-.478-2.919-.618-4.408-.098-1.039-.85-2.052-2-2-.999.045-2.105.885-2,2h0Z"></path><path class="g" d="m117.106,200.802c.25,3.63.45,6.42.44,9.6-.01,3.87,1.6,11.27-1.51,14.02"></path><path class="i" d="m26.915,195.087c.002,5.375.074,10.749.205,16.123.065,2.665-.023,5.301-.147,7.964-.09,1.931-.392,4.586.819,6.257.633.873,1.739,1.301,2.736.718.862-.504,1.355-1.857.718-2.736-.227-.313-.185-.192-.255-.66-.044-.289-.062-.702-.071-1.04-.033-1.183.043-2.369.104-3.549.132-2.561.14-5.098.079-7.661-.122-5.138-.186-10.276-.188-15.415,0-2.574-4.001-2.578-4,0h0Z"></path><path class="i" d="m71.318,260.981c1.45,21.967,2.613,43.953,3.607,65.945.983,21.74,1.798,43.487,2.524,65.237.088,2.641.175,5.283.261,7.925.041,1.272.082,2.543.123,3.815.039,1.228-.102,2.649.271,3.831.693,2.197,3.002,2.862,5.013,3.346,2.334.563,4.755.837,7.147.988,5.414.342,10.794-.292,16.093-1.386,2.519-.52,5.049-1.125,5.34-4.136.244-2.52.233-5.09.339-7.62.9-21.362,1.701-42.727,2.437-64.095.753-21.879,1.436-43.76,2.055-65.644.074-2.619.147-5.238.22-7.856.071-2.575-3.929-2.573-4,0-.583,21.103-1.224,42.204-1.929,63.304-.696,20.822-1.452,41.642-2.294,62.458-.201,4.973-.407,9.945-.619,14.917-.05,1.167-.1,2.334-.15,3.5-.009.218-.162.918.015.756-.36.331-1.521.358-2.005.46-2.657.561-5.335,1.025-8.042,1.262-4.629.406-9.562.307-14.075-.902-.446-.119-.883-.257-1.319-.406-.048-.016-.582-.285-.417-.144.118.101-.084-.173-.011-.008-.076-.172-.022-1.153-.033-1.509-.021-.671-.043-1.342-.064-2.013-.082-2.554-.165-5.109-.249-7.663-.689-20.9-1.458-41.798-2.375-62.69-.936-21.33-2.022-42.655-3.364-63.963-.162-2.57-.328-5.14-.498-7.709-.169-2.555-4.17-2.574-4,0h0Z"></path><path class="i" d="m70.952,260.979c-1.606,24.352-2.86,48.727-3.921,73.108-1.032,23.714-1.876,47.436-2.634,71.16-.009.295-.03.596-.028.892.005,1.051.047.291-.016.385-.076.113.438-.188-.258.105-.201.085-.42.149-.629.216-1.192.382-2.426.634-3.661.83-2.594.413-5.264.542-7.889.495-3.12-.056-6.215-.444-9.278-1.02-.711-.134-1.421-.277-2.129-.427-.402-.085-1.686-.17-2.007-.463.228.208.028-.478.018-.708-.036-.832-.072-1.664-.108-2.496-.47-10.902-.925-21.806-1.365-32.709-.936-23.211-1.808-46.425-2.602-69.641-.77-22.517-1.47-45.037-2.05-67.559-.068-2.639-.134-5.277-.199-7.916-.063-2.57-4.063-2.579-4,0,.563,23.042,1.26,46.08,2.033,69.115.801,23.861,1.686,47.719,2.64,71.574.459,11.473.933,22.945,1.425,34.416.057,1.324.114,2.647.171,3.97.058,1.34-.052,2.808.637,4.012.742,1.297,2.027,1.754,3.401,2.058,1.57.347,3.148.663,4.735.926,5.922.981,11.892,1.175,17.828.196,2.138-.353,5.306-.781,6.603-2.739.785-1.184.698-2.598.742-3.96.048-1.495.096-2.989.144-4.484.195-6.001.396-12.002.604-18.003.429-12.349.89-24.696,1.398-37.042,1.031-25.07,2.246-50.133,3.809-75.175.19-3.039.385-6.079.585-9.117.17-2.57-3.831-2.56-4,0h0Z"></path><path class="i" d="m50.528,98.593c9.24,8.136,23.003,10.626,34.623,6.567,4.166-1.455,7.9-3.718,11.258-6.567,1.966-1.668-.876-4.485-2.828-2.828-5.775,4.9-12.925,7.353-20.463,7.259-7.215-.09-14.304-2.454-19.76-7.259-1.925-1.695-4.765,1.123-2.828,2.828h0Z"></path><path class="i" d="m31.998,225.521c15.137.051,30.274.082,45.412.112,4.909.01,9.819.019,14.728.028,2.574.005,2.578-3.995,0-4-16.38-.03-32.76-.062-49.141-.107-3.666-.01-7.333-.021-10.999-.033-2.574-.009-2.578,3.991,0,4h0Z"></path><path class="i" d="m61.07,411.261c.911,2.283,1.055,4.937,1.216,7.365.164,2.464.651,5.467-.269,7.823-.431,1.104-1.325,1.768-2.288,2.394-1.288.838-2.67,1.576-4.089,2.168-1.371.573-2.806.931-4.128,1.632-1.433.759-2.713,1.807-3.897,2.907-2.503,2.325-4.667,4.684-7.834,6.129-3.094,1.411-6.536,2.051-9.928,1.881-3.062-.153-6.709-.981-8.495-3.728s-.298-5.899,1.654-8.111c2.783-3.153,6.027-5.95,8.996-8.929,3.016-3.026,5.951-6.133,8.652-9.445.682-.836.818-2.01,0-2.828-.704-.704-2.142-.841-2.828,0-2.701,3.313-5.636,6.419-8.652,9.445-2.969,2.978-6.212,5.776-8.996,8.929-2.5,2.832-4.397,6.63-3.374,10.481,1,3.764,4.354,6.282,7.939,7.365,7.7,2.326,16.798-.002,22.644-5.414,2.578-2.387,4.698-4.861,8.118-6.013,2.982-1.005,6.489-2.578,8.671-4.922,2.671-2.869,2.33-6.982,2.166-10.602-.142-3.119-.254-6.661-1.422-9.589-.4-1.003-1.336-1.706-2.46-1.397-.953.262-1.799,1.451-1.397,2.46h0Z"></path><path class="i" d="m42.836,432.118c-4.184-4.165-9.764-6.277-15.204-8.261-1.015-.37-2.191.415-2.46,1.397-.306,1.114.378,2.089,1.397,2.46,4.811,1.754,9.785,3.594,13.439,7.232,1.827,1.818,4.656-1.009,2.828-2.828h0Z"></path><path class="i" d="m43.331,415.533c-2.386,2.018-4.469,4.35-6.279,6.897-.285.401-.327,1.084-.202,1.541.128.464.486.967.919,1.195.464.245,1.026.368,1.541.202.52-.168.879-.474,1.195-.919.288-.406.584-.805.888-1.199l-.313.405c1.505-1.936,3.206-3.709,5.077-5.293.372-.315.586-.944.586-1.414,0-.491-.218-1.076-.586-1.414-.853-.783-1.973-.723-2.828,0h0Z"></path><path class="i" d="m45.236,419.322c-1.325-.974-2.65-1.948-3.976-2.922-.393-.289-1.092-.325-1.541-.202-.464.128-.967.486-1.195.919-.245.464-.368,1.026-.202,1.541l.202.478c.178.301.417.54.718.718,1.325.974,2.65,1.948,3.976,2.922.393.289,1.092.325,1.541.202.464-.128.967-.486,1.195-.919.245-.464.368-1.026.202-1.541l-.202-.478c-.178-.301-.417-.54-.718-.718h0Z"></path><path class="i" d="m81.786,410.198c-1.064,2.667-1.202,5.854-1.376,8.692-.19,3.101-.544,6.495.748,9.413,1.35,3.048,4.825,4.812,7.73,6.092,1.519.669,3.177,1.06,4.62,1.882,1.451.826,2.646,1.97,3.831,3.131,1.37,1.342,2.728,2.687,4.278,3.825,1.627,1.193,3.486,2.063,5.37,2.769,3.85,1.444,8.059,1.902,12.128,1.332,3.8-.533,7.562-2.136,9.692-5.483s1.544-7.425-.512-10.639c-1.201-1.877-2.797-3.403-4.375-4.955-1.694-1.666-3.398-3.321-5.085-4.993-3.47-3.439-6.867-6.956-9.957-10.745-.683-.838-2.119-.709-2.828,0-.828.828-.685,1.989,0,2.828,4.837,5.932,10.423,11.173,15.858,16.542,2.102,2.077,4.776,4.806,4.22,8.065-.551,3.233-3.981,4.765-6.845,5.324-3.455.674-7.098.269-10.416-.843-3.247-1.088-5.737-2.948-8.156-5.321-2.321-2.278-4.655-4.362-7.781-5.446-2.544-.883-5.335-1.991-7.33-3.865-2.086-1.96-1.348-5.89-1.218-8.43.136-2.659.263-5.612,1.26-8.111.4-1.004-.437-2.197-1.397-2.46-1.139-.313-2.058.39-2.46,1.397h0Z"></path><path class="i" d="m106.705,434.946c3.654-3.638,8.628-5.478,13.439-7.232,1.014-.37,1.7-1.358,1.397-2.46-.269-.978-1.44-1.769-2.46-1.397-5.44,1.983-11.02,4.096-15.204,8.261-1.827,1.819,1.001,4.647,2.828,2.828h0Z"></path><path class="i" d="m100.554,418.361c1.872,1.583,3.573,3.357,5.077,5.293l-.313-.405c.304.394.6.794.888,1.199.308.434.666.773,1.195.919.479.132,1.116.072,1.541-.202.844-.544,1.366-1.824.718-2.736-1.809-2.546-3.893-4.878-6.279-6.897-.413-.349-.857-.586-1.414-.586-.491,0-1.076.218-1.414.586-.683.744-.853,2.107,0,2.828h0Z"></path><path class="i" d="m103.496,422.776c1.325-.974,2.65-1.948,3.976-2.922.233-.126.42-.297.561-.515.177-.193.296-.42.358-.68.132-.479.072-1.116-.202-1.541-.275-.427-.685-.803-1.195-.919-.493-.112-1.115-.111-1.541.202-1.325.974-2.65,1.948-3.976,2.922-.233.126-.42.297-.561.515-.177.193-.296.42-.358.68-.132.479-.072,1.116.202,1.541.275.427.685.803,1.195.919.493.112,1.115.111,1.541-.202h0Z"></path><path class="i" d="m44.943,48.013c-2.075-1.851-4.997-2.284-7.533-1.124-1.817.831-2.93,2.548-3.442,4.428-1.176,4.32-.075,9.372,2.402,13.057,1.693,2.519,4.366,4.789,7.606,4.369,1.071-.139,2-.82,2-2,0-.973-.921-2.14-2-2-2.288.297-3.787-1.595-4.779-3.425-.806-1.486-1.468-3.257-1.621-5.043-.157-1.828-.058-3.812.867-5.271-.316.498.513-.45.238-.246.384-.284.555-.35.972-.443.867-.194,1.78-.081,2.462.527,1.915,1.709,4.754-1.11,2.828-2.828h0Z"></path><path class="i" d="m102.652,50.842c.642-.573,1.509-.711,2.33-.556.49.092.689.166,1.103.472-.274-.203.546.733.238.246.442.698.628,1.249.788,2.127.186,1.02.168,2.109.079,3.144-.153,1.784-.818,3.56-1.621,5.043-.992,1.83-2.49,3.722-4.779,3.425-1.073-.139-2,1.019-2,2,0,1.196.924,1.86,2,2,5.278.685,8.516-5.018,9.835-9.284,1.182-3.823,1.135-9.763-2.605-12.211-2.54-1.663-5.992-1.202-8.197.765-1.925,1.717.912,4.538,2.828,2.828h0Z"></path><path class="i" d="m99.038,64.031c-.311,1.493-.773,2.956-1.314,4.381-.193.508-.358.848-.586,1.415-.204.507.136-.274-.037.088-.063.132-.123.267-.186.399-.896,1.872-2.014,3.648-3.209,5.342-2.795,3.961-6.619,8.284-11.532,9.439-2.505.589-1.444,4.446,1.063,3.857,5.794-1.362,10.253-6.201,13.61-10.839,1.304-1.802,2.518-3.703,3.488-5.709.207-.428.392-.864.576-1.303.217-.519-.146.342.082-.189.149-.347.297-.695.436-1.047.613-1.545,1.126-3.143,1.466-4.771.524-2.512-3.331-3.586-3.857-1.063h0Z"></path><path class="i" d="m41.788,64.991c2.489,10.915,10.702,22.816,22.499,24.595,1.067.161,2.15-.268,2.46-1.397.26-.945-.322-2.298-1.397-2.46-10.504-1.584-17.494-12.108-19.705-21.801-.572-2.509-4.43-1.447-3.857,1.063h0Z"></path><path class="i" d="m66.758,74.255c1.849.976,3.838,1.397,5.93,1.383,2.195-.014,4.339-.477,6.088-1.84.829-.646.729-2.159,0-2.828-.88-.807-1.944-.689-2.828,0,.689-.537-.039-.003-.258.112-.169.089-.627.23-.002.021-.162.054-.32.123-.483.176-.206.066-.414.122-.625.171-.219.051-.525.047-.727.137.201-.09.316-.038.012-.008-.133.013-.265.024-.398.033-.32.021-.64.029-.961.027-.287-.002-.574-.012-.86-.031-.131-.009-.263-.019-.394-.033-.075-.007-.15-.016-.224-.025-.156-.019-.098-.011.175.023-.121.054-.515-.091-.647-.121-.207-.046-.412-.099-.616-.16-.177-.053-.349-.116-.524-.176-.454-.155.414.199.003.005-.217-.102-.43-.208-.642-.32-.925-.488-2.217-.265-2.736.718-.488.924-.27,2.215.718,2.736h0Z"></path><path class="i" d="m71.43,60.599c.247.941.484,1.898.625,2.861l-.071-.532c.017.132.024.262.011.395l.071-.532c-.009.061-.023.119-.043.178l.202-.478c-.018.041-.037.077-.063.114l.313-.405c-.029.036-.057.063-.093.092l.405-.313c-.072.046-.149.084-.227.12l.478-.202c-.125.052-.248.09-.382.111l.532-.071c-.12.014-.238.013-.359,0l.532.071c-.135-.019-.268-.052-.403-.07-.266-.083-.532-.095-.798-.036-.266.012-.514.091-.744.237-.415.243-.811.718-.919,1.195-.117.512-.091,1.087.202,1.541.26.403.695.852,1.195.919.355.048.699.137,1.061.153.579.025,1.109-.157,1.624-.395.647-.3,1.157-.912,1.329-1.607.147-.595.087-1.075-.014-1.672-.156-.922-.369-1.835-.606-2.739-.127-.483-.49-.944-.919-1.195s-1.061-.357-1.541-.202c-.484.157-.951.457-1.195.919-.253.48-.342,1.007-.202,1.541h0Z"></path><path class="i" d="m56.816,52.354c-.478,1.553-.166,5.125,2.775,5.429,3.888-.023,4.095-4.342,2.786-6.372-1.072-1.662-4.223-2.354-5.561.944Z"></path><path class="i" d="m87.95,52.355c.478,1.553.167,5.125-2.775,5.429-3.888-.023-4.095-4.342-2.786-6.372,1.072-1.662,4.222-2.354,5.561.944Z"></path><path class="i" d="m52.247,94.153c-4.527,1.63-8.939,3.601-13.308,5.612-.981.452-1.225,1.869-.718,2.736.589,1.007,1.751,1.171,2.736.718,4.195-1.931,8.041-3.657,12.352-5.208.982-.353,1.747-1.378,1.397-2.46-.313-.966-1.406-1.776-2.46-1.397h0Z"></path><path class="i" d="m85.873,8.179c6.979.834,13.228,5.306,16.77,11.297,4.126,6.981,4.627,15.191,2.617,22.912-.649,2.493,3.208,3.556,3.857,1.063,1.862-7.151,1.807-14.426-.848-21.371-2.277-5.956-6.331-11.057-11.826-14.359-3.245-1.95-6.822-3.094-10.569-3.542-1.074-.128-2,1.011-2,2,0,1.188.923,1.871,2,2h0Z"></path><path class="i" d="m86.279,24.703c2.648,3.028,4.73,6.573,6.062,10.37,1.494,4.261,1.866,8.618,2.071,13.099.117,2.563,4.118,2.578,4,0-.226-4.954-.643-9.856-2.352-14.55-1.577-4.33-3.918-8.279-6.952-11.748-1.698-1.941-4.517.897-2.828,2.828h0Z"></path><path class="i" d="m85.292,25.375c-3.198,6.826-10.674,13.514-18.741,12.394-1.068-.148-2.148.26-2.46,1.397-.257.935.32,2.311,1.397,2.46,9.872,1.371,19.189-5.549,23.258-14.232.458-.978.274-2.157-.718-2.736-.867-.507-2.276-.265-2.736.718h0Z"></path><path class="i" d="m73.161,25.215c-2.32,5.787-8.098,9.737-13.324,12.669-1.223.686-2.467,1.433-3.785,1.917-1.351.497-2.704.982-4.017,1.575-2.579,1.165-4.981,2.99-5.699,5.86-.625,2.498,3.232,3.563,3.857,1.063.592-2.368,3.423-3.347,5.473-4.112,2.852-1.064,5.503-2.382,8.106-3.971,5.549-3.387,10.773-7.769,13.247-13.939.402-1.003-.439-2.197-1.397-2.46-1.14-.313-2.057.39-2.46,1.397h0Z"></path><path class="i" d="m40.759,47.405c-3.042-6.26-3.328-13.595-1.008-20.129.361-1.018-.409-2.189-1.397-2.46-1.107-.304-2.098.375-2.46,1.397-2.686,7.566-2.086,16.016,1.412,23.211.472.971,1.855,1.233,2.736.718.992-.58,1.191-1.761.718-2.736h0Z"></path><path class="i" d="m40.851,21.49c4.062-6.244,9.272-11.776,16.114-14.951s15.311-3.631,22.143-.213c2.296,1.148,4.324-2.301,2.019-3.454-7.963-3.983-17.373-3.631-25.436-.121-7.788,3.39-13.731,9.705-18.294,16.721-1.408,2.164,2.054,4.171,3.454,2.019h0Z"></path><path class="i" d="m16.07,115.137c-3.004,5.776-5.22,11.97-7.191,18.162-2.15,6.752-3.971,13.612-5.54,20.521-1.237,5.447-2.374,10.948-3.039,16.498-.963,8.029.196,17.601,6.459,23.37,3.276,3.018,7.167,4.122,11.55,4.196,4.216.071,7.89-1.305,11.276-3.768.872-.635,1.302-1.738.718-2.736-.504-.861-1.858-1.356-2.736-.718-2.604,1.895-5.271,3.171-8.534,3.223-3.302.052-6.456-.456-9.038-2.662-5.942-5.077-6.54-13.894-5.666-21.131.082-.679.263-1.876.422-2.861.193-1.194.403-2.384.624-3.573.526-2.826,1.115-5.64,1.748-8.444,1.452-6.43,3.126-12.815,5.07-19.115,1.994-6.457,4.207-12.934,7.332-18.943,1.187-2.281-2.264-4.306-3.454-2.019h0Z"></path><path class="i" d="m118.121,231.504c-3.072,2.021-5.069,5.298-6.063,8.795-.776,2.73-.874,5.685-1.175,8.496-.198,1.844-.404,3.692-.66,5.528-.307,2.212-.711,4.356.5,6.404,2.178,3.683,6.628,2.86,9.448.475,1.968-1.665-.873-4.482-2.828-2.828-.537.454-1.995,1.097-2.448.963-1.34-.395-1.055-2.357-.904-3.342.428-2.792.726-5.609,1.019-8.419.47-4.516.941-9.862,5.131-12.618,2.142-1.409.14-4.874-2.019-3.454h0Z"></path><path class="i" d="m116.106,252.537c.525,2.181,1.103,4.349,1.756,6.495.556,1.828,1.244,3.6,3.069,4.492,1.735.849,3.786.644,5.28-.59,1.353-1.118,1.673-2.577,1.93-4.217l-3.343.883c1.179,1.352,2.198,2.702,3.937,3.357,1.088.41,2.232.487,3.375.37,2.563-.262,5.155-.744,7.593-1.588,2.298-.796,4.808-1.943,5.854-4.287.408-.914.92-1.873,1.165-2.837.279-1.095.324-2.329.304-3.452-.038-2.116-.409-4.243-.806-6.317-.65-3.404-1.507-6.768-2.262-10.15-.561-2.511-4.418-1.448-3.857,1.063.6,2.688,1.24,5.366,1.826,8.057.66,3.032,1.551,6.431.972,9.53-.141.752-.518,1.488-.84,2.188-.054.118-.104.237-.16.354-.168.346.017.067-.182.286-.521.574-1.325,1.011-2.195,1.379-2.114.893-4.453,1.361-6.715,1.691-.339.05.06,0-.356.046-.216.024-.432.049-.649.067-.243.021-.492.049-.737.039-1.63-.067-2.463-1.505-3.44-2.624-.927-1.063-3.114-.583-3.343.883-.095.605-.059,1.653-.529,2.125-.591.594-1.303.147-1.599-.495-.518-1.123-.777-2.437-1.109-3.624-.388-1.389-.747-2.786-1.084-4.188-.602-2.502-4.46-1.442-3.857,1.063h0Z"></path><path class="i" d="m31.448,202.008c1.726-.737,3.435-1.686,4.683-3.121.968-1.112,1.64-2.428,2.273-3.75,1.58-3.302,2.772-6.785,3.76-10.305,2.529-9.017,3.848-18.384,4.625-27.701.214-2.565-3.787-2.551-4,0-.726,8.713-1.98,17.434-4.274,25.883-.88,3.243-1.898,6.488-3.303,9.546-.493,1.073-1.144,2.503-1.755,3.313-.993,1.315-2.551,2.051-4.027,2.681-.994.424-1.214,1.888-.718,2.736.601,1.028,1.739,1.143,2.736.718h0Z"></path><path class="i" d="m29.958,167.681c-.004,8.139-.705,16.238-1.949,24.278-.165,1.066.271,2.151,1.397,2.46.948.26,2.294-.323,2.46-1.397,1.298-8.396,2.088-16.841,2.091-25.342.001-2.574-3.999-2.578-4,0h0Z"></path><path class="i" d="m30.907,134.31c-.923-6-2.463-11.973-3.971-17.848-.572-2.23-1.172-4.453-1.798-6.668-.285-1.008-.88-2.101.125-2.808,1.234-.869,2.745-1.496,4.095-2.159,1.436-.705,2.889-1.378,4.362-2.003,1.03-.437,2.706-1.424,3.838-.927,1.051.462,1.069,2.478,1.26,3.46.76,3.913,1.456,7.839,2.129,11.767.795,4.638,1.869,9.533,2.122,14.118.141,2.56,4.142,2.576,4,0-.267-4.843-1.335-9.731-2.149-14.505-.75-4.397-1.521-8.792-2.387-13.168-.406-2.051-.889-3.917-2.85-5.071-3.115-1.833-6.85.337-9.739,1.646-1.603.726-3.185,1.499-4.744,2.315-1.494.781-3.211,1.576-4.011,3.158-1.27,2.512.229,5.677.908,8.185,1.919,7.083,3.837,14.314,4.954,21.572.164,1.068,1.506,1.659,2.46,1.397,1.141-.314,1.562-1.389,1.397-2.46h0Z"></path><path class="i" d="m46.33,154.72c-2.761.637-5.713,1.225-8.145,2.759-2.703,1.704-3.917,4.854-6.006,7.18-.728.811-1.508,1.607-2.433,2.192-.255.161-.933.509-.962.52-.447.17-.953.265-1.07.272-1.133.067-1.926-.198-3.212-.635-1.364-.463-2.789-1.08-3.947-1.951-.774-.582-1.488-1.309-2.159-2.003-.187-.193-.375-.389-.546-.596.175.212-.285-.531.018.127-.329-.714-.629-1.836-.618-2.627.019-1.318.948-2.466,1.66-3.498.825-1.195,1.599-2.425,2.36-3.661,1.518-2.465,2.892-4.99,4.051-7.645.544-1.247,1.082-2.507,1.483-3.809.444-1.444.906-2.743,1.999-3.839,1.15-1.153,2.602-1.795,4.148-2.197,2.007-.522,4.016-1.038,6.045-1.465,1.744-.367,3.792-.932,5.587-.666,1.172.174,2.498,1.188,2.124,2.514-.699,2.482,3.159,3.541,3.857,1.063,1.13-4.012-2.423-7.443-6.247-7.603-4.044-.169-8.332,1.235-12.205,2.241-3.654.949-6.844,3.073-8.395,6.636-.626,1.439-.972,2.982-1.568,4.438-.632,1.544-1.358,3.057-2.137,4.532-1.49,2.823-3.256,5.49-5.042,8.131-2.06,3.047-2.391,7.34.134,10.252,2.025,2.335,4.498,3.987,7.361,5.123,2.731,1.084,5.519,1.623,8.265.357,3.309-1.525,5.669-4.846,7.614-7.791.995-1.507,1.912-2.363,3.637-3.019,1.749-.666,3.592-1.056,5.41-1.476,2.507-.579,1.446-4.436-1.063-3.857h0Z"></path><path class="i" d="m38.964,140.763c.573-.087,1.147-.166,1.721-.244.407-.056-.439.058.012-.002.188-.025.377-.05.565-.074.338-.044.677-.088,1.016-.131,1.226-.156,2.452-.308,3.68-.439.318-.034.642-.081.963-.087.075-.001.145.005.223.005.236.021.219.018-.05-.008.102.021.202.047.301.078.403.088-.233-.18.073.035.085.047.168.099.248.155-.21-.169-.234-.182-.07-.038.069.066.135.136.198.208-.147-.2-.179-.239-.097-.118.026.09.286.617.099.102.069.189.118.377.163.573-.093-.405-.017.106-.012.188-.018.238-.01.237.022-.003-.019.115-.044.229-.073.341-.039.148-.188.477-.034.165-.045.091-.425.658-.128.292-.134.165-.287.308-.45.443-.806.673-.747,2.143,0,2.828.857.787,1.968.718,2.828,0,1.539-1.285,2.095-3.48,1.688-5.392-.372-1.748-1.767-3.166-3.467-3.659-.95-.275-1.829-.177-2.781-.072-1.158.128-2.315.271-3.471.419-1.412.18-2.824.363-4.232.575-1.038.157-1.702,1.517-1.397,2.46.366,1.132,1.348,1.565,2.46,1.397h0Z"></path><path class="i" d="m41.823,146.964c1.562-.395,3.222-.532,4.815-.751.114-.016.227-.031.341-.046.363-.05-.446.059-.091.012.223-.03.446-.059.669-.088.358-.046.717-.092,1.076-.134.119-.014.238-.029.358-.04.038-.003.076-.009.115-.011.06-.004.132.005.19-.005.199-.034-.34-.105-.146-.028.065.026.491.141.207.041-.309-.108.232.08.244.16.004.023-.29-.273-.132-.097.045.05.102.099.151.145.246.23-.22-.26.057.099.129.167-.079-.127-.057-.162-.006.01.085.269.076.269-.019,0-.024-.394-.019-.13.003.142.02.282.02.424,0,.082-.002.163-.006.245-.002.053-.035.409,0,.126.031-.261-.056.231-.081.322-.019.069-.041.137-.064.205-.046.137-.166.22-.026.082.136-.133.046-.091-.015.003-.046.071-.092.149-.132.224-.167.311.04-.104.092-.102-.024,0-.139.157-.161.179-.039.04-.093.078-.128.122-.135.171.399-.28.089-.07-.864.586-1.33,1.787-.718,2.736.555.861,1.81,1.346,2.736.718,1.594-1.081,2.421-2.879,2.414-4.791-.008-2.147-1.318-4.114-3.484-4.607-.954-.217-1.902-.024-2.854.101-1.293.169-2.586.346-3.877.536-.904.133-1.836.23-2.723.454-1.015.257-1.725,1.447-1.397,2.46.339,1.049,1.373,1.672,2.46,1.397h0Z"></path><path class="i" d="m42.126,153.465c1.639-.197,3.271-.451,4.914-.615.378-.038.757-.071,1.136-.097.183-.012.367-.025.551-.03.121-.003.241.001.362,0,.191-.003.205.015.006-.021.093.017.395.151.473.122.012-.004-.392-.152-.189-.069.014.006.155.1.16.097-.027.022-.29-.285-.163-.123.033.043.091.092.132.127.095.081.07.174.003-.015-.091-.257.005.015.057.1.022.035.153.328.177.329-.014,0-.139-.391-.079-.19.018.059.044.117.064.176.085.251.142.508.196.767.099.473-.013-.364,0-.007.004.123.016.245.018.368.002.125,0,.25-.007.375-.005.088-.053.571-.015.241.038-.342-.042.169-.059.24-.03.126-.064.251-.102.375-.01.031-.123.369-.129.367-.02-.007.185-.369.074-.18-.043.073-.075.156-.115.232-.061.114-.131.222-.196.334-.007.011-.105.162-.108.161-.036-.02.288-.324.076-.1-.088.094-.171.191-.264.281-.045.043-.103.083-.143.13-.153.18.303-.197.099-.074-.131.079-.259.162-.392.239-.035.02-.24.108-.033.023.251-.103-.231.065-.234.066-.192.054-.389.082-.582.128-.226.054.076-.007.106-.01-.114.013-.228.025-.343.035-.928.084-1.86.08-2.788.006-1.046-.083-2.046.979-2,2,.052,1.154.88,1.911,2,2,1.948.155,4.197.133,5.951-.826,1.495-.818,2.526-2.374,2.949-3.999.387-1.485.352-3.158-.235-4.586-.397-.967-.935-1.755-1.793-2.373-.831-.599-1.929-.772-2.931-.747-2.209.055-4.411.478-6.601.742-1.035.125-2.052.831-2,2,.044.976.887,2.134,2,2h0Z"></path><path class="i" d="m113.813,133.024c.188,12.206.56,24.411.889,36.614.403,14.928.819,29.857,1.145,44.787.139,6.357.271,12.715.311,19.074.016,2.573,4.016,2.579,4,0-.08-12.612-.439-25.224-.763-37.832-.381-14.817-.804-29.633-1.18-44.45-.154-6.064-.308-12.128-.402-18.193-.04-2.571-4.04-2.579-4,0h0Z"></path><path class="i" d="m92.571,98.012c3.123,1.123,6.272,2.191,9.374,3.372,4.086,1.555,8.117,3.375,12.012,5.359,3.265,1.663,6.515,3.498,9.394,5.779,2.392,1.895,4.531,4.09,6.082,6.732,1.591,2.71,2.538,5.713,3.214,8.769,1.174,5.305,1.56,10.755,2.004,16.16.889,10.834,1.64,21.68,2.39,32.524.809,11.7,1.591,23.403,2.356,35.106.263,4.021.524,8.042.783,12.063.043.669.088,1.338.128,2.007.036.604.082,1.216.007,1.819-.034.271-.064.673-.225.895.118-.163-.43.146-.656.208-1.693.464-3.609.471-5.35.638-2.153.207-4.308.384-6.465.54-2.179.157-4.36.289-6.542.395-2.562.124-2.577,4.125,0,4,4.478-.217,8.952-.538,13.415-.974,3.536-.346,8.815-.078,9.668-4.513.378-1.967.083-4.04-.045-6.025-.126-1.954-.252-3.907-.379-5.861-.751-11.565-1.519-23.129-2.309-34.692-.801-11.715-1.609-23.431-2.535-35.138-.396-5.001-.768-10.015-1.466-14.984-.962-6.855-2.779-13.677-7.474-18.966-5.155-5.806-12.55-9.46-19.526-12.569-5.003-2.23-10.089-4.09-15.237-5.941l-1.555-.559c-2.427-.873-3.472,2.991-1.063,3.857h0Z"></path><path class="i" d="m111.707,257.383c-4.424.795-8.846,1.598-13.27,2.39l2.46,1.397c-2.541-14.129-5.076-28.259-7.61-42.39l-1.397,2.46c8.824-1.582,17.7-2.992,26.49-4.75,2.522-.504,1.455-4.361-1.063-3.857-8.79,1.758-17.666,3.168-26.49,4.75-1.13.203-1.573,1.479-1.397,2.46,2.534,14.131,5.069,28.261,7.61,42.39.203,1.13,1.478,1.573,2.46,1.397,4.424-.792,8.846-1.595,13.27-2.39,1.064-.191,1.664-1.487,1.397-2.46-.308-1.12-1.393-1.589-2.46-1.397h0Z"></path><path class="i" d="m141.84,212.28c1.3-.231,2.6-.469,3.9-.7l-2.46-1.397c2.53,14.131,5.07,28.261,7.61,42.39l1.397-2.46c-2.642.478-5.287.946-7.93,1.42-1.064.191-1.664,1.487-1.397,2.46.308,1.121,1.393,1.588,2.46,1.397,2.643-.474,5.288-.942,7.93-1.42,1.13-.204,1.574-1.477,1.397-2.46-2.54-14.129-5.08-28.259-7.61-42.39-.203-1.131-1.479-1.571-2.46-1.397-1.3.231-2.6.469-3.9.7-1.064.189-1.664,1.488-1.397,2.46.308,1.122,1.393,1.587,2.46,1.397h0Z"></path></g></g></svg>