<svg id="b" xmlns="http://www.w3.org/2000/svg" width="117.057" height="416.708" viewBox="0 0 117.057 416.708"><defs><style>.g{fill:#fcdc4a;}.g,.h,.i{stroke-width:0px;}.h{fill:#fff;}.i{fill:#211715;}</style></defs><g id="c"><g id="d"><path class="h" d="m35.447,193.338c-.563-.731-1.175-1.456-1.814-2.084,0,0-.313-.175-.759-.422,2.774-5.248,6.652-12.698,7.402-14.181l.231-.457c1.234,1.796,2.537,3.683,3.872,5.61-.358-.077-.684-.151-.955-.215-1.279-.305-2.795.059-3.416,1.298-.643,1.283-.379,3.027.566,3.747.474.361,1.063.722,1.696,1.066-.483,1.562.457,3.6,1.062,4.692.605,1.093,1.456,2.434,2.576,2.986.768,2.925,1.602,4.695,3.664,7.009.472.53,1.71,1.01,2.774,1.249-1.184.7-2.597,1.256-4.263,1.019-.88-.13-2.69-.79-3.59-1.2-1.71-.78-4.16-3.66-6.11-5.92-.429-.493-1.527-2.365-2.936-4.196Z"></path><path class="h" d="m59.044,380.708l.13.03c-.66,2.35-.99,6.46-1.05,8.17-.04,1.03-.13,2.19-.13,3.34l-.68-.01c0-1.15-.08-2.3-.12-3.33-.07-1.71-.39-5.82-1.05-8.17l.12-.03c-.29-1.19-.48-1.93-2-2.25-.79-.17-2.2.26-2.96.73-.93.56-4.63,2.37-7.07,3.15-2.65.86-6.84.34-9.59-1.93,1.34-2.12,2.1-5.13,2.06-6.77-.03-1.41-.07-2.83-.12-4.27,7.01,1.08,14.26.63,21.07-1.36,6.81,2,14.06,2.44,21.08,1.36-.05,1.44-.09,2.86-.12,4.27-.04,1.64.71,4.64,2.05,6.77-2.75,2.27-6.94,2.79-9.59,1.93-2.44-.78-6.14-2.59-7.07-3.15-.76-.47-2.17-.9-2.96-.73-1.52.32-1.71,1.06-2,2.25Z"></path><path class="h" d="m13.515,411.273c-1.167-1.2-1.985-2.735-2.125-4.393-.265-3.133,1.637-6.101,3.866-8.319,4.539-4.518,9.294-8.969,13.584-13.732,2.019-2.43,2.952-5.62,5.502-4.669,2.744,2.478,6.666,3.08,9.416,2.195,2.435-.784,6.612-2.607,7.543-3.17.765-.463,2.177-.896,2.963-.728.562.12.941.297,1.212.531.215.514.364.863.364.863.86,2.024,1.277,7.111,1.35,9.057.116,3.081.622,7.151-1.823,9.43-1.757,1.637-5.521,3.55-7.818,4.252-3.752,1.147-5.687,3.563-8.426,6.157-1.106,1.048-2.26,2.031-3.571,2.787-4.371,2.519-9.568,3.646-14.583,2.993-2.193-.286-4.388-.91-6.197-2.182-.449-.316-.872-.675-1.256-1.071Z"></path><path class="h" d="m86.589,384.971c-2.103-2.445-3.022-5.781-5.623-4.812-2.744,2.478-6.666,3.08-9.416,2.195-2.435-.784-6.612-2.607-7.543-3.17-.765-.463-2.177-.896-2.963-.728-.562.12-.941.297-1.212.531-.215.514-.364.863-.364.863-.86,2.024-1.277,7.111-1.35,9.057-.116,3.081-.622,7.151,1.823,9.43,1.757,1.637,5.521,3.55,7.818,4.252,3.752,1.147,5.687,3.563,8.426,6.157,1.106,1.048,2.26,2.031,3.571,2.787,4.371,2.519,9.568,3.646,14.583,2.993,2.193-.286,4.388-.91,6.197-2.182,1.809-1.272,3.195-3.26,3.381-5.464.265-3.133-1.637-6.101-3.866-8.319-5.718-5.692-11.781-11.278-16.832-17.508"></path><path class="h" d="m23.928,193.414c-4.808,13.808-4.079,28.846-3.247,43.443,2.449,42.966,5.298,85.91,8.546,128.823.094,1.246.979,2.28,2.186,2.604,8.553,2.295,17.738,2.218,26.239-.278,8.502,2.496,17.689,2.574,26.243.278,1.207-.324,2.092-1.358,2.186-2.604,3.248-42.913,6.096-85.857,8.546-128.823.832-14.597,1.56-29.635-3.247-43.443"></path><path class="h" d="m32.266,163.901c2.532-2.09,27.379-20.705,32.329-23.894,10.672,13.819,29.235,40.489,32.373,45.166-4.22,3.404-27.732,21.226-32.787,24.801-4.511-6.262-26.773-37.855-31.915-46.072"></path><path class="h" d="m97.089,95.956c-1.008-2.003-1.308-4.284-1.539-6.519-1.169-11.302-1.433-28.088-.963-40.583-.051-6.084-.082-10.505-.223-12.396-.826-11.099-4.97-18.834-10.561-24.281-3.542-3.451-3.627-3.374-10.999-7.446-4.357-1.697-8.981-2.802-15.386-2.802-11.181,0-21.133,5.817-25.55,10.087-7.326,7.083-11.974,20.022-11.388,37.863.469,12.023-.064,27.188-1.233,38.061-.231,2.15-.531,4.345-1.539,6.272-1.336,2.556-3.767,4.374-6.12,6.104l9.117,9.117h73.292l9.212-7.133c-2.353-1.797-4.784-3.688-6.12-6.344Zm-4.534-37.533c-.585,1.723-1.543,4.359-3.853,6.248-.952.779-2.353,1.292-3.692,1.066,0,0-.128-.022-.353-.06-.426,1.404-.95,2.78-1.271,3.448-.939,2.548-6.126,11.483-12.689,14.967.097,1.259.26,2.506.48,3.76.343,1.964.237,3.716,2.97,4.704.078.029,1.633.764,3.368,1.585-1.264.959-2.299,1.743-2.299,1.743-3.768,3.088-10.615,4.433-16.774,4.433-5.23,0-11.619-1.178-16.556-4.433,0,0-1.298-.803-2.899-1.794,1.765-.818,3.247-1.507,3.319-1.534,2.733-.988,2.615-2.739,2.97-4.704.196-1.138.35-2.187.443-3.286-3.238-1.412-6.117-3.796-8.851-7.067-3.327-3.983-5.222-8.272-6.268-11.826-1.428.367-2.971-.164-3.995-1.001-2.31-1.89-3.268-4.526-3.853-6.248-.826-2.433-.878-6.365.353-8.499.412-.715,1.37-1.932,3.621-2.012,1.034-.036,2.243.287,3.14,1.15,0,0,1.282,1.231,2.563,2.463.06-.442.12-.885.12-.885.208-1.527.481-3.017.824-4.459.411-1.73,1.662-5.201,2.895-7.063,1.74,0,3.623,0,5.489,0,6.176,0,12.163,0,12.163,0,3.248-1.163,5.941-3.735,7.61-6.754,1.217-2.202,1.942-3.997,2.528-6.724h5.848c.934,3.731,2.08,7.306,3.12,9.29,2.111,4.027,5.802,9.591,9.617,11.098l2.797,3.034c.897-.862,2.106-1.186,3.14-1.15,2.251.079,3.209,1.297,3.621,2.012,1.23,2.134,1.178,6.066.352,8.499Z"></path><path class="h" d="m72.276,193.673c-5.646,4.633-11.283,8.483-18.407,10.092-.83.187-3.542-.531-4.297-1.379-2.061-2.314-2.895-4.084-3.664-7.009-1.12-.553-1.971-1.894-2.576-2.986-.606-1.094-1.546-3.134-1.059-4.703-.637-.333-1.225-.694-1.699-1.055-.945-.719-1.208-2.464-.566-3.747.621-1.239,2.137-1.602,3.416-1.298,1.312.312,3.933.834,5.062,1.083,1.917.229,4.622-.451,7.186-1.33-2.471-1.749-7.77-3.501-7.936-6.498-.048-.856.177-1.511.666-2.006.888-.899,2.148-.694,4.321-.524,1.642.128,2.842.379,4.471.624,1.056.159,2.708.499,3.733.801,2.542,1.045,3.921,1.508,5.424,3.015"></path><path class="h" d="m33.482,45.758c.493-1.825,1.648-4.919,2.787-6.641,1.74,0,3.623,0,5.489,0,6.176,0,12.163,0,12.163,0,3.248-1.163,5.941-3.735,7.61-6.754,1.217-2.202,1.942-3.997,2.528-6.724h5.848c.934,3.731,2.08,7.306,3.12,9.29,2.111,4.027,5.802,9.591,9.617,11.098l2.797,3.034c.897-.862,2.106-1.186,3.14-1.15,2.251.079,3.209,1.297,3.621,2.012,1.23,2.134,1.178,6.066.352,8.499-.585,1.723-1.543,4.359-3.853,6.248-.952.779-2.353,1.292-3.692,1.066l-.353-.06c-.426,1.404-.95,2.78-1.271,3.448-.939,2.548-6.126,11.483-12.69,14.967.098,1.26.261,2.506.481,3.759.343,1.964.237,3.716,2.97,4.704.075.027,1.484.694,3.115,1.466l-2.046,1.863c-3.768,3.088-10.615,4.433-16.774,4.433-5.23,0-11.619-1.178-16.556-4.433,0,0-1.215-1.027-2.397-2.027,1.536-.712,2.752-1.277,2.818-1.301,2.734-.988,2.615-2.739,2.97-4.704.195-1.137.349-2.185.444-3.286-3.238-1.412-6.118-3.796-8.851-7.068-3.327-3.983-5.222-8.272-6.268-11.825-1.428.367-2.971-.164-3.995-1.001-2.31-1.89-3.268-4.526-3.853-6.248-.826-2.433-.878-6.365.352-8.499.412-.715,1.37-1.932,3.621-2.012,1.034-.036,2.243.287,3.14,1.15l2.563,2.463c.06-.442.12-.885.12-.885.208-1.528.481-3.017.824-4.459.031-.131.067-.273.108-.423Z"></path><g id="e"><path class="g" d="m115.064,160.067c0-.147-.001-.295-.002-.443-.002-.378-.005-.76-.011-1.146-.002-.151-.004-.3-.006-.452-.009-.519-.02-1.042-.035-1.573,0-.025-.002-.051-.002-.076-.014-.51-.032-1.026-.052-1.544-.006-.164-.013-.329-.02-.493-.016-.402-.034-.806-.053-1.213-.008-.164-.015-.327-.023-.491-.027-.552-.057-1.106-.089-1.663-.001-.022-.003-.043-.004-.065-.031-.536-.065-1.075-.1-1.615-.011-.169-.023-.338-.034-.508-.029-.422-.058-.844-.089-1.267-.012-.159-.023-.317-.035-.476-.042-.564-.086-1.127-.132-1.69-.003-.041-.007-.081-.01-.122-.044-.527-.089-1.053-.135-1.578-.014-.157-.028-.314-.042-.471-.04-.442-.081-.881-.123-1.32-.013-.131-.025-.263-.038-.394-.11-1.134-.226-2.253-.347-3.352-.013-.121-.027-.241-.04-.362-.052-.469-.105-.934-.159-1.395-.009-.079-.018-.158-.028-.237-.131-1.112-.266-2.193-.404-3.238-.003-.022-.006-.045-.009-.068h0c-.571-4.318-1.187-7.984-1.738-10.33-1.383-5.887-3.089-11.057-8.544-16.738-4.208-4.382-16.37-9.436-25.27-12.688-2.372,5.105-11.26,7.255-19.047,7.255-6.346,0-14.397-1.734-19.485-6.811-8.597,3.028-19.001,7.266-23,11.191-5.444,5.36-7.152,10.24-8.531,15.798-1.133,4.567-4.463,22.164-5.418,38.043v2.815c-.958,17.864,7.292,23.281,11.125,25.614,4.603,2.802,9.911,5.071,14.777,7.222,1.454.643,3.15.058,3.897-1.345.335-.63.704-1.325,1.094-2.063.041-.078.085-.161.127-.24.147-.278.295-.559.447-.847.091-.173.184-.35.277-.526.091-.173.182-.346.275-.522.115-.218.231-.438.347-.659.093-.177.186-.353.279-.531.108-.206.216-.412.325-.619.099-.189.198-.378.297-.567.092-.176.184-.351.276-.527.15-.286.299-.572.448-.856.048-.092.097-.185.145-.277.157-.3.312-.597.466-.891.054-.104.11-.21.164-.313.382-.731.75-1.438,1.098-2.105.086-.166.168-.322.251-.482.101-.195.203-.391.3-.577.062-.12.121-.234.182-.349.095-.183.188-.362.278-.535.062-.12.122-.236.182-.35.094-.181.184-.356.27-.522.042-.082.085-.164.125-.242.091-.176.175-.34.255-.494.029-.055.059-.115.086-.167.094-.182.178-.346.252-.489.007-.013.015-.03.022-.042.082-.16.15-.294.203-.398,0,0,.084-.166.231-.457-3.651-5.312-6.709-9.844-8.241-12.293,2.532-2.09,27.379-20.705,32.329-23.894,5.546,7.181,13.22,17.829,19.755,27.061-3.211,1.701-8.119,3.888-13.684,6.619-1.397.686-2.139,2.257-1.754,3.765,1.638,6.403,3.559,12.945,5.338,19.575.45,1.678,2.123,2.723,3.828,2.387.14-.028.268-.06.406-.088l-.007.005c.167-.034.321-.074.485-.109.455-.098.911-.196,1.346-.302.172-.042.337-.088.507-.131.446-.113.892-.228,1.322-.35.144-.041.283-.086.425-.128.444-.131.887-.263,1.318-.403.118-.038.233-.08.35-.119.447-.149.894-.3,1.334-.459.105-.038.209-.079.313-.118.45-.166.9-.334,1.349-.51.095-.037.191-.078.286-.116.458-.183.918-.367,1.383-.562.111-.046.226-.097.338-.144.452-.19.904-.382,1.369-.583.579-.251,1.17-.511,1.779-.779.533-.235,1.039-.466,1.531-.694.049-.023.103-.046.152-.069.187-.087.362-.173.544-.26.159-.076.322-.152.477-.228.252-.123.495-.245.738-.367.13-.065.265-.131.392-.196.301-.154.591-.308.878-.462.061-.033.126-.066.187-.099.346-.187.682-.375,1.011-.564.088-.051.172-.102.26-.153.236-.138.472-.276.701-.416.12-.073.237-.148.355-.222.191-.119.383-.239.57-.36.127-.082.252-.167.378-.25.175-.116.351-.233.523-.351.127-.087.253-.176.379-.264.169-.118.338-.238.505-.359.127-.092.254-.186.38-.279.164-.122.33-.245.494-.371.128-.097.256-.196.384-.296.164-.127.328-.257.493-.388.127-.101.255-.204.383-.308.168-.136.337-.276.507-.416.127-.105.255-.211.383-.319.175-.147.352-.299.53-.45.126-.108.252-.215.38-.325.189-.164.383-.334.577-.504.121-.106.241-.21.364-.319.218-.193.443-.395.668-.596.104-.093.206-.183.312-.279.334-.3.674-.609,1.026-.93,4.75-5.286,6.217-10.583,6.217-19.053v-2.815c.006-.487.008-.986.007-1.49Z" style="fill: rgb(169, 217, 194);"></path></g></g><g id="f"><path class="i" d="m82.395,379.399c-.243-.389-.464-.789-.662-1.202-.034-.072-.317-.742-.152-.326-.086-.217-.17-.436-.248-.656-.283-.804-.507-1.632-.651-2.472-.013-.073-.025-.147-.036-.22-.033-.228-.029-.192.014.108-.06-.049-.04-.441-.045-.524-.023-.438,0-.878.011-1.316.027-1.141.062-2.282.101-3.423.036-1.047-.946-2.047-2-2-1.114.05-1.961.879-2,2-.074,2.143-.269,4.313.097,6.437.337,1.956,1.064,3.929,2.116,5.612.554.887,1.81,1.315,2.736.718.889-.573,1.311-1.787.718-2.736h0Z"></path><path class="i" d="m34.578,369.368c.039,1.141.073,2.282.101,3.423.011.438.034.878.011,1.316-.004.082.015.475-.045.524.043-.3.048-.336.014-.108-.011.074-.023.147-.036.22-.145.84-.368,1.668-.651,2.472-.078.221-.162.439-.248.656.165-.417-.117.254-.152.326-.198.414-.419.814-.662,1.202-.555.889-.218,2.242.718,2.736.982.519,2.144.231,2.736-.718,1.052-1.683,1.779-3.656,2.116-5.612.366-2.125.171-4.294.097-6.437-.036-1.044-.894-2.05-2-2-1.053.047-2.039.88-2,2h0Z"></path><path class="i" d="m55.654,368.005v9.993c0,1.046.92,2.048,2,2s2-.879,2-2v-9.993c0-1.046-.92-2.048-2-2s-2,.879-2,2h0Z"></path><path class="i" d="m57.54,379.318c-.741,1.857-.926,3.97-1.141,5.941-.205,1.882-.3,3.772-.374,5.663-.089,2.297-.012,4.702,1.02,6.805,1.003,2.042,3.007,3.361,4.93,4.451,1.981,1.123,4.066,1.797,6.153,2.655,2.131.876,3.759,2.51,5.373,4.096,1.833,1.802,3.713,3.539,6.002,4.75,2.445,1.293,5.103,2.224,7.835,2.666,5.179.838,11.411.419,15.478-3.279,4.076-3.706,3.764-9.349.664-13.557-1.681-2.282-3.851-4.179-5.869-6.155-2.081-2.037-4.161-4.075-6.19-6.163-1.881-1.934-3.592-3.836-5.111-6.061-1.249-1.829-2.871-3.514-5.293-3.049-1.252.24-2.145,1.298-3.297,1.824-1.005.459-2.145.737-3.247.803-2.282.137-4.289-.748-6.327-1.68-2.012-.921-4.068-2.437-6.327-2.58-1.217-.077-2.562.296-3.452,1.172-.804.791-1.079,1.868-1.349,2.925-.638,2.495,3.219,3.56,3.857,1.063.069-.268.193-.939.251-1.03.173-.268-.028-.094.158-.132.744-.155,1.531.375,2.161.719,1.922,1.049,3.96,1.946,6.006,2.72,4.368,1.651,9.393.748,12.929-2.309l-.883.514c.393-.124.211-.156.511.019.525.306.91,1.132,1.231,1.62,1.014,1.539,2.14,2.903,3.4,4.248,2.743,2.927,5.614,5.73,8.48,8.536,2.428,2.377,5.629,4.801,6.594,8.216.914,3.236-1.355,5.902-4.272,7.011-6.696,2.546-14.933.27-19.987-4.545-2.333-2.223-4.526-4.615-7.539-5.92-2.797-1.211-5.679-2.027-8.12-3.968-2.473-1.967-1.8-5.714-1.672-8.497.127-2.758.241-5.835,1.275-8.427.4-1.004-.437-2.197-1.397-2.46-1.139-.313-2.058.39-2.46,1.397h0Z"></path><path class="i" d="m53.91,380.381c.941,2.359,1.08,5.119,1.233,7.629.15,2.45.677,5.554-.41,7.846-.573,1.206-1.833,1.93-2.937,2.587-1.25.744-2.564,1.424-3.931,1.929-1.543.571-3.073,1.051-4.468,1.954-1.366.884-2.582,1.981-3.745,3.112-2.547,2.477-4.957,4.66-8.355,5.903-3.424,1.252-7.215,1.758-10.824,1.096-2.942-.539-6.462-2.051-7.05-5.361-.608-3.427,2.398-6.27,4.58-8.42,3.192-3.146,6.428-6.248,9.53-9.484,1.476-1.539,2.949-3.063,4.137-4.84.427-.639.81-1.345,1.329-1.914.381-.417.361-.47.809-.328l-.883-.514c3.536,3.057,8.561,3.961,12.929,2.309,2.014-.761,4.012-1.646,5.908-2.668.648-.349,1.441-.904,2.215-.795.229.032.055-.068.201.156.038.058.188.785.251,1.03.638,2.492,4.496,1.436,3.857-1.063-.553-2.161-1.585-3.855-4.026-4.088-2.077-.198-3.808.975-5.584,1.85-1.817.896-3.805,1.953-5.815,2.32-1.899.346-4.067-.048-5.758-.963-.972-.526-1.701-1.368-2.816-1.582-1.095-.211-2.177.016-3.104.63-1.89,1.251-2.737,3.596-4.23,5.23-3.975,4.352-8.263,8.402-12.449,12.546-3.659,3.623-6.773,8.702-4.128,13.848,2.478,4.822,8.376,6.368,13.396,6.373,5.392.006,11.015-1.745,15.214-5.173,1.899-1.55,3.481-3.448,5.381-4.995,1.794-1.46,3.89-1.991,5.97-2.884,2.263-.971,4.644-2.186,6.441-3.904,1.919-1.835,2.471-4.505,2.527-7.063.047-2.189-.109-4.421-.315-6.6-.211-2.234-.385-4.666-1.225-6.77-.4-1.003-1.336-1.706-2.46-1.397-.953.262-1.799,1.451-1.397,2.46h0Z"></path><path class="i" d="m82.821,404.066c3.654-3.638,8.628-5.478,13.439-7.232,1.014-.37,1.7-1.358,1.397-2.46-.269-.978-1.44-1.769-2.46-1.397-5.44,1.983-11.02,4.096-15.204,8.261-1.827,1.819,1.001,4.647,2.828,2.828h0Z"></path><path class="i" d="m35.676,401.238c-4.184-4.165-9.764-6.277-15.204-8.261-1.015-.37-2.191.415-2.46,1.397-.306,1.114.378,2.089,1.397,2.46,4.811,1.754,9.785,3.594,13.439,7.232,1.827,1.818,4.656-1.009,2.828-2.828h0Z"></path><path class="i" d="m40.876,95.407c.585-.271,1.17-.543,1.756-.813.179-.083.358-.164.537-.247.038-.018.077-.033.114-.051-.86.412-.37.162-.163.079,1.291-.515,2.481-1.288,3.165-2.541.487-.892.667-1.838.818-2.827.227-1.478.484-2.948.617-4.439.093-1.045-.986-2.045-2-2-1.163.052-1.9.881-2,2-.031.344-.066.688-.107,1.031-.019.161-.054.512-.018.151-.017.172-.05.344-.076.516-.086.56-.188,1.117-.274,1.678-.061.397-.117.795-.204,1.187-.042.187-.091.373-.151.555-.06.181-.207.356.066-.125-.046.082-.08.172-.125.255-.046.084-.1.164-.149.246-.172.29.33-.352.072-.091-.073.074-.14.152-.216.223l-.079.072c-.157.131-.109.097.143-.104-.195.047-.452.29-.64.384-.107.053-.485.266-.045.027-.164.089-.556.226-.633.26-.815.36-1.619.746-2.427,1.121-.952.442-1.265,1.888-.718,2.736.632.981,1.718,1.19,2.736.718h0Z"></path><path class="i" d="m68.721,84.408c.139,1.556.401,3.09.631,4.633.153,1.022.343,2.042.897,2.938.403.652.91,1.148,1.524,1.594.211.153.431.291.664.409.209.106.426.194.642.285.2.084,1.065.507.093.029.971.477,1.96.92,2.938,1.383.944.447,2.202.294,2.736-.718.47-.889.292-2.259-.718-2.736-.955-.452-1.905-.915-2.867-1.351-.236-.107-.516-.169-.735-.305.401.249.018.004-.071-.041-.121-.061-.239-.127-.354-.198-.054-.033-.107-.068-.16-.104-.125-.087-.072-.043.161.132-.038-.068-.197-.171-.255-.228-.068-.068-.142-.182-.218-.239.299.227.208.288.073.068-.053-.086-.097-.176-.146-.264-.17-.302.157.462.044.11-.062-.193-.125-.383-.172-.58-.098-.411-.157-.83-.219-1.248-.082-.552-.183-1.102-.267-1.654-.009-.061-.087-.604-.055-.367s-.038-.307-.045-.368c-.047-.393-.086-.787-.122-1.181-.093-1.039-.853-2.051-2-2-1.004.045-2.1.884-2,2h0Z"></path><path class="i" d="m31.281,47.647c-2.024-1.806-4.871-2.227-7.344-1.094-1.766.809-2.851,2.48-3.349,4.308-1.137,4.179-.075,9.066,2.321,12.631,1.644,2.446,4.242,4.652,7.389,4.244,1.071-.139,2-.82,2-2,0-.973-.921-2.14-2-2-2.177.282-3.594-1.52-4.538-3.262-.759-1.399-1.408-3.153-1.551-4.819-.155-1.803-.042-3.645.825-5.039-.326.524.512-.436.202-.21.399-.292.498-.326.918-.42.818-.182,1.647-.092,2.299.489,1.915,1.709,4.754-1.11,2.828-2.828h0Z"></path><path class="i" d="m86.855,50.476c.616-.549,1.403-.659,2.172-.516.498.093.62.137,1.045.447-.303-.221.52.72.202.21.87,1.396.98,3.231.825,5.039-.143,1.662-.796,3.426-1.551,4.819-.944,1.741-2.36,3.544-4.538,3.262-1.073-.139-2,1.019-2,2,0,1.196.924,1.86,2,2,5.117.664,8.263-4.857,9.542-8.994,1.149-3.716,1.09-9.467-2.542-11.843-2.475-1.619-5.836-1.168-7.983.749-1.925,1.717.912,4.538,2.828,2.828h0Z"></path><path class="i" d="m83.252,63.105c-.3,1.437-.744,2.847-1.266,4.219-.192.506-.324.765-.564,1.363-.202.502.145-.292-.028.067-.061.127-.118.257-.179.384-.863,1.803-1.94,3.514-3.091,5.144-2.681,3.799-6.35,7.949-11.062,9.056-2.505.589-1.444,4.446,1.063,3.857,5.599-1.316,9.907-5.99,13.151-10.472,1.256-1.735,2.425-3.566,3.359-5.498.202-.418.383-.844.562-1.272.214-.513-.165.356.072-.165.153-.337.291-.682.428-1.025.59-1.488,1.085-3.026,1.412-4.594.524-2.512-3.331-3.586-3.857-1.063h0Z"></path><path class="i" d="m28.119,64.07c2.402,10.534,10.334,22.02,21.718,23.737,1.067.161,2.15-.268,2.46-1.397.26-.945-.322-2.298-1.397-2.46-10.092-1.522-16.801-11.631-18.924-20.943-.572-2.509-4.43-1.447-3.857,1.063h0Z"></path><path class="i" d="m52.2,73.035c1.792.946,3.72,1.355,5.748,1.342,2.136-.014,4.214-.468,5.916-1.794.829-.646.729-2.159,0-2.828-.88-.807-1.944-.689-2.828,0,.692-.539-.015-.018-.234.096-.169.089-.618.229.016.013-.156.053-.308.118-.465.169-.422.136-.888.157-1.302.297.212-.072.331-.04.031-.01-.128.013-.256.023-.384.032-.308.02-.617.028-.925.026-.276-.002-.553-.011-.828-.03-.127-.009-.253-.019-.379-.031-.072-.007-.144-.015-.216-.024-.157-.019-.095-.011.188.025-.015.053-1.105-.237-1.216-.27-.17-.051-.336-.112-.504-.17-.446-.153.425.203.021.012-.209-.098-.414-.201-.618-.308-.925-.488-2.217-.265-2.736.718-.488.924-.27,2.215.718,2.736h0Z"></path><path class="i" d="m56.665,59.84c.238.907.466,1.827.602,2.755l-.071-.532c.016.127.023.253.01.38l.071-.532c-.009.059-.022.115-.042.171l.202-.478c-.018.04-.036.074-.06.11l.313-.405c-.028.034-.055.061-.09.089l.405-.313c-.07.045-.143.081-.218.115l.478-.202c-.12.05-.239.087-.368.107l.532-.071c-.116.014-.229.013-.345,0l.532.071c-.13-.018-.258-.05-.388-.067-.266-.083-.532-.095-.798-.036-.266.012-.514.091-.744.237-.415.243-.811.718-.919,1.195-.117.512-.091,1.087.202,1.541l.313.405c.25.248.544.419.883.514.348.047.687.134,1.041.15.572.025,1.093-.155,1.601-.39.639-.297,1.144-.905,1.314-1.592.145-.589.087-1.059-.013-1.649-.15-.888-.355-1.767-.583-2.638-.127-.483-.49-.944-.919-1.195s-1.061-.357-1.541-.202c-.484.157-.951.457-1.195.919-.253.48-.342,1.007-.202,1.541h0Z"></path><path class="i" d="m42.662,51.88c-.46,1.495-.16,4.935,2.673,5.228,3.744-.022,3.943-4.181,2.683-6.137-1.032-1.601-4.066-2.267-5.356.909Z"></path><path class="i" d="m72.645,51.881c.46,1.495.16,4.935-2.672,5.228-3.744-.023-3.944-4.181-2.683-6.137,1.032-1.601,4.066-2.267,5.356.909Z"></path><path class="i" d="m74.181,3.14C62.192-1.725,48.733-.931,37.47,5.482c-4.149,2.362-7.729,5.37-10.535,9.241-2.95,4.07-4.935,8.84-6.245,13.672-1.89,6.972-2.427,14.284-2.208,21.484.078,2.568,4.078,2.579,4,0-.325-10.695.929-22.23,6.776-31.467,5.203-8.219,15.156-13.296,24.676-14.298,6.558-.69,13.101.415,19.184,2.883,1.001.406,2.198-.442,2.46-1.397.314-1.144-.392-2.052-1.397-2.46h0Z"></path><path class="i" d="m104.219,100.572c-2.868-2.195-5.397-4.443-6.215-8.101-.733-3.279-.819-6.778-1.031-10.123-.461-7.289-.623-14.598-.605-21.901.017-6.989.265-13.96.113-20.95-.136-6.256-1.215-12.423-3.81-18.148-2.732-6.028-7.409-11.701-13.108-15.131-2.211-1.331-4.224,2.126-2.019,3.454,4.895,2.946,8.828,7.795,11.3,12.901,2.625,5.422,3.53,11.405,3.646,17.374.136,7.05-.118,14.083-.123,21.131-.006,7.285.165,14.578.643,21.849.248,3.775.318,7.823,1.354,11.476,1.217,4.291,4.426,7.015,7.835,9.623.859.657,2.239.133,2.736-.718.602-1.03.143-2.078-.718-2.736h0Z"></path><path class="i" d="m12.599,102.043c2.836-2.088,5.751-4.286,7.205-7.606,1.434-3.274,1.535-7.05,1.837-10.569.619-7.215.922-14.46.996-21.7.042-4.097.002-8.195-.154-12.29-.098-2.566-4.098-2.579-4,0,.336,8.835.18,17.697-.317,26.523-.229,4.066-.508,8.14-.989,12.185-.25,2.104-.712,4.225-2.024,5.941-1.239,1.621-2.945,2.863-4.572,4.061-.869.639-1.304,1.734-.718,2.736.501.857,1.862,1.361,2.736.718h0Z"></path><path class="i" d="m67.978,26.171c1.135,4.491,2.555,8.773,5.012,12.722,2.257,3.628,5.068,7.375,9.123,9.063.998.415,2.2-.448,2.46-1.397.316-1.151-.395-2.043-1.397-2.46-1.374-.572-2.636-1.866-3.647-3-1.301-1.459-2.402-3.084-3.41-4.755-2.114-3.505-3.284-7.282-4.283-11.236-.63-2.494-4.489-1.437-3.857,1.063h0Z"></path><path class="i" d="m62.322,24.183c-.293,1.501-.654,2.99-1.196,4.422-.06.159-.123.318-.187.476-.141.344.195-.41-.079.179-.146.314-.29.627-.445.937-.326.652-.672,1.299-1.059,1.917-.725,1.157-1.51,2.082-2.618,3.055-.528.463-.877.719-1.549,1.128-.632.385-1.293.705-1.8.892-1.013.373-1.7,1.356-1.397,2.46.268.975,1.442,1.772,2.46,1.397,6.747-2.488,10.411-9.052,11.727-15.799.207-1.059-.3-2.159-1.397-2.46-.981-.27-2.252.331-2.46,1.397h0Z"></path><path class="i" d="m50.921,24.547c-.11,2.395-.756,5.066-1.83,7.235-1.22,2.464-2.766,4.386-4.895,6.146-.833.689-.713,2.116,0,2.828.824.824,1.993.69,2.828,0,4.832-3.994,7.61-9.984,7.896-16.209.05-1.08-.955-2-2-2-1.125,0-1.95.917-2,2h0Z"></path><path class="i" d="m34.479,51.171c.594-4.223,1.641-8.366,4.121-11.896,2.907-4.14,5.05-9,4.229-14.141-.17-1.067-1.501-1.66-2.46-1.397-1.136.312-1.568,1.39-1.397,2.46.736,4.612-2.293,8.497-4.577,12.143-2.192,3.499-3.204,7.731-3.772,11.768-.15,1.068.261,2.148,1.397,2.46.936.257,2.309-.32,2.46-1.397h0Z"></path><path class="i" d="m55.495,230.042c0,7.86.016,15.721.031,23.581.022,10.787.048,21.575.076,32.362.029,11.366.06,22.732.091,34.097.027,9.778.054,19.557.079,29.335.015,5.851.033,11.703.038,17.554,0,.344,0,.689,0,1.033,0,2.574,4,2.578,4,0,0-5.215-.018-10.429-.031-15.644-.024-9.419-.05-18.837-.076-28.256-.031-11.286-.062-22.573-.091-33.859-.029-10.988-.056-21.975-.079-32.963-.018-8.339-.035-16.677-.038-25.016,0-.742,0-1.483,0-2.225,0-2.574-4-2.578-4,0h0Z"></path><path class="i" d="m22,192.882c-4.186,12.182-4.247,25.238-3.641,37.962.65,13.621,1.551,27.235,2.395,40.846,1.708,27.53,3.58,55.05,5.616,82.558.282,3.804.44,7.642.856,11.433.17,1.552.813,2.921,2.14,3.819,1.34.907,3.12,1.141,4.68,1.45,7.214,1.427,14.641,1.279,21.799-.393,2.506-.585,1.445-4.443-1.063-3.857-5.976,1.395-12.241,1.656-18.302.643-1.421-.238-3.222-.379-4.536-.986-1.033-.477-.792-1.66-.868-2.664-.25-3.314-.497-6.628-.742-9.942-.98-13.257-1.923-26.516-2.827-39.779-1.794-26.31-3.468-52.63-4.93-78.96-.764-13.747-1.259-27.857,3.28-41.066.838-2.44-3.024-3.487-3.857-1.063h0Z"></path><path class="i" d="m89.899,195.3c3.727,11.773,3.612,24.214,3.006,36.419-.645,12.998-1.486,25.989-2.29,38.978-1.623,26.202-3.394,52.396-5.315,78.578-.267,3.646-.538,7.291-.811,10.936-.075.994-.149,1.988-.224,2.982-.056.749.073,1.787-.188,2.485-.376,1.006-2.093,1.038-2.969,1.227-6.771,1.467-13.838,1.369-20.579-.206-2.504-.585-3.573,3.271-1.063,3.857,6.261,1.463,12.683,1.741,19.048.854,1.534-.214,3.057-.497,4.564-.853,1.467-.346,2.836-.746,3.841-1.942.973-1.158,1.124-2.476,1.234-3.931.125-1.657.25-3.314.374-4.97,1.023-13.669,2.006-27.341,2.949-41.017,1.873-27.186,3.59-54.383,5.138-81.59.814-14.306,1.527-29.021-2.857-42.871-.774-2.445-4.637-1.401-3.857,1.063h0Z"></path><path class="i" d="m40.857,90.734c-6.124,2.089-12.24,4.349-18.049,7.216-2.415,1.192-4.781,2.504-6.908,4.165-2.499,1.952-4.614,4.564-6.274,7.254-2.564,4.155-3.833,8.921-4.811,13.661-1.129,5.476-2.035,11.002-2.815,16.538-.492,3.495-.933,6.998-1.294,10.51-.315,3.066-.7,6.18-.7,9.264,0,5.271-.187,10.481,1.353,15.597,1.154,3.833,3.145,7.431,6.044,10.219,2.695,2.592,6.075,4.435,9.381,6.108,1.739.88,3.505,1.704,5.28,2.506,1.815.82,3.713,1.913,5.627,2.465,1.63.47,3.388.103,4.683-.986,1.144-.961,1.733-2.477,2.417-3.773,2.426-4.593,4.861-9.184,7.21-13.817,1.162-2.291-2.288-4.318-3.454-2.019-1.892,3.731-3.851,7.429-5.796,11.132-.569,1.083-1.139,2.165-1.711,3.246-.372.704-.832,2.285-1.756,2.422-.47.07-.946-.236-1.36-.418-.738-.326-1.477-.651-2.214-.978-1.639-.728-3.273-1.466-4.89-2.241-2.491-1.194-4.952-2.469-7.291-3.942-.427-.269-.849-.547-1.262-.838-.209-.148-.415-.299-.619-.453.337.255-.477-.393-.625-.52-2.413-2.083-4.11-4.489-5.26-7.554-1.808-4.815-1.756-9.67-1.756-14.731,0-5.771.728-11.558,1.465-17.275.714-5.537,1.593-11.057,2.637-16.541.773-4.065,1.558-8.244,3.165-12.075,1.331-3.173,3.337-5.986,5.754-8.422,1.77-1.784,3.964-3.049,6.171-4.217,5.957-3.152,12.355-5.472,18.721-7.643,2.423-.826,1.383-4.691-1.063-3.857h0Z"></path><path class="i" d="m22.151,129.984c-.318,7.628.159,15.279.313,22.906.052,2.571,4.052,2.579,4,0-.154-7.627-.631-15.277-.313-22.906.107-2.574-3.893-2.569-4,0h0Z"></path><path class="i" d="m32.214,192.673c1.527,1.53,2.688,3.324,3.888,5.109,1.215,1.807,2.777,3.467,4.317,5,.776.773,1.611,1.538,2.544,2.121.919.574,2.024.936,3.049,1.275,2.568.848,4.997.538,7.336-.812,2.229-1.286.217-4.744-2.019-3.454-.854.493-1.748.876-2.758.793-.711-.059-1.631-.417-2.374-.695-1.503-.563-2.729-1.778-3.987-3.14-.761-.824-1.496-1.673-2.227-2.525-.162-.189-.345-.513-.073-.068-.064-.104-.143-.199-.21-.301-.197-.299-.397-.595-.595-.893-1.221-1.839-2.499-3.672-4.062-5.239-1.821-1.825-4.65,1.003-2.828,2.828h0Z"></path><path class="i" d="m56.971,203.268c1.808,2.586,3.645,5.153,5.48,7.72.586.819,1.789,1.387,2.736.718,4.847-3.428,9.553-7.064,14.29-10.64.861-.65,1.308-1.726.718-2.736-.496-.848-1.869-1.372-2.736-.718-4.737,3.576-9.443,7.212-14.29,10.64l2.736.718c-1.835-2.567-3.672-5.134-5.48-7.72-.618-.884-1.75-1.294-2.736-.718-.875.512-1.339,1.847-.718,2.736h0Z"></path><path class="i" d="m46.105,180.789c-4.1-5.915-8.285-11.801-12.11-17.9l-.313,2.424c.171-.141.346-.276.519-.414.215-.171.295-.229.009-.008.165-.127.331-.254.496-.381.796-.609,1.596-1.213,2.397-1.815,2.297-1.728,4.603-3.444,6.912-5.157,5.273-3.913,10.559-7.811,15.866-11.678,1.901-1.385,3.798-2.777,5.726-4.124l-2.736-.718c6.816,8.844,13.301,17.947,19.75,27.06,1.475,2.085,4.945.089,3.454-2.019-6.449-9.113-12.934-18.216-19.75-27.06-.617-.801-1.761-1.399-2.736-.718-9.497,6.635-18.759,13.641-28.022,20.597-1.58,1.186-3.186,2.352-4.713,3.606-.659.541-.749,1.728-.313,2.424,3.825,6.099,8.01,11.985,12.11,17.9,1.457,2.101,4.925.104,3.454-2.019h0Z"></path><path class="i" d="m55.141,179.413c-1.424.483-2.875.931-4.361,1.18-.487.082-1.086.135-1.652.122-.145-.003-.289-.01-.434-.022.236.032.249.028.038-.012-.228-.064-.468-.1-.7-.148-1.13-.237-2.261-.466-3.388-.716-1.277-.283-2.529-.495-3.804-.053-2.942,1.019-4.045,4.712-2.477,7.335.7,1.172,2.05,1.894,3.234,2.491,1.228.619,2.523,1.158,3.852,1.518,2.487.675,3.549-3.183,1.063-3.857-1.019-.277-1.967-.647-2.896-1.115-.477-.24-.945-.5-1.394-.788-.066-.042-.649-.427-.37-.245-.14-.149-.167-.174-.08-.076.084.104.068.067-.048-.112.057.459-.102-.476-.057-.212.015.089-.013-.458.002-.578-.04.307.102-.308.103-.31-.039.139.079-.108.08-.11-.009.01.228-.166.053-.084.165-.077.418-.139.598-.159-.447.048.51.051.245.022-.138-.015.399.091.471.108,1.838.421,3.805,1.015,5.692,1.115,2.457.13,4.997-.657,7.295-1.437,1.022-.347,1.695-1.375,1.397-2.46-.274-.997-1.433-1.746-2.46-1.397h0Z"></path><path class="i" d="m40.341,187.167c-.828,3.433,1.517,8.212,4.557,9.937l-.919-1.195c.782,2.911,2.063,5.935,4.321,8.032,2.012,1.868,5.052,2.077,7.545,1.39,6.751-1.861,12.49-5.865,17.844-10.243,1.994-1.63-.851-4.446-2.828-2.828-2.877,2.353-5.868,4.58-9.134,6.368-1.529.837-3.106,1.574-4.75,2.156-.79.28-1.59.529-2.399.746-.274.074-.549.143-.825.21-.481.11-.557.129-.227.056-.279-.004-.104.012-.442-.044-1.376-.231-2.07-.651-2.877-1.699-.863-1.12-1.501-2.374-1.939-3.715-.33-1.012-.42-2.025-1.352-2.687-.538-.382-.941-.775-1.308-1.34-.706-1.085-1.735-2.734-1.411-4.079.603-2.501-3.253-3.569-3.857-1.063h0Z"></path><path class="i" d="m67.765,175.339c-1.781-1.741-4.274-2.954-6.658-3.628-2.741-.775-5.719-1.178-8.552-1.412-1.219-.101-2.513-.279-3.715.052-1.368.377-2.488,1.461-2.901,2.822-.765,2.524.632,4.702,2.561,6.186,1.915,1.473,4.185,2.341,6.162,3.709.889.615,2.221.164,2.736-.718.581-.994.173-2.12-.718-2.736-1.783-1.234-3.83-2.032-5.6-3.289-.22-.156-.588-.457-.9-.79-.09-.096-.177-.194-.26-.297.12.15.115.13-.016-.058-.064-.104-.121-.211-.174-.321.086.203.092.195.017-.023-.103-.489.015.532-.017-.306-.004-.093.095-.356.085-.28-.164.097-.149.085.046-.035l-.14.048c.121-.043.245-.076.372-.1-.195.024-.162.025.098.004,2.738-.12,5.68.477,8.348,1.044,2.272.482,4.785,1.381,6.396,2.955,1.842,1.801,4.673-1.025,2.828-2.828h0Z"></path><path class="i" d="m75.869,94.594c6.903,2.491,13.862,5.167,20.246,8.822,2.766,1.584,5.039,3.341,7.072,5.814,2.402,2.922,4.078,6.312,5.169,9.919,1.704,5.633,2.467,11.534,3.145,17.363.867,7.452,1.483,14.962,1.559,22.467.058,5.74.43,11.916-1.883,17.3-1.407,3.275-3.653,5.701-6.301,8.016-2.472,2.162-5.061,4.132-7.927,5.747-3.421,1.928-7.081,3.514-10.743,4.923-1.908.735-3.851,1.374-5.832,1.882-1.236.316-3.489,1.368-4.175-.272-.407-.974-.575-2.131-.855-3.151-.323-1.176-.649-2.352-.976-3.527-.648-2.33-1.3-4.659-1.938-6.992-.294-1.076-.585-2.153-.872-3.232-.244-.92-.911-2.304-.739-3.263.123-.687.747-.936,1.3-1.213,1.068-.535,2.15-1.042,3.227-1.556,3.389-1.617,6.833-3.146,10.147-4.915,2.82-1.505,5.991-3.302,7.78-6.03,2.219-3.385,2.295-7.206,2.33-11.094.04-4.439.012-8.878-.067-13.317-.032-1.822-.074-3.645-.125-5.467-.072-2.569-4.072-2.579-4,0,.118,4.213.187,8.428.205,12.643.011,2.448.004,4.896-.025,7.344-.024,2.024-.042,3.77-.721,5.69-1.15,3.249-4.016,4.924-6.903,6.511-3.454,1.899-7.083,3.485-10.638,5.18-1.955.933-4.469,1.695-5.683,3.621-1.329,2.108-.651,4.247-.065,6.468,1.275,4.829,2.651,9.63,3.972,14.447.605,2.207.95,4.53,2.997,5.891,1.895,1.259,3.986.787,6.047.298,4.222-1.003,8.215-2.654,12.177-4.395,3.526-1.55,6.969-3.258,10.103-5.515,2.996-2.158,6.214-4.611,8.517-7.509,2.228-2.803,3.864-5.961,4.704-9.453.824-3.426.961-6.964.961-10.472,0-7.112-.284-14.181-.949-21.266-.619-6.599-1.316-13.291-2.746-19.773-1.621-7.35-4.757-14.891-10.856-19.665-5.927-4.64-13.387-7.473-20.34-10.171-1.736-.674-3.482-1.324-5.234-1.956-2.426-.875-3.47,2.989-1.063,3.857h0Z"></path><path class="i" d="m40.877,97.61c5.324,3.437,11.892,4.79,18.17,4.701,6.046-.086,12.73-1.153,17.583-5.014.846-.673.703-2.126,0-2.828-.836-.836-1.98-.675-2.828,0-1.881,1.496-4.306,2.298-6.608,2.86-2.798.684-5.673.973-8.55.986-5.483.024-11.099-1.158-15.747-4.159-2.169-1.4-4.177,2.061-2.019,3.454h0Z"></path></g></g></svg>